<?xml version="1.0" ?><!DOCTYPE svg  PUBLIC '-//W3C//DTD SVG 1.1//EN'  'http://www.w3.org/Graphics/SVG/1.1/DTD/svg11.dtd'><svg enable-background="new 0 0 512 512" id="Layer_1" version="1.1" viewBox="0 0 512 512" xml:space="preserve" xmlns="http://www.w3.org/2000/svg" xmlns:xlink="http://www.w3.org/1999/xlink"><g><g><circle cx="256" cy="280.3" fill="#D0E5F6" r="224.6"/></g><g><g><g><path d="M481.9,300.4c0.6-1.9,1.2-3.7,1.8-5.5L277.2,75.4c-1-1-2.6-1.1-3.6-0.1c-1,1-1.1,2.6-0.1,3.6      L481.9,300.4z" fill="#FFFFFF"/></g><g><path d="M477.1,322.4c0.1-0.8,0.2-1.6,0.4-2.4c0.2-1.4,0.4-2.8,0.7-4.1L277.2,92.2c-0.9-1.1-2.6-1.1-3.6-0.2      c-1.1,0.9-1.1,2.6-0.2,3.6L477.1,322.4z" fill="#FFFFFF"/></g><g><path d="M472.5,346.2c0.6-2,1.1-4,1.5-6.1L277.3,109c-0.9-1.1-2.5-1.2-3.6-0.3c-1.1,0.9-1.2,2.5-0.3,3.6      L472.5,346.2z" fill="#FFFFFF"/></g><g><path d="M464.1,367.8c0.8-1.7,1.6-3.4,2.4-5.2L277.3,125.8c-0.9-1.1-2.5-1.3-3.6-0.4c-1.1,0.9-1.3,2.5-0.4,3.6      L464.1,367.8z" fill="#FFFFFF"/></g><g><path d="M453.1,388.5c0.9-1.6,1.9-3.2,2.8-4.9L277.4,142.6c-0.8-1.1-2.4-1.4-3.6-0.5c-1.1,0.8-1.4,2.4-0.5,3.6      L453.1,388.5z" fill="#FFFFFF"/></g><g><path d="M440,409.1c0.2-0.3,0.4-0.6,0.6-0.9c0.8-1.2,1.6-2.5,2.5-3.7L277.5,159.4c-0.8-1.2-2.4-1.5-3.6-0.7      c-1.2,0.8-1.5,2.4-0.7,3.6L440,409.1z" fill="#FFFFFF"/></g><g><path d="M424.2,429.6C424.2,429.6,424.2,429.6,424.2,429.6c1.2-1.4,2.3-2.8,3.5-4.1L277.5,176.2      c-0.7-1.2-2.3-1.6-3.5-0.9c-1.2,0.7-1.6,2.3-0.9,3.5L424.2,429.6z" fill="#FFFFFF"/></g><g><path d="M404.5,445.4c-0.9,0-1.8-0.5-2.3-1.4L273.1,195.4c-0.7-1.3-0.2-2.8,1.1-3.4c1.3-0.6,2.8-0.2,3.4,1.1      l129.1,248.6c0.7,1.3,0.2,2.8-1.1,3.4C405.3,445.3,404.9,445.4,404.5,445.4z" fill="#FFFFFF"/></g></g><g><g><path d="M30.7,293.5L232.6,78.9c1-1,0.9-2.6-0.1-3.6c-1-1-2.6-0.9-3.6,0.1L29.2,287.6      C29.9,289.5,30.4,291.5,30.7,293.5z" fill="#FFFFFF"/></g><g><path d="M33.8,317L232.7,95.6c0.9-1.1,0.9-2.7-0.2-3.6c-1.1-0.9-2.7-0.9-3.6,0.2L32.7,310.6      C33,312.8,33.4,314.9,33.8,317z" fill="#FFFFFF"/></g><g><path d="M39.4,339.5l193.3-227.2c0.9-1.1,0.8-2.7-0.3-3.6c-1.1-0.9-2.7-0.8-3.6,0.3L37.7,333.6      C38.2,335.6,38.8,337.5,39.4,339.5z" fill="#FFFFFF"/></g><g><path d="M47,361.6l185.8-232.6c0.9-1.1,0.7-2.7-0.4-3.6c-1.1-0.9-2.7-0.7-3.6,0.4L44.9,356      C45.5,357.9,46.2,359.7,47,361.6z" fill="#FFFFFF"/></g><g><path d="M57.2,382.8l175.7-237.2c0.8-1.1,0.6-2.7-0.5-3.6c-1.1-0.8-2.7-0.6-3.6,0.5L54.5,377.8      C55.4,379.4,56.3,381.1,57.2,382.8z" fill="#FFFFFF"/></g><g><path d="M69.6,403.9l163.2-241.6c0.8-1.2,0.5-2.8-0.7-3.6c-1.2-0.8-2.8-0.5-3.6,0.7l-162,239.8      C67.6,400.7,68.6,402.3,69.6,403.9z" fill="#FFFFFF"/></g><g><path d="M84.7,424.5c0,0.1,0.1,0.1,0.1,0.2l148.1-245.8c0.7-1.2,0.3-2.8-0.9-3.5c-1.2-0.7-2.8-0.3-3.5,0.9      L81.4,420.5C82.5,421.8,83.6,423.2,84.7,424.5z" fill="#FFFFFF"/></g><g><path d="M103.5,444.6c0.2-0.2,0.3-0.4,0.4-0.6L233,195.4c0.7-1.3,0.2-2.8-1.1-3.4c-1.3-0.7-2.8-0.2-3.4,1.1      L99.8,440.9C101,442.2,102.2,443.4,103.5,444.6z" fill="#FFFFFF"/></g></g></g><polygon fill="#F59B80" points="259,313.9 252.6,313.9 221.2,442.9 186.3,442.9 237,230.1  "/><path d="M221.2,445.4h-34.9c-0.8,0-1.5-0.4-2-1c-0.5-0.6-0.7-1.4-0.5-2.2l50.7-212.8c0.3-1.1,1.3-2,2.5-2   c1.2,0,2.2,0.8,2.5,1.9l22,83.9c0.2,0.8,0,1.6-0.4,2.2c-0.5,0.6-1.2,1-2,1h-4.4l-30.9,127C223.4,444.6,222.4,445.4,221.2,445.4z    M189.5,440.3h29.7l30.9-127c0.3-1.1,1.3-2,2.5-2h3.1l-18.6-70.8L189.5,440.3z" fill="#244964"/><g><polygon fill="#E2C69A" points="255.2,4.6 247.9,33.4 280,33.4   "/><path d="M280,36h-32.1c-0.8,0-1.5-0.4-2-1c-0.5-0.6-0.7-1.4-0.5-2.2l7.3-28.9c0.2-0.9,1-1.6,1.9-1.9    c0.9-0.2,1.9,0.1,2.5,0.8L282,31.7c0.7,0.8,0.8,1.8,0.4,2.7C281.9,35.4,281,36,280,36z M251.2,30.9h23.3l-18-20.9L251.2,30.9z" fill="#244964"/></g><g><g><rect fill="#F4B7A5" height="165.6" width="32.1" x="247.9" y="33.4"/><path d="M280,201.6h-32.1c-1.4,0-2.6-1.1-2.6-2.6V33.4c0-1.4,1.1-2.6,2.6-2.6H280c1.4,0,2.6,1.1,2.6,2.6V199     C282.6,200.5,281.5,201.6,280,201.6z M250.5,196.5h27V36h-27V196.5z" fill="#244964"/></g><g><rect fill="#F5F7F9" height="165.6" width="21.9" x="226.1" y="33.4"/><path d="M247.9,201.6h-21.9c-1.4,0-2.6-1.1-2.6-2.6V33.4c0-1.4,1.1-2.6,2.6-2.6h21.9c1.4,0,2.6,1.1,2.6,2.6V199     C250.5,200.5,249.3,201.6,247.9,201.6z M228.6,196.5h16.7V36h-16.7V196.5z" fill="#244964"/></g></g><g><polygon fill="#F6D8A8" points="255.2,4.6 247.9,33.4 226.1,33.4   "/><path d="M247.9,36h-21.9c-1,0-2-0.6-2.4-1.6c-0.4-1-0.2-2.1,0.6-2.8l29.2-28.9c0.8-0.8,2.1-1,3.1-0.4    c1,0.6,1.5,1.7,1.2,2.8L250.4,34C250.1,35.2,249.1,36,247.9,36z M232.3,30.9h13.6l4.6-18L232.3,30.9z" fill="#244964"/></g><polygon fill="#F4B7A5" points="280,199 247.9,199 304.7,442.9 336.8,442.9  "/><path d="M336.8,445.4h-32.1c-1.2,0-2.2-0.8-2.5-2l-56.8-243.8c-0.2-0.8,0-1.6,0.5-2.2c0.5-0.6,1.2-1,2-1H280   c1.2,0,2.2,0.8,2.5,2l56.8,243.8c0.2,0.8,0,1.6-0.5,2.2C338.3,445.1,337.6,445.4,336.8,445.4z M306.7,440.3h26.9L278,201.6h-26.9   L306.7,440.3z" fill="#244964"/><polygon fill="#F5F7F9" points="226.1,199 169.3,442.9 193.7,442.9 238.2,251.9 282.6,442.9 304.7,442.9 247.9,199  "/><path d="M304.7,445.4h-22.1c-1.2,0-2.2-0.8-2.5-2l-41.9-180.2l-41.9,180.2c-0.3,1.2-1.3,2-2.5,2h-24.4   c-0.8,0-1.5-0.4-2-1c-0.5-0.6-0.7-1.4-0.5-2.2l56.8-243.8c0.3-1.2,1.3-2,2.5-2h21.8c1.2,0,2.2,0.8,2.5,2l56.8,243.8   c0.2,0.8,0,1.6-0.5,2.2C306.2,445.1,305.5,445.4,304.7,445.4z M284.6,440.3h16.8l-55.6-238.7h-17.8l-55.6,238.7h19.1l44-189   c0.3-1.2,1.3-2,2.5-2l0,0c1.2,0,2.2,0.8,2.5,2L284.6,440.3z" fill="#244964"/><path d="M394.1,458.8c0.4-0.3,0.7-0.5,0.9-0.6c0.4-0.4,0.8-0.7,1-0.9c2.1-1.7,4.1-3.5,6.1-5.3   c3.3-2.9,6.5-6,9.6-9.1H101.7c5.7,5.6,11.7,11.1,17.9,16.1c0.1,0.1,0.8,0.7,1.6,1.4c0.3,0.2,0.8,0.6,1.4,1c0.5,0.4,1,0.7,1.5,1.1   h264.8C390.7,461.3,392.4,460.1,394.1,458.8z" fill="#F5F7F9"/><path d="M392.5,459.9H120.6c0.2,0.1,0.3,0.3,0.5,0.4c0.3,0.2,0.8,0.6,1.4,1c1.7,1.2,3.4,2.4,5.1,3.6h257.5   C387.7,463.4,390.1,461.7,392.5,459.9z" fill="#244964"/><path d="M414.3,440.3H99.1c1.7,1.7,3.4,3.4,5.2,5.1h304.9C410.9,443.7,412.6,442,414.3,440.3z" fill="#244964"/><path d="M357.1,479.7c1.6-0.6,3.2-1.2,4.8-1.8c1.2-0.5,4.7-2.6,1.1-0.4c-3.9,2.4,2.7-1.3,3.8-1.9   c4.8-2.4,9.5-5,14.1-7.8c2.8-1.7,5.5-3.5,8.1-5.4H124.1c1.6,1.1,3.1,2.3,4.7,3.4c4.4,3.1,8.9,6,13.6,8.8c9.3,5.6,19,10.2,29,14.6   c5.2,2.3,10.3,4.7,15.5,7.1c23,2.2,45,4.8,65.7,7.9h7.1c12.3-1.8,25.1-3.5,38.2-5C317.1,491.6,337.4,486.7,357.1,479.7z" fill="#FFFFFF"/><path d="M392.5,459.9H120.6c0.2,0.1,0.3,0.3,0.5,0.4c0.3,0.2,0.8,0.6,1.4,1c1.7,1.2,3.4,2.4,5.1,3.6h257.5   C387.7,463.4,390.1,461.7,392.5,459.9z" fill="#244964"/><path d="M307.6,495.6c-16.6,1.8-32.7,3.8-48.2,6.1h-6.7c-23.1-3.4-47.5-6.2-72.8-8.5c4.7,2.2,9.4,4.3,14.1,6.5   c20.1,2,39.6,4.4,58.2,7.1c0.1,0,0.2,0,0.4,0h7.1c0.1,0,0.2,0,0.4,0c9.6-1.4,19.4-2.7,29.4-3.9   C295.3,500.1,301.4,497.8,307.6,495.6z" fill="#244964"/><g><path d="M281.5,52.1v10.3c109,12.7,193.9,105.6,193.9,217.9c0,121-98.4,219.4-219.4,219.4    c-121,0-219.4-98.4-219.4-219.4c0-110.3,81.9-201.9,188-217.2V52.8C112.8,68.2,26.3,164.3,26.3,280.3C26.3,407,129.4,510,256,510    c126.6,0,229.7-103,229.7-229.7C485.7,162.3,396.2,64.8,281.5,52.1z" fill="#244964"/></g></g></svg>