<?xml version="1.0" ?><svg enable-background="new 0 0 512 512" version="1.1" viewBox="0 0 512 512" xml:space="preserve" xmlns="http://www.w3.org/2000/svg" xmlns:xlink="http://www.w3.org/1999/xlink"><g id="Colors"><g opacity="0.5"><g><g><g><circle cx="257" cy="257" fill="#C3ECFC" r="223.5"/></g></g></g><g><g><rect fill="#EABC9D" height="116" width="82" x="61" y="81"/></g></g><g><g><rect fill="#A36654" height="114" width="28" x="89" y="79"/></g></g><g><g><rect fill="#EABC9D" height="203" width="145" x="30" y="197"/></g></g><g><g><g><path d="M492.045,136.668c0,19.104-15.372,34.36-34.422,34.583c-0.138,0.004-0.28-0.251-0.42-0.251H316.162       c-0.42,0-0.84,0.247-1.259,0.234c-20.745-0.664-37.359-17.562-37.359-38.472c0-19.174,13.974-35.02,32.292-38.034       c-0.528-2.182-0.81-4.435-0.81-6.785c0-15.997,12.967-28.948,28.964-28.948c9.025,0,17.084,4.135,22.395,10.607       c7.75-20.43,27.499-34.941,50.645-34.941c29.908,0,54.15,24.243,54.15,54.151c0,4.689-0.596,9.236-1.717,13.577       C479.721,105.336,492.045,119.564,492.045,136.668z" fill="#EFF5F9"/></g></g><g><g><path d="M347.793,70.68c0,6.438-5.218,11.655-11.655,11.655c-6.436,0-11.655-5.217-11.655-11.655       c0-6.437,5.219-11.655,11.655-11.655C342.575,59.024,347.793,64.243,347.793,70.68z" fill="#FFFFFF"/></g></g><g><g><path d="M413.797,58.349c0,10.487-8.502,18.989-18.991,18.989c-10.487,0-18.99-8.502-18.99-18.989       c0-10.488,8.503-18.99,18.99-18.99C405.295,39.358,413.797,47.861,413.797,58.349z" fill="#FFFFFF"/></g></g><g><g><path d="M322.089,153.159c-47.089,0-41.589-39.409-41.589-39.409c-11.25,60,37.666,57.25,37.666,57.25       s124.145,0,139.457,0c15.314,0,30.625-9.173,34.233-28.914C495.462,122.344,475,105.469,475,105.469       c2.277,3.29,22.36,47.531-23.704,47.531H336.01L322.089,153.159z" fill="#CFDBE2"/></g></g><g><g><path d="M440.413,168.298v0.003h-0.38C440.158,168.301,440.287,168.301,440.413,168.298z" fill="#4D4D4D"/></g></g><g><g><path d="M429.138,176.354c-41.585,0-113.969-0.013-114.392-0.026c-23.666-0.757-42.202-19.872-42.202-43.517       c0-19.75,13.026-36.652,31.611-41.907c-0.085-0.98-0.128-1.963-0.128-2.948c0-18.722,15.236-33.954,33.964-33.954       c7.62,0,14.886,2.526,20.777,7.094c10.155-19.061,30.322-31.433,52.262-31.433c32.616,0,59.15,26.535,59.15,59.151       c0,3.327-0.277,6.64-0.826,9.898c16.313,5.192,27.691,20.418,27.691,37.956c0,21.625-17.658,39.425-39.363,39.678       C457.488,176.351,445.776,176.354,429.138,176.354z M457.616,171.347h0.01H457.616z M315.002,166.33       c3.376,0.013,141.602,0.022,142.6,0.017c16.274-0.245,29.443-13.537,29.443-29.679c0-14.441-10.292-26.788-24.474-29.358       c-1.368-0.248-2.57-1.054-3.32-2.225c-0.749-1.17-0.977-2.6-0.63-3.946c1.034-4.002,1.558-8.149,1.558-12.326       c0-27.102-22.049-49.151-49.15-49.151c-20.299,0-38.773,12.746-45.97,31.716c-0.633,1.668-2.106,2.873-3.867,3.161       c-1.76,0.287-3.541-0.384-4.673-1.763c-4.575-5.577-11.329-8.775-18.529-8.775c-13.214,0-23.964,10.746-23.964,23.954       c0,1.895,0.225,3.786,0.669,5.621c0.327,1.352,0.077,2.778-0.691,3.938c-0.768,1.159-1.984,1.946-3.357,2.172       c-16.284,2.679-28.104,16.61-28.104,33.124C282.544,151.004,296.796,165.716,315.002,166.33z" fill="#3F456B"/></g></g><g><g><path d="M338.479,100.979c-0.518,0-1.044-0.081-1.562-0.251c-12.423-4.085-28.917-0.594-29.082-0.559       c-2.699,0.585-5.36-1.131-5.944-3.83s1.13-5.36,3.83-5.944c0.782-0.17,19.342-4.091,34.319,0.832       c2.624,0.862,4.051,3.688,3.188,6.312C342.536,99.644,340.58,100.979,338.479,100.979z" fill="#3F456B"/></g></g></g><g><g><rect fill="#FCF5ED" height="203" width="129" x="363" y="197"/></g></g><g><g><rect fill="#F7F7F7" height="203" width="13" x="363" y="197"/></g></g><g><g><rect fill="#F7F7F7" height="13" width="129" x="363" y="197"/></g></g><g><g><rect fill="#A36654" height="204" width="53" x="77" y="197"/></g></g><g><g><path d="M492,405H363c-2.761,0-5-2.239-5-5V197c0-2.761,2.239-5,5-5h129c2.761,0,5,2.239,5,5v203      C497,402.761,494.761,405,492,405z M368,395h119V202H368V395z" fill="#3F456B"/></g></g><g opacity="0.2"><g><rect fill="#3F456B" height="203" width="13" x="479" y="197"/></g></g><g opacity="0.5"><g><rect fill="#F7F7F7" height="203" width="14.612" x="30" y="197"/></g></g><g opacity="0.5"><g><rect fill="#F7F7F7" height="13" width="145" x="30" y="197"/></g></g><g opacity="0.5"><g><rect fill="#F7F7F7" height="13" width="87" x="59" y="81"/></g></g><g><g><path d="M175,405H30c-2.761,0-5-2.239-5-5V197c0-2.761,2.239-5,5-5h145c2.761,0,5,2.239,5,5v203      C180,402.761,177.761,405,175,405z M35,395h135V202H35V395z" fill="#3F456B"/></g></g><g opacity="0.2"><g><rect fill="#3F456B" height="203" width="14.612" x="160.388" y="197"/></g></g><g><g><rect fill="#FCF5ED" height="79" width="67" x="363" y="117"/></g></g><g><g><rect fill="#F7F7F7" height="79" width="13" x="363" y="117"/></g></g><g><g><rect fill="#F7F7F7" height="13" width="67" x="363" y="117"/></g></g><g><g><path d="M430,201h-67c-2.761,0-5-2.239-5-5v-79c0-2.761,2.239-5,5-5h67c2.761,0,5,2.239,5,5v79      C435,198.761,432.761,201,430,201z M368,191h57v-69h-57V191z" fill="#3F456B"/></g></g><g><g><rect fill="#FCF5ED" height="32" width="35" x="379" y="85"/></g></g><g><g><path d="M414,122h-35c-2.761,0-5-2.239-5-5V85c0-2.761,2.239-5,5-5h35c2.761,0,5,2.239,5,5v32      C419,119.761,416.761,122,414,122z M384,112h25V90h-25V112z" fill="#3F456B"/></g></g><g opacity="0.2"><g><rect fill="#3F456B" height="79" width="13" x="417" y="117"/></g></g><g><g><g><path d="M396.379,222.662c0,3.575-2.897,6.473-6.473,6.473c-3.574,0-6.473-2.898-6.473-6.473       c0-3.575,2.898-6.474,6.473-6.474C393.482,216.189,396.379,219.087,396.379,222.662z" fill="#3F456B"/></g></g><g><g><path d="M421.379,222.662c0,3.575-2.897,6.473-6.473,6.473c-3.574,0-6.473-2.898-6.473-6.473       c0-3.575,2.898-6.474,6.473-6.474C418.482,216.189,421.379,219.087,421.379,222.662z" fill="#3F456B"/></g></g><g><g><path d="M446.379,222.662c0,3.575-2.897,6.473-6.473,6.473c-3.574,0-6.473-2.898-6.473-6.473       c0-3.575,2.898-6.474,6.473-6.474C443.482,216.189,446.379,219.087,446.379,222.662z" fill="#3F456B"/></g></g><g><g><path d="M471.379,222.662c0,3.575-2.897,6.473-6.473,6.473c-3.574,0-6.473-2.898-6.473-6.473       c0-3.575,2.898-6.474,6.473-6.474C468.482,216.189,471.379,219.087,471.379,222.662z" fill="#3F456B"/></g></g></g><g><g><g><path d="M55.406,231.634c-3.575,0-6.473-2.896-6.473-6.473c0-3.574,2.898-6.473,6.473-6.473       c3.575,0,6.474,2.898,6.474,6.473C61.879,228.738,58.98,231.634,55.406,231.634z" fill="#3F456B"/></g></g><g><g><path d="M55.406,256.634c-3.575,0-6.473-2.896-6.473-6.473c0-3.574,2.898-6.473,6.473-6.473       c3.575,0,6.474,2.898,6.474,6.473C61.879,253.738,58.98,256.634,55.406,256.634z" fill="#3F456B"/></g></g><g><g><path d="M55.406,281.634c-3.575,0-6.473-2.896-6.473-6.473c0-3.574,2.898-6.473,6.473-6.473       c3.575,0,6.474,2.898,6.474,6.473C61.879,278.738,58.98,281.634,55.406,281.634z" fill="#3F456B"/></g></g><g><g><path d="M55.406,306.634c-3.575,0-6.473-2.896-6.473-6.473c0-3.574,2.898-6.473,6.473-6.473       c3.575,0,6.474,2.898,6.474,6.473C61.879,303.738,58.98,306.634,55.406,306.634z" fill="#3F456B"/></g></g></g><g><g><g><path d="M149.406,231.634c-3.575,0-6.473-2.896-6.473-6.473c0-3.574,2.898-6.473,6.473-6.473       c3.575,0,6.474,2.898,6.474,6.473C155.879,228.738,152.98,231.634,149.406,231.634z" fill="#3F456B"/></g></g><g><g><path d="M149.406,256.634c-3.575,0-6.473-2.896-6.473-6.473c0-3.574,2.898-6.473,6.473-6.473       c3.575,0,6.474,2.898,6.474,6.473C155.879,253.738,152.98,256.634,149.406,256.634z" fill="#3F456B"/></g></g><g><g><path d="M149.406,281.634c-3.575,0-6.473-2.896-6.473-6.473c0-3.574,2.898-6.473,6.473-6.473       c3.575,0,6.474,2.898,6.474,6.473C155.879,278.738,152.98,281.634,149.406,281.634z" fill="#3F456B"/></g></g><g><g><path d="M149.406,306.634c-3.575,0-6.473-2.896-6.473-6.473c0-3.574,2.898-6.473,6.473-6.473       c3.575,0,6.474,2.898,6.474,6.473C155.879,303.738,152.98,306.634,149.406,306.634z" fill="#3F456B"/></g></g></g><g><g><g><path d="M396.379,273.662c0,3.575-2.897,6.473-6.473,6.473c-3.574,0-6.473-2.898-6.473-6.473       c0-3.575,2.898-6.474,6.473-6.474C393.482,267.189,396.379,270.087,396.379,273.662z" fill="#3F456B"/></g></g><g><g><path d="M421.379,273.662c0,3.575-2.897,6.473-6.473,6.473c-3.574,0-6.473-2.898-6.473-6.473       c0-3.575,2.898-6.474,6.473-6.474C418.482,267.189,421.379,270.087,421.379,273.662z" fill="#3F456B"/></g></g><g><g><path d="M446.379,273.662c0,3.575-2.897,6.473-6.473,6.473c-3.574,0-6.473-2.898-6.473-6.473       c0-3.575,2.898-6.474,6.473-6.474C443.482,267.189,446.379,270.087,446.379,273.662z" fill="#3F456B"/></g></g><g><g><path d="M471.379,273.662c0,3.575-2.897,6.473-6.473,6.473c-3.574,0-6.473-2.898-6.473-6.473       c0-3.575,2.898-6.474,6.473-6.474C468.482,267.189,471.379,270.087,471.379,273.662z" fill="#3F456B"/></g></g></g><g><g><g><path d="M396.379,299.162c0,3.575-2.897,6.473-6.473,6.473c-3.574,0-6.473-2.898-6.473-6.473       c0-3.575,2.898-6.474,6.473-6.474C393.482,292.689,396.379,295.587,396.379,299.162z" fill="#3F456B"/></g></g><g><g><path d="M421.379,299.162c0,3.575-2.897,6.473-6.473,6.473c-3.574,0-6.473-2.898-6.473-6.473       c0-3.575,2.898-6.474,6.473-6.474C418.482,292.689,421.379,295.587,421.379,299.162z" fill="#3F456B"/></g></g><g><g><path d="M446.379,299.162c0,3.575-2.897,6.473-6.473,6.473c-3.574,0-6.473-2.898-6.473-6.473       c0-3.575,2.898-6.474,6.473-6.474C443.482,292.689,446.379,295.587,446.379,299.162z" fill="#3F456B"/></g></g><g><g><path d="M471.379,299.162c0,3.575-2.897,6.473-6.473,6.473c-3.574,0-6.473-2.898-6.473-6.473       c0-3.575,2.898-6.474,6.473-6.474C468.482,292.689,471.379,295.587,471.379,299.162z" fill="#3F456B"/></g></g></g><g><g><g><path d="M396.379,324.662c0,3.575-2.897,6.473-6.473,6.473c-3.574,0-6.473-2.898-6.473-6.473       c0-3.575,2.898-6.474,6.473-6.474C393.482,318.189,396.379,321.087,396.379,324.662z" fill="#3F456B"/></g></g><g><g><path d="M421.379,324.662c0,3.575-2.897,6.473-6.473,6.473c-3.574,0-6.473-2.898-6.473-6.473       c0-3.575,2.898-6.474,6.473-6.474C418.482,318.189,421.379,321.087,421.379,324.662z" fill="#3F456B"/></g></g><g><g><path d="M446.379,324.662c0,3.575-2.897,6.473-6.473,6.473c-3.574,0-6.473-2.898-6.473-6.473       c0-3.575,2.898-6.474,6.473-6.474C443.482,318.189,446.379,321.087,446.379,324.662z" fill="#3F456B"/></g></g><g><g><path d="M471.379,324.662c0,3.575-2.897,6.473-6.473,6.473c-3.574,0-6.473-2.898-6.473-6.473       c0-3.575,2.898-6.474,6.473-6.474C468.482,318.189,471.379,321.087,471.379,324.662z" fill="#3F456B"/></g></g></g><g><g><g><path d="M396.379,248.162c0,3.575-2.897,6.473-6.473,6.473c-3.574,0-6.473-2.898-6.473-6.473       c0-3.575,2.898-6.474,6.473-6.474C393.482,241.689,396.379,244.587,396.379,248.162z" fill="#3F456B"/></g></g><g><g><path d="M421.379,248.162c0,3.575-2.897,6.473-6.473,6.473c-3.574,0-6.473-2.898-6.473-6.473       c0-3.575,2.898-6.474,6.473-6.474C418.482,241.689,421.379,244.587,421.379,248.162z" fill="#3F456B"/></g></g><g><g><path d="M446.379,248.162c0,3.575-2.897,6.473-6.473,6.473c-3.574,0-6.473-2.898-6.473-6.473       c0-3.575,2.898-6.474,6.473-6.474C443.482,241.689,446.379,244.587,446.379,248.162z" fill="#3F456B"/></g></g><g><g><path d="M471.379,248.162c0,3.575-2.897,6.473-6.473,6.473c-3.574,0-6.473-2.898-6.473-6.473       c0-3.575,2.898-6.474,6.473-6.474C468.482,241.689,471.379,244.587,471.379,248.162z" fill="#3F456B"/></g></g></g><g><g><path d="M412,142h-31c-2.761,0-5-2.239-5-5s2.239-5,5-5h31c2.761,0,5,2.239,5,5S414.761,142,412,142z" fill="#3F456B"/></g></g><g><g><path d="M412,161h-31c-2.761,0-5-2.239-5-5s2.239-5,5-5h31c2.761,0,5,2.239,5,5S414.761,161,412,161z" fill="#3F456B"/></g></g><g><g><path d="M412,180h-31c-2.761,0-5-2.239-5-5s2.239-5,5-5h31c2.761,0,5,2.239,5,5S414.761,180,412,180z" fill="#3F456B"/></g></g><g><g><g><rect fill="#5481B2" height="207" width="111" x="200" y="109"/></g></g><g opacity="0.3"><g><rect fill="#3F456B" height="207" width="16" x="295" y="109"/></g></g><g opacity="0.3"><g><rect fill="#F7F7F7" height="207" width="16" x="201" y="109"/></g></g><g><g><path d="M311,321H200c-2.761,0-5-2.239-5-5V109c0-2.761,2.239-5,5-5h111c2.761,0,5,2.239,5,5v207       C316,318.761,313.761,321,311,321z M205,311h101V114H205V311z" fill="#3F456B"/></g></g><g><g><g><path d="M311,156.051H200.793c-1.381,0-2.5-1.119-2.5-2.5s1.119-2.5,2.5-2.5H311c1.381,0,2.5,1.119,2.5,2.5        S312.381,156.051,311,156.051z" fill="#3F456B"/></g></g><g><g><path d="M311,134.953H200.793c-1.381,0-2.5-1.119-2.5-2.5s1.119-2.5,2.5-2.5H311c1.381,0,2.5,1.119,2.5,2.5        S312.381,134.953,311,134.953z" fill="#3F456B"/></g></g><g><g><path d="M311,175.231H200.793c-1.381,0-2.5-1.119-2.5-2.5s1.119-2.5,2.5-2.5H311c1.381,0,2.5,1.119,2.5,2.5        S312.381,175.231,311,175.231z" fill="#3F456B"/></g></g><g><g><path d="M311,196.33H200.793c-1.381,0-2.5-1.119-2.5-2.5s1.119-2.5,2.5-2.5H311c1.381,0,2.5,1.119,2.5,2.5        S312.381,196.33,311,196.33z" fill="#3F456B"/></g></g><g><g><path d="M311,215.509H200.793c-1.381,0-2.5-1.119-2.5-2.5s1.119-2.5,2.5-2.5H311c1.381,0,2.5,1.119,2.5,2.5        S312.381,215.509,311,215.509z" fill="#3F456B"/></g></g><g><g><path d="M311,236.607H200.793c-1.381,0-2.5-1.119-2.5-2.5s1.119-2.5,2.5-2.5H311c1.381,0,2.5,1.119,2.5,2.5        S312.381,236.607,311,236.607z" fill="#3F456B"/></g></g><g><g><path d="M311,255.788H200.793c-1.381,0-2.5-1.119-2.5-2.5s1.119-2.5,2.5-2.5H311c1.381,0,2.5,1.119,2.5,2.5        S312.381,255.788,311,255.788z" fill="#3F456B"/></g></g><g><g><path d="M311,276.886H200.793c-1.381,0-2.5-1.119-2.5-2.5s1.119-2.5,2.5-2.5H311c1.381,0,2.5,1.119,2.5,2.5        S312.381,276.886,311,276.886z" fill="#3F456B"/></g></g><g><g><path d="M311,296.065H200.793c-1.381,0-2.5-1.119-2.5-2.5s1.119-2.5,2.5-2.5H311c1.381,0,2.5,1.119,2.5,2.5        S312.381,296.065,311,296.065z" fill="#3F456B"/></g></g></g><g><g><g><path d="M311,155.092H200.793c-1.381,0-2.5-1.119-2.5-2.5s1.119-2.5,2.5-2.5H311c1.381,0,2.5,1.119,2.5,2.5        S312.381,155.092,311,155.092z" fill="#3F456B"/></g></g><g><g><path d="M311,134.953H200.793c-1.381,0-2.5-1.119-2.5-2.5s1.119-2.5,2.5-2.5H311c1.381,0,2.5,1.119,2.5,2.5        S312.381,134.953,311,134.953z" fill="#3F456B"/></g></g><g><g><path d="M311,175.231H200.793c-1.381,0-2.5-1.119-2.5-2.5s1.119-2.5,2.5-2.5H311c1.381,0,2.5,1.119,2.5,2.5        S312.381,175.231,311,175.231z" fill="#3F456B"/></g></g><g><g><path d="M311,195.37H200.793c-1.381,0-2.5-1.119-2.5-2.5s1.119-2.5,2.5-2.5H311c1.381,0,2.5,1.119,2.5,2.5        S312.381,195.37,311,195.37z" fill="#3F456B"/></g></g><g><g><path d="M311,215.509H200.793c-1.381,0-2.5-1.119-2.5-2.5s1.119-2.5,2.5-2.5H311c1.381,0,2.5,1.119,2.5,2.5        S312.381,215.509,311,215.509z" fill="#3F456B"/></g></g><g><g><path d="M311,235.648H200.793c-1.381,0-2.5-1.119-2.5-2.5s1.119-2.5,2.5-2.5H311c1.381,0,2.5,1.119,2.5,2.5        S312.381,235.648,311,235.648z" fill="#3F456B"/></g></g><g><g><path d="M311,255.788H200.793c-1.381,0-2.5-1.119-2.5-2.5s1.119-2.5,2.5-2.5H311c1.381,0,2.5,1.119,2.5,2.5        S312.381,255.788,311,255.788z" fill="#3F456B"/></g></g><g><g><path d="M311,275.927H200.793c-1.381,0-2.5-1.119-2.5-2.5s1.119-2.5,2.5-2.5H311c1.381,0,2.5,1.119,2.5,2.5        S312.381,275.927,311,275.927z" fill="#3F456B"/></g></g><g><g><path d="M311,296.065H200.793c-1.381,0-2.5-1.119-2.5-2.5s1.119-2.5,2.5-2.5H311c1.381,0,2.5,1.119,2.5,2.5        S312.381,296.065,311,296.065z" fill="#3F456B"/></g></g></g></g><g><g><path d="M396,90c-2.761,0-5-2.239-5-5V69c0-2.761,2.239-5,5-5s5,2.239,5,5v16C401,87.761,398.761,90,396,90z" fill="#3F456B"/></g></g><g><g><rect fill="#EABC9D" height="32" width="35" x="85" y="49"/></g></g><g><g><path d="M102,54c-2.761,0-5-2.239-5-5V33c0-2.761,2.239-5,5-5s5,2.239,5,5v16C107,51.761,104.761,54,102,54z" fill="#3F456B"/></g></g><g><g><path d="M77,401c-2.761,0-5-2.239-5-5V197c0-2.761,2.239-5,5-5s5,2.239,5,5v199C82,398.761,79.761,401,77,401z" fill="#3F456B"/></g></g><g><g><path d="M102,401c-2.761,0-5-2.239-5-5V197c0-2.761,2.239-5,5-5s5,2.239,5,5v199      C107,398.761,104.761,401,102,401z" fill="#3F456B"/></g></g><g><g><path d="M89,202c-2.761,0-5-2.239-5-5V81c0-2.761,2.239-5,5-5s5,2.239,5,5v116C94,199.761,91.761,202,89,202z" fill="#3F456B"/></g></g><g><g><path d="M114,202c-2.761,0-5-2.239-5-5V81c0-2.761,2.239-5,5-5s5,2.239,5,5v116C119,199.761,116.761,202,114,202      z" fill="#3F456B"/></g></g><g><g><path d="M128,401c-2.761,0-5-2.239-5-5V197c0-2.761,2.239-5,5-5s5,2.239,5,5v199      C133,398.761,130.761,401,128,401z" fill="#3F456B"/></g></g><g><g><path d="M143,202H61c-2.761,0-5-2.239-5-5V81c0-2.761,2.239-5,5-5h82c2.761,0,5,2.239,5,5v116      C148,199.761,145.761,202,143,202z M66,192h72V86H66V192z" fill="#3F456B"/></g></g><g opacity="0.7"><g><g><path d="M76.5,182h-14c-1.381,0-2.5-1.119-2.5-2.5s1.119-2.5,2.5-2.5h14c1.381,0,2.5,1.119,2.5,2.5       S77.881,182,76.5,182z" fill="#3F456B"/></g></g><g><g><path d="M76.5,165h-14c-1.381,0-2.5-1.119-2.5-2.5s1.119-2.5,2.5-2.5h14c1.381,0,2.5,1.119,2.5,2.5       S77.881,165,76.5,165z" fill="#3F456B"/></g></g><g><g><path d="M76.5,148h-14c-1.381,0-2.5-1.119-2.5-2.5s1.119-2.5,2.5-2.5h14c1.381,0,2.5,1.119,2.5,2.5       S77.881,148,76.5,148z" fill="#3F456B"/></g></g><g><g><path d="M76.5,131h-14c-1.381,0-2.5-1.119-2.5-2.5s1.119-2.5,2.5-2.5h14c1.381,0,2.5,1.119,2.5,2.5       S77.881,131,76.5,131z" fill="#3F456B"/></g></g><g><g><path d="M76.5,114h-14c-1.381,0-2.5-1.119-2.5-2.5s1.119-2.5,2.5-2.5h14c1.381,0,2.5,1.119,2.5,2.5       S77.881,114,76.5,114z" fill="#3F456B"/></g></g><g><g><path d="M76.5,97h-14c-1.381,0-2.5-1.119-2.5-2.5s1.119-2.5,2.5-2.5h14c1.381,0,2.5,1.119,2.5,2.5       S77.881,97,76.5,97z" fill="#3F456B"/></g></g></g><g opacity="0.7"><g><g><path d="M143.5,182h-14c-1.381,0-2.5-1.119-2.5-2.5s1.119-2.5,2.5-2.5h14c1.381,0,2.5,1.119,2.5,2.5       S144.881,182,143.5,182z" fill="#3F456B"/></g></g><g><g><path d="M143.5,165h-14c-1.381,0-2.5-1.119-2.5-2.5s1.119-2.5,2.5-2.5h14c1.381,0,2.5,1.119,2.5,2.5       S144.881,165,143.5,165z" fill="#3F456B"/></g></g><g><g><path d="M143.5,148h-14c-1.381,0-2.5-1.119-2.5-2.5s1.119-2.5,2.5-2.5h14c1.381,0,2.5,1.119,2.5,2.5       S144.881,148,143.5,148z" fill="#3F456B"/></g></g><g><g><path d="M143.5,131h-14c-1.381,0-2.5-1.119-2.5-2.5s1.119-2.5,2.5-2.5h14c1.381,0,2.5,1.119,2.5,2.5       S144.881,131,143.5,131z" fill="#3F456B"/></g></g><g><g><path d="M143.5,114h-14c-1.381,0-2.5-1.119-2.5-2.5s1.119-2.5,2.5-2.5h14c1.381,0,2.5,1.119,2.5,2.5       S144.881,114,143.5,114z" fill="#3F456B"/></g></g><g><g><path d="M143.5,97h-14c-1.381,0-2.5-1.119-2.5-2.5s1.119-2.5,2.5-2.5h14c1.381,0,2.5,1.119,2.5,2.5       S144.881,97,143.5,97z" fill="#3F456B"/></g></g></g><g opacity="0.5"><g><rect fill="#F7F7F7" height="13" width="37" x="84" y="49"/></g></g><g><g><path d="M120,86H85c-2.761,0-5-2.239-5-5V49c0-2.761,2.239-5,5-5h35c2.761,0,5,2.239,5,5v32      C125,83.761,122.761,86,120,86z M90,76h25V54H90V76z" fill="#3F456B"/></g></g></g><g><g><g><g><path d="M21.661,493.812c-7.465-5.675-12.117-13.859-12.025-22.914c0.172-16.885,16.771-30.406,37.075-30.2       c20.304,0.207,36.624,14.063,36.452,30.948c-0.088,8.607-4.443,16.34-11.383,21.825" fill="#299698"/></g></g></g><g opacity="0.3"><g><path d="M48.238,441.162c0,0,19.834,8.052,19.607,30.328c-0.227,22.275-16.06,22.628-16.06,22.628      s25.666,6.99,30.789-17.261C87.697,452.606,65.091,441.013,48.238,441.162z" fill="#3F456B"/></g></g><g opacity="0.3"><g><path d="M52.202,458.971c0.569,7.561-7.219,14.312-17.395,15.078c-10.177,0.766-18.888-4.743-19.457-12.304      c-0.57-7.561,7.219-14.312,17.395-15.077C42.922,445.901,51.633,451.41,52.202,458.971z" fill="#FFFFFF"/></g></g><g><g><g><path d="M21.657,498.812c-1.054,0-2.118-0.333-3.022-1.02c-9.001-6.842-14.104-16.664-13.999-26.945       c0.198-19.471,18.822-35.151,41.619-35.151c0.169,0,0.336,0.001,0.506,0.003c10.985,0.111,21.316,3.808,29.09,10.407       c8.038,6.824,12.41,15.913,12.311,25.591c-0.1,9.88-4.817,19.006-13.282,25.697c-2.167,1.713-5.311,1.345-7.023-0.822       c-1.712-2.167-1.345-5.311,0.822-7.023c6.046-4.78,9.415-11.156,9.484-17.954c0.067-6.654-3.052-13-8.784-17.866       c-5.997-5.091-14.065-7.943-22.719-8.031c-0.136-0.001-0.272-0.002-0.408-0.002c-17.33,0-31.474,11.261-31.617,25.253       c-0.072,7.09,3.591,13.972,10.051,18.883c2.198,1.671,2.626,4.808,0.955,7.006C24.658,498.131,23.166,498.812,21.657,498.812z" fill="#3F456B"/></g></g></g></g><g><g><g><g><path d="M439.661,493.812c-7.465-5.675-12.117-13.859-12.025-22.914c0.172-16.885,16.771-30.406,37.075-30.2       c20.304,0.207,36.624,14.063,36.452,30.948c-0.088,8.607-4.443,16.34-11.383,21.825" fill="#299698"/></g></g></g><g opacity="0.3"><g><path d="M466.238,441.162c0,0,19.834,8.052,19.607,30.328c-0.227,22.275-16.06,22.628-16.06,22.628      s25.666,6.99,30.789-17.261C505.697,452.606,483.091,441.013,466.238,441.162z" fill="#3F456B"/></g></g><g opacity="0.3"><g><path d="M470.202,458.971c0.569,7.561-7.219,14.312-17.395,15.078c-10.177,0.766-18.888-4.743-19.457-12.304      c-0.57-7.561,7.219-14.312,17.395-15.077C460.922,445.901,469.633,451.41,470.202,458.971z" fill="#FFFFFF"/></g></g><g><g><g><path d="M439.657,498.812c-1.054,0-2.118-0.333-3.022-1.02c-9.001-6.842-14.104-16.664-13.999-26.945       c0.198-19.471,18.822-35.151,41.619-35.151c0.169,0,0.336,0.001,0.506,0.003c10.985,0.111,21.316,3.808,29.09,10.407       c8.038,6.824,12.41,15.913,12.311,25.591c-0.1,9.88-4.817,19.006-13.282,25.697c-2.167,1.713-5.311,1.345-7.023-0.822       c-1.712-2.167-1.345-5.311,0.822-7.023c6.046-4.78,9.415-11.156,9.484-17.954c0.067-6.654-3.052-13-8.784-17.866       c-5.997-5.091-14.065-7.943-22.719-8.031c-17.485-0.138-31.881,11.149-32.024,25.251c-0.072,7.09,3.591,13.972,10.051,18.883       c2.198,1.671,2.626,4.808,0.955,7.006C442.658,498.131,441.166,498.812,439.657,498.812z" fill="#3F456B"/></g></g></g></g><g><g><g><g><path d="M335.661,493.812c-7.465-5.675-12.117-13.859-12.025-22.914c0.172-16.885,16.771-30.406,37.075-30.2       c20.304,0.207,36.624,14.063,36.452,30.948c-0.088,8.607-4.443,16.34-11.383,21.825" fill="#299698"/></g></g></g><g opacity="0.3"><g><path d="M362.238,441.162c0,0,19.834,8.052,19.607,30.328c-0.227,22.275-16.06,22.628-16.06,22.628      s25.666,6.99,30.789-17.261C401.697,452.606,379.091,441.013,362.238,441.162z" fill="#3F456B"/></g></g><g opacity="0.3"><g><path d="M366.202,458.971c0.569,7.561-7.219,14.312-17.395,15.078c-10.177,0.766-18.888-4.743-19.457-12.304      c-0.57-7.561,7.219-14.312,17.395-15.077C356.922,445.901,365.633,451.41,366.202,458.971z" fill="#FFFFFF"/></g></g><g><g><g><path d="M335.657,498.812c-1.054,0-2.118-0.333-3.022-1.02c-9.001-6.842-14.104-16.664-13.999-26.945       c0.198-19.471,18.822-35.151,41.619-35.151c0.169,0,0.336,0.001,0.506,0.003c10.985,0.111,21.316,3.808,29.09,10.407       c8.038,6.824,12.41,15.913,12.311,25.591c-0.1,9.88-4.817,19.006-13.282,25.697c-2.167,1.713-5.311,1.345-7.023-0.822       c-1.712-2.167-1.345-5.311,0.822-7.023c6.046-4.78,9.415-11.156,9.484-17.954c0.067-6.654-3.052-13-8.784-17.866       c-5.997-5.091-14.065-7.943-22.719-8.031c-0.136-0.001-0.272-0.002-0.408-0.002c-17.33,0-31.474,11.261-31.617,25.253       c-0.072,7.09,3.591,13.972,10.051,18.883c2.198,1.671,2.626,4.808,0.955,7.006       C338.658,498.131,337.166,498.812,335.657,498.812z" fill="#3F456B"/></g></g></g></g><g><g><g><g><path d="M156.201,493.682c-8.248-6.269-13.387-15.311-13.285-25.315c0.19-18.654,18.528-33.592,40.959-33.364       c22.431,0.228,40.461,15.536,40.271,34.19c-0.097,9.509-4.909,18.052-12.575,24.112" fill="#299698"/></g></g></g><g opacity="0.3"><g><path d="M185.563,435.515c0,0,21.912,8.895,21.661,33.506c-0.25,24.609-17.743,24.999-17.743,24.999      s28.355,7.722,34.015-19.07S204.182,435.351,185.563,435.515z" fill="#3F456B"/></g></g><g opacity="0.3"><g><path d="M189.942,455.19c0.629,8.353-7.975,15.811-19.218,16.658c-11.243,0.846-20.867-5.24-21.495-13.593      c-0.629-8.353,7.975-15.811,19.218-16.657C179.69,440.751,189.314,446.837,189.942,455.19z" fill="#FFFFFF"/></g></g><g><g><g><path d="M156.197,498.682c-1.055,0-2.118-0.333-3.022-1.02c-9.811-7.458-15.372-18.154-15.258-29.346       c0.217-21.381,20.861-38.598,46.01-38.313c25.152,0.256,45.438,17.859,45.22,39.241c-0.109,10.753-5.25,20.691-14.474,27.984       c-2.166,1.712-5.31,1.345-7.023-0.821c-1.712-2.167-1.345-5.311,0.821-7.023c6.807-5.381,10.599-12.569,10.677-20.241       c0.161-15.868-15.685-28.94-35.323-29.14C183.673,440,183.52,440,183.37,440c-19.433,0-35.293,12.672-35.454,28.417       c-0.081,8,4.042,15.757,11.311,21.284c2.198,1.671,2.625,4.808,0.955,7.006C159.197,498.001,157.706,498.682,156.197,498.682z" fill="#3F456B"/></g></g></g></g><g><g><g><g><path d="M295.236,494.446c-5.733-4.358-9.306-10.643-9.235-17.598c0.132-12.968,12.88-23.352,28.473-23.193       c15.593,0.159,28.127,10.8,27.995,23.768c-0.067,6.61-3.413,12.549-8.742,16.762" fill="#299698"/></g></g></g><g opacity="0.3"><g><path d="M315.647,454.011c0,0,15.232,6.184,15.058,23.292c-0.174,17.107-12.334,17.379-12.334,17.379      s19.711,5.368,23.646-13.257C345.952,462.801,328.591,453.897,315.647,454.011z" fill="#3F456B"/></g></g><g opacity="0.3"><g><path d="M318.692,467.689c0.437,5.807-5.544,10.991-13.36,11.58c-7.816,0.588-14.506-3.643-14.943-9.449      c-0.438-5.807,5.544-10.991,13.36-11.579C311.565,457.651,318.255,461.882,318.692,467.689z" fill="#FFFFFF"/></g></g><g><g><g><path d="M295.232,499.447c-1.055,0-2.117-0.333-3.022-1.02c-7.208-5.479-11.293-13.362-11.209-21.629       c0.079-7.784,3.73-15.009,10.28-20.345c6.281-5.117,14.54-7.878,23.243-7.797c18.325,0.186,33.104,13.114,32.944,28.818       c-0.08,7.83-3.958,15.351-10.641,20.633c-2.167,1.713-5.311,1.344-7.023-0.822c-1.712-2.167-1.345-5.311,0.822-7.023       c4.363-3.449,6.793-8.027,6.843-12.89c0.104-10.19-10.235-18.587-23.047-18.718c-6.378-0.075-12.352,1.906-16.826,5.551       c-4.206,3.426-6.548,7.934-6.597,12.693c-0.051,5.075,2.595,10.02,7.262,13.567c2.198,1.671,2.626,4.808,0.955,7.006       C298.233,498.766,296.742,499.447,295.232,499.447z" fill="#3F456B"/></g></g></g></g><g><g><path d="M249.247,238.008c-78.297,1.229-166.289,30.217-208.878,100.1c-10.653,17.48-17.845,36.888-21.809,56.946     c-5.324,26.942-2.088,58.585,17.273,79.17c11.193,11.901,26.549,18.211,42.064,20.208c31.171,4.012,60.8-12.045,83.397-32.155     C189.666,437.027,217.75,424,256,424c35.877,0,68.131,11.407,95.093,35.017c24.317,21.294,50.283,39.791,84.276,35.415     c15.515-1.997,30.871-8.307,42.064-20.208c19.361-20.585,22.597-52.228,17.273-79.171C473.06,285.523,373,238,253.322,237.969     C251.967,237.969,250.608,237.987,249.247,238.008z" fill="#DAE1EA"/></g></g><g opacity="0.3"><g><g><path d="M17,441c0,0-20-89,82-158s224-45,279-24s153,113,114,199c0,0-88-69-239-69S17,441,17,441z" fill="#C3ECFC"/></g></g><g><g><g><path d="M415.215,360.458c-2.92,13.097-15.791,21.207-28.885,18.448c-0.095-0.018-0.154-0.215-0.25-0.236       l-96.694-21.558c-0.288-0.064-0.613,0.041-0.899-0.032c-14.121-3.626-22.928-17.751-19.732-32.086       c2.931-13.145,14.933-21.873,27.952-21.14c-0.029-1.577,0.123-3.164,0.482-4.775c2.445-10.967,13.314-17.864,24.282-15.419       c6.188,1.379,11.08,5.446,13.732,10.695c8.436-12.821,24.193-19.751,40.061-16.214c20.504,4.571,33.419,24.897,28.847,45.401       c-0.717,3.215-1.82,6.241-3.252,9.046C411.554,337.094,417.829,348.732,415.215,360.458z" fill="#EFF5F9"/></g></g><g><g><path d="M326.405,293.17c-0.984,4.413-5.359,7.193-9.772,6.209c-4.413-0.984-7.193-5.358-6.209-9.772       c0.984-4.413,5.359-7.193,9.772-6.209C324.609,284.382,327.389,288.757,326.405,293.17z" fill="#FFFFFF"/></g></g><g><g><path d="M373.541,294.804c-1.603,7.19-8.731,11.719-15.922,10.116c-7.19-1.603-11.72-8.731-10.117-15.921       c1.603-7.19,8.732-11.72,15.922-10.117C370.614,280.486,375.144,287.614,373.541,294.804z" fill="#FFFFFF"/></g></g><g><g><path d="M296.176,345.787c-32.283-7.197-22.489-33.375-22.489-33.375       c-16.884,39.415,17.072,45.006,17.072,45.006s85.11,18.975,95.608,21.316c10.499,2.341,22.398-1.608,27.888-14.59       c5.49-12.984-5.959-27.68-5.959-27.68c1.058,2.604,8.065,36.004-23.516,28.963l-79.037-17.621L296.176,345.787z" fill="#CFDBE2"/></g></g><g><g><path d="M374.983,374.251l-0.001,0.002l-0.26-0.058C374.807,374.214,374.896,374.234,374.983,374.251z" fill="#4D4D4D"/></g></g><g><g><path d="M391.339,384.497c-2,0-4.025-0.205-6.055-0.633c-0.413-0.08-97.619-21.764-98.048-21.874       c-16.897-4.339-27.159-21.052-23.369-38.051c3.076-13.797,14.564-23.689,28.244-24.971c0.059-0.324,0.125-0.646,0.196-0.968       c1.473-6.608,5.431-12.245,11.145-15.874c5.713-3.628,12.498-4.814,19.105-3.341c4.977,1.11,9.417,3.652,12.84,7.255       c10.273-11.051,25.941-16.125,40.954-12.777c23.161,5.164,37.803,28.208,32.64,51.369c-0.435,1.947-1,3.858-1.694,5.717       c10.235,6.573,15.525,18.961,12.797,31.198v0C417.062,375.146,404.825,384.497,391.339,384.497z M387.384,374.087       c10.418,2.132,20.663-4.457,22.95-14.717c0,0,0,0,0,0c2.051-9.197-2.75-18.522-11.416-22.173       c-1.281-0.54-2.279-1.588-2.756-2.894s-0.388-2.75,0.244-3.988c1.263-2.473,2.213-5.117,2.825-7.859       c3.964-17.78-7.276-35.469-25.055-39.433c-13.316-2.972-27.301,2.69-34.797,14.083c-0.98,1.491-2.681,2.358-4.462,2.244       c-1.781-0.102-3.373-1.145-4.178-2.737c-2.083-4.124-5.858-7.064-10.357-8.067c-4.002-0.892-8.109-0.174-11.569,2.022       c-3.458,2.196-5.854,5.609-6.746,9.609c-0.264,1.183-0.387,2.396-0.365,3.605c0.025,1.391-0.53,2.729-1.532,3.692       c-1.001,0.964-2.362,1.47-3.749,1.39c-10.859-0.619-20.43,6.644-22.794,17.251c-2.604,11.678,4.434,23.16,16.026,26.171       C292.412,352.91,386.717,373.94,387.384,374.087L387.384,374.087z" fill="#3F456B"/></g></g><g><g><path d="M316.147,314.09c-0.87,0-1.751-0.228-2.553-0.705c-6.265-3.729-15.912-4.598-19.1-4.618       c-2.762-0.018-4.986-2.27-4.969-5.031c0.018-2.751,2.253-4.969,5-4.969c0.011,0,0.021,0,0.032,0       c0.579,0.004,14.295,0.157,24.153,6.025c2.373,1.413,3.151,4.481,1.739,6.854C319.513,313.218,317.852,314.09,316.147,314.09z" fill="#3F456B"/></g></g></g><g><g><g><g><path d="M251.737,357.65c-6.024-5.127-9.561-12.236-9.061-19.859c0.931-14.214,15.54-24.829,32.632-23.71        c17.091,1.119,30.192,13.549,29.261,27.762c-0.474,7.245-4.503,13.555-10.603,17.853" fill="#299698"/></g></g></g><g opacity="0.3"><g><path d="M276.572,314.543c0,0,16.33,7.705,15.103,26.456c-1.228,18.751-14.58,18.311-14.58,18.311       s21.292,7.081,26.735-13.105C309.274,326.018,290.774,315.202,276.572,314.543z" fill="#3F456B"/></g></g><g opacity="0.3"><g><path d="M279.082,329.727c0.128,6.395-6.746,11.718-15.353,11.89c-8.607,0.171-15.688-4.874-15.815-11.268       c-0.128-6.395,6.746-11.718,15.353-11.889C271.874,318.287,278.955,323.333,279.082,329.727z" fill="#FFFFFF"/></g></g><g><g><g><path d="M293.971,364.696c-1.571,0-3.118-0.739-4.092-2.121c-1.59-2.258-1.05-5.377,1.208-6.967        c5.118-3.606,8.134-8.61,8.493-14.092c0.351-5.366-1.895-10.635-6.325-14.838c-4.681-4.441-11.171-7.144-18.274-7.608        c-7.106-0.468-13.89,1.368-19.11,5.161c-4.94,3.589-7.854,8.521-8.206,13.886c-0.375,5.719,2.291,11.451,7.313,15.725        c2.103,1.79,2.356,4.946,0.567,7.048c-1.791,2.103-4.946,2.355-7.048,0.567c-7.453-6.344-11.393-15.089-10.81-23.994        c0.549-8.383,4.919-15.956,12.306-21.323c7.107-5.164,16.214-7.67,25.642-7.05c9.429,0.617,18.131,4.287,24.503,10.333        c6.624,6.284,9.969,14.362,9.42,22.746c-0.552,8.433-5.185,16.311-12.712,21.613        C295.971,364.4,294.966,364.696,293.971,364.696z" fill="#3F456B"/></g></g></g></g><g><g><g><g><path d="M163.093,369.848c-7.188-3.301-12.521-9.184-14.109-16.656c-2.96-13.933,8.222-28.114,24.977-31.673        c16.754-3.559,32.735,4.851,35.695,18.784c1.509,7.102-0.657,14.269-5.363,20.059" fill="#299698"/></g></g></g><g opacity="0.3"><g><path d="M175.304,321.62c0,0,17.808,2.986,21.713,21.368c3.905,18.381-9.066,21.58-9.066,21.58       s22.414,1.04,22.178-19.866C209.892,323.795,189.152,318.402,175.304,321.62z" fill="#3F456B"/></g></g><g opacity="0.3"><g><path d="M181.839,335.554c1.857,6.12-3.315,13.109-11.552,15.608c-8.238,2.5-16.421-0.436-18.278-6.556       c-1.858-6.12,3.315-13.109,11.552-15.608C171.798,326.498,179.982,329.434,181.839,335.554z" fill="#FFFFFF"/></g></g><g><g><g><path d="M163.09,374.849c-0.698,0-1.407-0.146-2.083-0.457c-8.894-4.084-15.059-11.433-16.913-20.161        c-1.746-8.218,0.406-16.692,6.06-23.862c5.439-6.897,13.525-11.777,22.768-13.741c19.426-4.123,38.097,6.028,41.625,22.636        c1.756,8.267-0.566,17.105-6.373,24.251c-1.741,2.143-4.891,2.47-7.033,0.728c-2.143-1.741-2.469-4.89-0.728-7.033        c3.948-4.859,5.494-10.495,4.353-15.868c-2.382-11.214-15.736-17.912-29.765-14.932c-6.963,1.479-12.999,5.084-16.994,10.151        c-3.781,4.795-5.248,10.332-4.131,15.592c1.191,5.606,5.312,10.399,11.304,13.151c2.509,1.152,3.61,4.121,2.458,6.63        C166.795,373.768,164.983,374.849,163.09,374.849z" fill="#3F456B"/></g></g></g></g><g><g><g><g><path d="M311.467,368.889c-5.371-5.807-8.036-13.287-6.634-20.796c2.616-14.002,18.385-22.803,35.222-19.658        c16.836,3.145,28.365,17.046,25.749,31.047c-1.333,7.137-6.084,12.923-12.652,16.464" fill="#299698"/></g></g></g><g opacity="0.3"><g><path d="M341.255,329.044c0,0,15.297,9.593,11.847,28.066c-3.45,18.472-16.656,16.446-16.656,16.446       s20.297,9.565,28.105-9.83C372.359,344.33,355.277,331.389,341.255,329.044z" fill="#3F456B"/></g></g><g opacity="0.3"><g><path d="M341.94,344.419c-0.634,6.364-8.093,10.832-16.659,9.978c-8.566-0.854-14.996-6.706-14.361-13.07       c0.634-6.364,8.093-10.832,16.659-9.978C336.145,332.203,342.575,338.055,341.94,344.419z" fill="#FFFFFF"/></g></g><g><g><g><path d="M353.156,380.947c-1.779,0-3.502-0.952-4.405-2.628c-1.311-2.431-0.403-5.464,2.028-6.774        c5.511-2.971,9.102-7.582,10.11-12.981c2.105-11.269-7.653-22.58-21.752-25.214c-14.097-2.634-27.284,4.392-29.389,15.661        c-1.053,5.634,0.912,11.642,5.39,16.484c1.875,2.027,1.751,5.19-0.276,7.065c-2.026,1.875-5.19,1.751-7.065-0.276        c-6.645-7.186-9.517-16.338-7.878-25.109c3.118-16.69,21.536-27.301,41.055-23.655c19.52,3.646,32.864,20.191,29.747,36.88        c-1.552,8.308-7.09,15.578-15.194,19.947C354.77,380.754,353.958,380.947,353.156,380.947z" fill="#3F456B"/></g></g></g></g><g><g><g><g><path d="M116.076,391.078c-7.449-2.661-13.275-8.056-15.509-15.361c-4.165-13.622,5.737-28.724,22.116-33.732        c16.379-5.008,33.034,1.975,37.199,15.596c2.123,6.944,0.591,14.271-3.591,20.451" fill="#299698"/></g></g></g><g opacity="0.3"><g><path d="M124.03,341.968c0,0,18.001,1.42,23.495,19.391c5.494,17.97-7.148,22.289-7.148,22.289       s22.419-0.92,20.359-21.726C158.676,341.115,137.544,337.554,124.03,341.968z" fill="#3F456B"/></g></g><g opacity="0.3"><g><path d="M131.756,355.279c2.385,5.935-2.158,13.348-10.146,16.557c-7.988,3.209-16.397,0.999-18.781-4.935       c-2.385-5.935,2.158-13.348,10.146-16.557C120.963,347.134,129.372,349.344,131.756,355.279z" fill="#FFFFFF"/></g></g><g><g><g><path d="M116.076,396.079c-0.559,0-1.126-0.094-1.682-0.293c-9.217-3.292-16-10.074-18.609-18.607        c-4.964-16.236,6.446-34.169,25.436-39.976c9.035-2.763,18.474-2.415,26.575,0.982c8.42,3.531,14.41,9.899,16.867,17.934        c2.471,8.082,0.929,17.09-4.232,24.715c-1.547,2.287-4.655,2.887-6.943,1.339c-2.287-1.548-2.886-4.657-1.339-6.943        c3.509-5.185,4.557-10.934,2.951-16.187c-1.572-5.142-5.54-9.274-11.171-11.635c-5.951-2.495-12.977-2.723-19.785-0.642        c-13.717,4.194-22.149,16.526-18.797,27.489c1.676,5.48,6.199,9.896,12.409,12.114c2.601,0.929,3.956,3.79,3.027,6.39        C120.055,394.804,118.129,396.079,116.076,396.079z" fill="#3F456B"/></g></g></g></g><g><g><g><g><path d="M438.744,414.229c-2.695-7.437-2.248-15.365,1.96-21.74c7.846-11.888,25.795-13.877,40.091-4.443        c14.295,9.435,19.523,26.721,11.677,38.609c-4,6.06-10.624,9.547-18.051,10.261" fill="#299698"/></g></g></g><g opacity="0.3"><g><path d="M481.665,389.073c0,0,10.373,14.78,0.022,30.463c-10.351,15.683-21.734,8.69-21.734,8.69       s14.992,16.695,29.717,1.852C504.395,415.235,493.677,396.678,481.665,389.073z" fill="#3F456B"/></g></g><g opacity="0.3"><g><path d="M476.328,403.508c-3.055,5.619-11.663,6.841-19.226,2.728c-7.563-4.113-11.216-12.002-8.161-17.621       c3.055-5.619,11.663-6.841,19.226-2.728C475.73,390,479.383,397.89,476.328,403.508z" fill="#FFFFFF"/></g></g><g><g><g><path d="M474.415,441.916c-2.546,0-4.723-1.936-4.971-4.522c-0.264-2.749,1.75-5.191,4.499-5.455        c6.232-0.599,11.33-3.453,14.356-8.038c2.961-4.487,3.619-10.178,1.852-16.023c-1.868-6.176-6.168-11.737-12.109-15.659        c-5.941-3.921-12.748-5.69-19.159-4.978c-6.069,0.672-11.043,3.515-14.004,8.002c-3.157,4.784-3.68,11.083-1.433,17.283        c0.941,2.597-0.401,5.464-2.997,6.404c-2.597,0.941-5.464-0.401-6.404-2.997c-3.334-9.202-2.427-18.75,2.488-26.198        c4.627-7.012,12.174-11.427,21.249-12.433c8.732-0.967,17.882,1.367,25.769,6.571s13.63,12.702,16.173,21.11        c2.643,8.74,1.55,17.415-3.078,24.426c-4.655,7.053-12.582,11.603-21.746,12.483        C474.736,441.908,474.574,441.916,474.415,441.916z" fill="#3F456B"/></g></g></g></g><g><g><g><g><path d="M383.632,387.258c-5.404-7.664-7.368-16.87-4.546-25.475c5.261-16.046,25.168-23.925,44.462-17.598        c19.294,6.327,30.67,24.463,25.408,40.509c-2.682,8.179-9.169,14.236-17.441,17.371" fill="#299698"/></g></g></g><g opacity="0.3"><g><path d="M424.864,345.089c0,0,16.477,13.664,9.536,34.832c-6.941,21.168-22.143,16.724-22.143,16.724       s22.358,14.412,34.564-7.161C459.027,367.912,440.976,350.035,424.864,345.089z" fill="#3F456B"/></g></g><g opacity="0.3"><g><path d="M423.267,363.264c-1.74,7.38-11.203,11.465-21.136,9.123c-9.933-2.342-16.575-10.224-14.834-17.604       c1.739-7.38,11.203-11.465,21.135-9.122C418.365,348.002,425.007,355.884,423.267,363.264z" fill="#FFFFFF"/></g></g><g><g><g><path d="M431.517,407.066c-2.018,0-3.919-1.23-4.676-3.229c-0.979-2.582,0.321-5.469,2.903-6.447        c7.208-2.732,12.343-7.793,14.461-14.253c2.074-6.324,1.015-13.314-2.98-19.685c-4.18-6.664-11.011-11.819-19.235-14.516        c-16.64-5.457-33.758,1.004-38.153,14.405c-2.209,6.737-0.794,14.404,3.882,21.036c1.591,2.257,1.052,5.376-1.205,6.968        c-2.256,1.591-5.376,1.052-6.968-1.205c-6.515-9.24-8.415-20.144-5.211-29.914c6.112-18.64,28.888-27.968,50.771-20.792        c10.439,3.423,19.172,10.065,24.59,18.704c5.603,8.932,7.027,18.917,4.011,28.114c-3.078,9.388-10.33,16.664-20.419,20.488        C432.704,406.961,432.105,407.066,431.517,407.066z" fill="#3F456B"/></g></g></g></g><g><g><g><g><path d="M45.924,431.264c-9.336-0.876-17.608-5.369-22.312-13.107c-8.772-14.429-1.817-34.677,15.533-45.225        c17.35-10.547,38.527-7.4,47.298,7.029c4.471,7.355,4.856,16.222,1.861,24.545" fill="#299698"/></g></g></g><g opacity="0.3"><g><path d="M40.686,372.52c0,0,21.094-3.637,32.667,15.399c11.572,19.035-1.688,27.697-1.688,27.697       s25.486-7.619,17.029-30.918C80.238,361.399,54.919,363.493,40.686,372.52z" fill="#3F456B"/></g></g><g opacity="0.3"><g><path d="M53.458,385.549c4.476,6.12,1.428,15.966-6.809,21.99c-8.237,6.025-18.544,5.948-23.02-0.173       c-4.477-6.12-1.428-15.966,6.809-21.99C38.675,379.352,48.982,379.429,53.458,385.549z" fill="#FFFFFF"/></g></g><g><g><g><path d="M45.93,436.265c-0.156,0-0.314-0.007-0.473-0.022c-11.257-1.057-20.776-6.702-26.118-15.488        c-5.028-8.271-5.911-18.317-2.486-28.289c3.312-9.644,10.307-18.098,19.694-23.805c19.677-11.962,43.978-8.059,54.168,8.704        c5.132,8.442,5.946,18.683,2.292,28.835c-0.936,2.598-3.8,3.946-6.398,3.011c-2.598-0.935-3.946-3.799-3.011-6.398        c2.61-7.252,2.103-14.445-1.428-20.254c-7.326-12.05-25.461-14.452-40.429-5.354c-7.396,4.496-12.875,11.069-15.431,18.509        c-2.443,7.111-1.884,14.16,1.573,19.846c3.683,6.059,10.429,9.968,18.507,10.727c2.75,0.258,4.769,2.696,4.511,5.445        C50.659,434.322,48.48,436.265,45.93,436.265z" fill="#3F456B"/></g></g></g></g><g><g><g><path d="M19.789,447.5C19.789,447.5,91,352,257,352s237.301,95.5,237.301,95.5S454,544,352,459       c0,0-87.413-79.446-190.706,3.277C161.294,462.277,66.577,545,19.789,447.5z" fill="#EFCEB9"/></g></g></g><g><g><g><path d="M494.305,452.5c-1.524,0-3.029-0.694-4.01-2.009c-0.172-0.229-17.977-23.657-55.473-46.766       C400.235,382.409,341.31,357,257,357c-84.574,0-143.6,25.559-178.223,47.001c-37.313,23.107-54.808,46.257-54.98,46.488       c-1.65,2.214-4.783,2.67-6.997,1.02c-2.214-1.651-2.67-4.783-1.02-6.997c0.75-1.006,18.818-24.914,57.731-49.012       C109.239,373.374,170.074,347,257,347c86.926,0,147.785,26.374,183.532,48.499c38.935,24.097,57.024,48.004,57.775,49.01       c1.652,2.212,1.198,5.346-1.015,6.998C496.395,452.177,495.346,452.5,494.305,452.5z" fill="#3F456B"/></g></g></g></g><g opacity="0.5"><g><path d="M252.859,71.488c-0.065,0-0.13-0.001-0.196-0.004c-2.413-0.095-4.418-1.883-4.758-4.274     c-2.973-20.913-26.231-17.924-27.22-17.787c-2.735,0.381-5.26-1.529-5.641-4.264s1.528-5.261,4.264-5.641     c9.467-1.316,26.294,0.604,34.37,14.109c5.799-7.489,16.203-14.334,33.056-13.451c2.757,0.145,4.875,2.498,4.731,5.255     s-2.486,4.879-5.255,4.731c-10.166-0.535-18.008,2.181-23.312,8.068c-4.035,4.478-5.143,9.28-5.154,9.328     C257.231,69.853,255.192,71.488,252.859,71.488z" fill="#3F456B"/></g></g><g opacity="0.2"><g><path d="M496,407.337c0.983,14.094-13.907,32.544-23.906,40.338C439.021,473.452,390.835,459.114,362,434     c-48.58-42.312-123.761-49.341-180.322-19.319C150.363,431.303,124.562,459.788,87,461c-62,2-70-53.667-70-53.667     S8,494.5,85.5,494.5c0,0,36.5,0.5,61.5-21S201,424,256,424s95,35,95,35s32,36.079,76,36.079     C470.999,495.079,499.999,464.668,496,407.337z" fill="#3F456B"/></g></g><g opacity="0.5"><g><path d="M397.974,267.627c0,0,58,28.73,64,80.802c0,0,2,29.627-28.999,32.321     c-21.416,1.861-38.068-10.149-55.145-21.049c-18.053-11.524-38.73-19.715-59.367-25.203     c-64.722-17.211-136.333-5.191-192.346,31.458C111.827,375.306,97.551,382.265,80,380.75c-31-2.693-29-32.321-29-32.321     c6-52.072,64-80.802,64-80.802S167,238,253,238S397.974,267.627,397.974,267.627z" fill="#F7F7F7"/></g></g><g opacity="0.7"><g><ellipse cx="117.398" cy="325.981" fill="#F7F7F7" rx="41.553" ry="21" transform="matrix(0.7795 -0.6264 0.6264 0.7795 -178.3023 145.4069)"/></g></g><g opacity="0.7"><g><path d="M40.369,345c0,0,65.631-90.966,216.631-90.966s209.588,82.34,209.588,82.34     s-57.944-98.405-213.266-98.405S40.369,345,40.369,345" fill="#F7F7F7"/></g></g><g><g><g><g><path d="M217.263,494.237c-6.991-5.314-11.348-12.979-11.261-21.459c0.161-15.813,15.706-28.476,34.721-28.282       c19.015,0.193,34.299,13.17,34.138,28.983c-0.082,8.061-4.161,15.302-10.66,20.44" fill="#299698"/></g></g></g><g opacity="0.3"><g><path d="M242.152,444.93c0,0,18.574,7.54,18.362,28.402c-0.212,20.861-15.041,21.192-15.041,21.192      s24.036,6.546,28.834-16.165C279.106,455.648,257.936,444.791,242.152,444.93z" fill="#3F456B"/></g></g><g opacity="0.3"><g><path d="M245.865,461.609c0.533,7.081-6.761,13.403-16.291,14.121c-9.531,0.717-17.689-4.442-18.221-11.523      c-0.534-7.081,6.761-13.403,16.291-14.12C237.174,449.369,245.332,454.528,245.865,461.609z" fill="#FFFFFF"/></g></g><g><g><g><path d="M217.259,499.238c-1.054,0-2.118-0.333-3.022-1.02c-8.51-6.469-13.334-15.76-13.235-25.491       c0.093-9.16,4.401-17.672,12.132-23.969c7.461-6.078,17.267-9.411,27.639-9.262c21.741,0.221,39.275,15.488,39.086,34.033       c-0.095,9.351-4.555,17.984-12.559,24.311c-2.167,1.713-5.312,1.344-7.023-0.822c-1.712-2.167-1.345-5.311,0.822-7.023       c5.586-4.416,8.697-10.299,8.761-16.568c0.132-13.031-12.962-23.768-29.189-23.933c-8.037-0.06-15.568,2.41-21.222,7.016       c-5.385,4.387-8.386,10.182-8.448,16.317c-0.066,6.539,3.319,12.891,9.288,17.428c2.198,1.671,2.626,4.808,0.955,7.006       C220.26,498.557,218.768,499.238,217.259,499.238z" fill="#3F456B"/></g></g></g></g></g><g id="Lines"><g><g><path d="M425.374,500.081c-32.055,0-56.718-19.038-77.575-37.302C322.202,440.364,291.316,429,256,429     c-34.902,0-62.231,11.069-91.382,37.012c-18.015,16.032-45.293,34.049-76.861,34.051c-3.452,0-6.95-0.215-10.498-0.672     c-12.778-1.645-30.969-6.751-45.068-21.741c-3.969-4.22-7.451-8.886-10.349-13.868c-14.814-25.469-15.908-56.827-3.163-90.684     c10.376-27.566,29.402-55.102,52.197-75.545c41.841-37.524,101.965-60.355,169.295-64.287c2.96-0.172,5.956-0.31,8.903-0.408h0     c13.195-0.442,26.445-0.149,39.38,0.874c73.388,5.799,135.312,35.142,174.366,82.625c11.6,14.104,32.135,42.999,39.338,78.058     c6.709,32.654-0.58,61.436-21.08,83.232c-14.102,14.993-32.293,20.101-45.071,21.745     C432.375,499.859,428.831,500.081,425.374,500.081z M256,419c37.812,0,70.914,12.198,98.387,36.255     c21.465,18.796,47.139,38.488,80.345,34.218c11.157-1.436,26.99-5.842,39.063-18.678c18.433-19.599,24.68-44.621,18.568-74.369     c-5.017-24.419-18.252-50.6-37.267-73.718c-37.313-45.366-96.774-73.425-167.43-79.008c-12.562-0.992-25.435-1.278-38.258-0.849     c0,0,0,0,0,0c-2.865,0.096-5.776,0.229-8.654,0.397c-65.08,3.8-123.039,25.729-163.201,61.748     c-21.32,19.121-39.831,45.896-49.515,71.624c-8.124,21.582-14.293,53.35,2.449,82.133c2.516,4.326,5.54,8.378,8.988,12.044     c12.07,12.833,27.903,17.239,39.06,18.675c17.806,2.29,46.042-1.214,79.435-30.932C189.113,430.826,218.43,419,256,419z      M249.241,237.854h0.01H249.241z" fill="#3F456B"/></g></g><g><g><path d="M496,500H17c-2.761,0-5-2.239-5-5s2.239-5,5-5h479c2.761,0,5,2.239,5,5S498.761,500,496,500z" fill="#3F456B"/></g></g></g></svg>