<?xml version="1.0" ?><svg viewBox="0 0 100 100" xmlns="http://www.w3.org/2000/svg"><path d="M82.90015,38.87451h.70435a2.22266,2.22266,0,1,0-.45215-4.3999,2.85147,2.85147,0,0,0-3.98437-.98743A38.27485,38.27485,0,0,0,66.2124,23.43579a16.61218,16.61218,0,0,0,.19482-2.50464A16.40431,16.40431,0,1,0,33.79376,23.433a38.05311,38.05311,0,0,0-20.9223,26.58014A4.80486,4.80486,0,0,0,10.626,52.13184a3.66628,3.66628,0,1,0-.94141,7.21H12.1203A37.91968,37.91968,0,1,0,82.90015,38.87451Zm-2.22144-5.11475a2.15632,2.15632,0,0,1,1.9668,1.2793l.13574.3042.3125-.11621a1.45478,1.45478,0,0,1,.51074-.08887,1.51367,1.51367,0,1,1,0,3.02734H77.626a1.2981,1.2981,0,1,1,.48145-2.50244l.38184.15234.09473-.3999A2.14577,2.14577,0,0,1,80.67871,33.75977ZM64.5285,15.00635h-.33514l-.00293-.03662c-.02954-.34845-.07184-.66095-.11847-.95264C64.23248,14.34247,64.39032,14.66882,64.5285,15.00635Zm-.87225,5.38379a16.17983,16.17983,0,0,0,.5752-4.73291l-.001-.0415H64.752a15.58456,15.58456,0,0,1,.92938,4.98145H63.74121l-.01074-.02295c-.0127-.02637-.02441-.05273-.03613-.0791l-.03516-.07764-.00586-.01318Zm.00293,1.05469.03516-.07764c.01172-.02637.02344-.05273.03613-.0791l.01074-.02295h1.9455a15.75316,15.75316,0,0,1-.90656,4.98145h-.54968l.001-.0415a16.17983,16.17983,0,0,0-.5752-4.73291l-.00293-.01416Zm.87994,5.41162q-.22018.54272-.47906,1.06622c.05188-.31171.09833-.65155.13037-1.0296l.00293-.03662ZM63.61426,15.6543a15.241,15.241,0,0,1-.3584,3.81152l-.02344.10693-.05078-.09668a33.9003,33.9003,0,0,0-2.36426-3.79688l-.0459-.06348H63.6123Zm-.6806,14.18445a15.5617,15.5617,0,0,1-1.00946,1.30774H60.417l.01074-.04834a8.73867,8.73867,0,0,0,.18945-2.24756,11.26275,11.26275,0,0,0-.2998-1.94531l-.01074-.04883h3.26758l-.00391.04346a11.47436,11.47436,0,0,1-.65527,2.938Zm-6.79327,3.58978a6.89612,6.89612,0,0,0-.02515-1.62726l-.00586-.04541h3.50391l-.0166.05225A10.8249,10.8249,0,0,1,58.42926,34.167q-.41006.26056-.83942.49725V32.59619Zm1.44946,38.22375a2.23757,2.23757,0,0,1,.416.10455l.31055.1123.13477-.30127a3.166,3.166,0,0,1,5.97363.55615l.09473.40186.38281-.15479a1.93828,1.93828,0,0,1,.73047-.14258,1.96582,1.96582,0,0,1,0,3.93164h-8.043ZM48.6543,34.82959l.01563-.05176a10.66976,10.66976,0,0,1,1.22754-2.55908l.03418-.05225.0332.05176a11.28678,11.28678,0,0,1,1.292,2.55859l.01758.05273Zm2.78516.60938.00684.03174c.00781.03564.01367.06934.01953.10205l.01367.07275-.01172.01416c-.27509.34277-.54089.7074-.70477.93829a15.99646,15.99646,0,0,1-1.68237-.00891c-.09131-.13361-.27905-.39636-.61188-.80829l-.01074-.0127.002-.0166c.00977-.082.02246-.17334.041-.2793l.00488-.0332Zm-1.47852-4.40234-.0332.04688-.0332-.04687c-.48047-.68359-1.05957-1.49365-1.61914-2.27734l-.417-.584c-.291-.40674-.59082-.82715-.89551-1.25537l-.04492-.06348h6.01855l-.04492.063c-.4082.57422-.80762,1.1333-1.18555,1.66162l-.02441.03369C51.04785,29.50146,50.44922,30.33887,49.96094,31.03662Zm-.0332-20.25732.0332.04688c.50391.71924,1.10645,1.5625,1.74512,2.45508.37793.52832.77734,1.08789,1.18555,1.66211l.04492.063H46.918l.04492-.063c.32227-.45312.63965-.89746.94531-1.32617l.36719-.51416c.57813-.80908,1.1377-1.5918,1.62012-2.27686ZM48.66992,7.08447l-.01562-.05176h2.62012l-.01758.05273a11.32787,11.32787,0,0,1-1.292,2.55859l-.03418.05176-.0332-.05225A10.61319,10.61319,0,0,1,48.66992,7.08447Zm8.07129,13.45068.04.062H50.52637l.04688-.06348c.63574-.86914,1.873-2.61133,3.0127-4.51562l.03125-.05273.03516.05029C54.957,17.86475,55.93848,19.30078,56.74121,20.53516Zm-2.625-4.91943h5.40918l-.01562.05127a23.29011,23.29011,0,0,1-2.05371,4.74316l-.0332.05811-.03516-.05615c-.82422-1.27686-1.87988-2.8252-3.22656-4.7334Zm-1.041.06055C51.8457,17.73486,50.48535,19.624,49.958,20.34082l-.03223.04395-.03223-.04443c-.6543-.895-1.92578-2.69141-3.0918-4.66406l-.03613-.06055h6.3457Zm-3.7959,4.85742.0459.06348H43.08594l.04-.06152c.79688-1.23535,1.77832-2.67578,3.08789-4.5332l.03516-.05078.03125.05322C47.33594,17.79053,48.49414,19.45313,49.2793,20.53369Zm-3.585-4.855c-1.33691,1.89795-2.38574,3.44189-3.20508,4.72021l-.03613.05664L42.4209,20.397A22.78351,22.78351,0,0,1,40.415,15.6665l-.01465-.05078h5.33887Zm-3.24121,5.728.03613.05664c.81934,1.27832,1.86816,2.82227,3.20508,4.72021l.04492.063H40.40039l.01465-.05078a22.78351,22.78351,0,0,1,2.00586-4.73047Zm.67285-.08008-.04-.06152H49.3252l-.0459.06348c-.78516,1.07959-1.94238,2.74121-2.999,4.5293l-.03125.05322-.03516-.05078C44.90625,24.00684,43.92578,22.56592,43.126,21.32666ZM46.80176,26.186c1.168-1.97656,2.43848-3.77051,3.0918-4.66357l.03223-.04395.03223.04346c.52734.7168,1.8877,2.606,3.11719,4.66406l.03613.06055h-6.3457Zm3.77148-4.85742-.04687-.06348h6.25488l-.04.062c-.80371,1.23682-1.78516,2.67334-3.08887,4.51953l-.03516.05029-.03125-.05273C52.44922,23.9458,51.21094,22.2002,50.57324,21.32861Zm3.58789,4.855c1.34668-1.9082,2.40234-3.45654,3.22656-4.7334l.03516-.05615.0332.05811a23.29011,23.29011,0,0,1,2.05371,4.74316l.01563.05127H54.11621Zm3.917-4.85889-.03223-.05957h4.92676l.0127.04834a.39559.39559,0,0,0,.01172.0459l.00488.01514-.00684.01416a33.24015,33.24015,0,0,1-2.835,4.64258l-.04785.06641-.02246-.07861A23.5667,23.5667,0,0,0,58.07813,21.32471Zm4.91895-.82178a.41463.41463,0,0,0-.01172.04541l-.0127.04883H58.0459l.03223-.05957a23.5152,23.5152,0,0,0,2.01172-4.69385l.02246-.07861.04785.06641a33.228,33.228,0,0,1,2.835,4.64209l.00684.01416Zm-3.14844-6.23682-.01562.0874-.05469-.07031a38.68637,38.68637,0,0,0-3.08984-3.49854l-.06836-.06836h3.16113l.00781.03076a7.93744,7.93744,0,0,1,.21777,2.23633A9.75021,9.75021,0,0,1,59.84863,14.26611Zm-.34961.67578.04883.06445h-5.377l.0332-.05957a17.73338,17.73338,0,0,0,1.72656-3.96729l.01758-.06738.0498.04834A38.10313,38.10313,0,0,1,59.499,14.94189Zm-4.13965-4.17578a17.29984,17.29984,0,0,1-1.76465,4.01367l-.03125.05518-.03613-.05176c-.36816-.51709-.73047-1.02393-1.07617-1.50879l-.248-.34766c-.54687-.7627-1.07422-1.501-1.5293-2.14746l-.04492-.063h4.74219Zm-6.17676.01318c-.4043.57227-.85937,1.2085-1.34863,1.89307l-.05469.07666c-.45508.63623-.94043,1.31494-1.43652,2.0127l-.03613.05225-.03125-.05566a16.51931,16.51931,0,0,1-1.67578-3.895c-.00488-.02051-.00684-.03857-.00977-.05713a.33319.33319,0,0,0-.00586-.042l-.00977-.04785h4.65332Zm-3.50293,4.168.03223.05908H40.2998l.04785-.064a38.22725,38.22725,0,0,1,3.56543-4.09082l.05176-.05127.01563.07129.01172.05908c.00391.02393.00879.04785.01465.07275A16.84592,16.84592,0,0,0,45.67969,14.94727Zm-2.56641-4.16309a38.94225,38.94225,0,0,0-2.958,3.38135l-.05664.07324-.01367-.09131a8.97716,8.97716,0,0,1-.11133-.98828,7.91462,7.91462,0,0,1,.2666-2.41309l.00781-.02979h2.93262Zm-1.30762,9.75391.03223.05908h-4.877l-.043-.16357.00684-.01367a32.678,32.678,0,0,1,2.81934-4.65674l.04883-.06787.02148.08057A22.94951,22.94951,0,0,0,41.80566,20.53809Zm-4.84473.72705h4.877l-.03223.05908a22.95269,22.95269,0,0,0-1.99121,4.7627l-.02148.08057-.04883-.06787a32.73225,32.73225,0,0,1-2.81934-4.65674l-.00684-.01318Zm2.64844,5.7085-.00391.01807a10.63254,10.63254,0,0,0-.24121,1.68311,8.55489,8.55489,0,0,0,.23438,2.42236l.01172.04932H38.08514c-.3313-.3858-.64771-.7829-.9389-1.19788a16.14,16.14,0,0,1-.71655-3.04822l-.00391-.04395h3.09375Zm.16895,4.78223.00879.02783a9.50113,9.50113,0,0,0,.68835,1.6156A15.68266,15.68266,0,0,1,38.631,31.75586Zm.46191-.63916a7.91462,7.91462,0,0,1-.2666-2.41309,9.03554,9.03554,0,0,1,.11133-.98877l.01367-.09131.05664.07324a38.9917,38.9917,0,0,0,2.958,3.38184l.06738.06787H40.248Zm.10742-4.19629-.04785-.064h5.41211l-.03223.05908a16.81828,16.81828,0,0,0-1.67285,3.94336c-.00586.02441-.00977.04834-.01465.07178-.00391.02-.00684.03955-.01172.06006l-.01562.07129-.05176-.05127A38.33019,38.33019,0,0,1,40.34766,26.92041ZM44.584,31.09863a.35338.35338,0,0,0,.00586-.04248c.00293-.01807.00488-.03613.00977-.05664A16.51277,16.51277,0,0,1,46.27539,27.104l.03125-.05566.03613.05225c.49609.69775.98145,1.37646,1.43652,2.0127l.05078.0708c.49023.68652.94727,1.3252,1.35254,1.89941l.04492.063H44.57422Zm6.08984-.01514c.45117-.64209.97461-1.37354,1.5293-2.14795l.06738-.09521c.40039-.56006.82422-1.15283,1.25684-1.76123l.03613-.05176.03125.05518a17.31065,17.31065,0,0,1,1.76465,4.01416l.01172.0498H50.62891ZM54.2041,26.916l-.0332-.05957h5.377l-.04883.06445a38.10632,38.10632,0,0,1-3.501,3.981l-.0498.04883-.01758-.06738A17.74088,17.74088,0,0,0,54.2041,26.916Zm2.416,4.23047.06836-.06836a38.73865,38.73865,0,0,0,3.08984-3.49854l.05469-.07031.01563.0874a9.73058,9.73058,0,0,1,.1582,1.28271,7.93744,7.93744,0,0,1-.21777,2.23633l-.00781.03076Zm3.62109.6377.00879-.02832h1.1297a15.68018,15.68018,0,0,1-1.75012,1.571A9.69221,9.69221,0,0,0,60.24121,31.78418Zm.53027-5.5376.0459-.06348a33.8613,33.8613,0,0,0,2.36426-3.79639l.05078-.09668.02344.10693a15.23934,15.23934,0,0,1,.3584,3.811l-.002.03857Zm1.12317-15.53027q.51306.59647.96692,1.24146a12.98109,12.98109,0,0,1,.70874,3.00513l.00391.04346H60.30664l.01074-.04883a11.28362,11.28362,0,0,0,.2998-1.94531,8.735,8.735,0,0,0-.18945-2.24756l-.01074-.04834Zm-.55444-.60986H60.25l-.00879-.02881a9.74926,9.74926,0,0,0-.58942-1.49982A15.79464,15.79464,0,0,1,61.34021,10.10645ZM58.35175,7.66388a9.67075,9.67075,0,0,1,1.24493,2.39032l.0166.05225H56.10938l.00586-.04541a6.44629,6.44629,0,0,0-.22461-2.97559L55.873,7.03271h1.39813C57.64172,7.22729,57.99933,7.44128,58.35175,7.66388ZM55.97705,6.42334h-.35693l-.01172-.022c-.02637-.05267-.05206-.09369-.07837-.142C55.67841,6.31549,55.83087,6.36292,55.97705,6.42334Zm-.74365.63477a5.60442,5.60442,0,0,1,.32617,2.53711l-.00781.084-.06055-.05859c-.92383-.89844-1.748-1.74658-2.44727-2.521l-.06055-.06689h2.24023ZM52.124,6.022a3.88821,3.88821,0,0,0,.02533-.62219,15.59235,15.59235,0,0,1,2.42267.51843l-.00171.00171a3.54669,3.54669,0,0,1,.31836.44238l.03809.061H52.44629l-.01172-.01416c-.1084-.12744-.21-.24756-.30176-.35742l-.01074-.01318Zm-.21387,1.01074H52.165l.01172.01367c.7832.896,1.749,1.90234,2.87012,2.99121l.07031.06885H50.38965l.041-.062a11.60433,11.60433,0,0,0,1.47168-2.98291Zm-3.44141-.95117c.32477-.40161.51208-.66241.606-.79919.30878-.01819.61487-.047.92816-.047.25171,0,.49689.026.74573.03778.17.22723.4444.588.71912.9295l.01172.01416-.01367.07275c-.00586.03271-.01172.06641-.01953.10205l-.00684.03174H48.50586l-.00488-.0332c-.01855-.10693-.03125-.19824-.041-.2793l-.002-.0166Zm-.43945.981a10.9712,10.9712,0,0,0,1.40332,2.98242l.04.06152h-4.793l.07129-.06885c1.126-1.0874,2.10059-2.09375,2.89648-2.99121l.0127-.01367h.36035Zm-2.83105-.69531A1.94033,1.94033,0,0,1,45.59,5.878a15.57779,15.57779,0,0,1,2.25317-.47614,3.17072,3.17072,0,0,0-.01312.47852l.001.01514-.00977.01172c-.13477.16211-.27832.33105-.42773.50244l-.01172.01367h-2.208Zm-.36328.66553h2.00293l-.06152.06689c-.6709.73389-1.44238,1.52441-2.293,2.35059l-.06543.0625L44.415,9.42285a5.38236,5.38236,0,0,1,.41016-2.36621Zm-.2666-.80725c-.03534.05774-.07.11121-.10645.17737l-.01172.02051h-.42133C44.20526,6.3504,44.38879,6.29211,44.56836,6.22546Zm-1.83368.80725h1.43524l-.02051.0542a6.29455,6.29455,0,0,0-.30664,2.9585l.002.02051-.043.04053H40.42383l.01855-.05322a12.63436,12.63436,0,0,1,1.358-2.47833C42.10681,7.386,42.41486,7.20068,42.73468,7.03271ZM40.45544,8.502a9.47291,9.47291,0,0,0-.66833,1.57666l-.00879.02783H38.66565A15.794,15.794,0,0,1,40.45544,8.502ZM36.42969,14.9624a19.8609,19.8609,0,0,1,.673-2.949,15.785,15.785,0,0,1,1.00854-1.29712h1.49915l-.01172.04932a8.55489,8.55489,0,0,0-.23437,2.42236,10.65573,10.65573,0,0,0,.24121,1.68311l.00391.01807-.08984.11719H36.42578Zm-.05176.69141.002-.03809H39.083l-.04492.063a33.80247,33.80247,0,0,0-2.291,3.72217l-.05176.09961-.02246-.11035A15.117,15.117,0,0,1,36.37793,15.65381Zm.29492,6.81836.02246-.11084.05176.1001a33.71133,33.71133,0,0,0,2.291,3.72217l.04492.063H36.37988l-.002-.03809A15.0702,15.0702,0,0,1,36.67285,22.47217Zm-.73138-8.4707c-.052.29388-.09973.61273-.13483.96875l-.00391.03613h-.32532C35.6178,14.66345,35.778,14.33179,35.94147,14.00146Zm-.6875,1.61426h.5058l-.002.042a15.99193,15.99193,0,0,0,.50781,4.686l.00293.01367-.00586.01318-.04687.10107c-.01562.03418-.03027.06836-.04687.10254l-.01074.02295H34.32452A15.5846,15.5846,0,0,1,35.254,15.61572Zm.90424,5.64941.01074.02295c.0166.03418.03125.06836.04688.10254l.04688.10107.00586.01318-.00293.01367a15.99193,15.99193,0,0,0-.50781,4.686l.002.042h-.53333a15.74156,15.74156,0,0,1-.90729-4.98145Zm-.2041,6.67108q-.26358-.52963-.4856-1.07977h.33423l.00391.03613C35.84442,27.27765,35.89673,27.62341,35.9541,27.93622ZM9.68457,58.63281A2.95679,2.95679,0,1,1,10.69141,52.894l.30957.11182.13477-.30078a4.08725,4.08725,0,0,1,7.71191.71826l.09473.40186.38281-.1543a2.55123,2.55123,0,0,1,.95605-.18555,2.57373,2.57373,0,1,1,0,5.14746ZM42.332,94.15106A37.01255,37.01255,0,0,1,12.83063,59.3418h7.45062a3.28272,3.28272,0,1,0-.84766-6.45361,4.76921,4.76921,0,0,0-5.76953-3.15857A37.34151,37.34151,0,0,1,33.92078,24.16248,16.33419,16.33419,0,0,0,42.332,35.429Zm0-59.53369c-.20581-.11542-.41071-.23157-.60986-.3551a12.12559,12.12559,0,0,1-1.27979-2.45319l-.01855-.05322h3.37793l.03711.0332.00391.02783a6.74671,6.74671,0,0,0,.024,1.68073L42.332,32.58545Zm2.59375,59.97272q-.95023-.12772-1.88477-.30115V33.83154l.916.54443a1.98863,1.98863,0,0,1,.96875,1.70215Zm-.36853-60.636a5.72111,5.72111,0,0,1-.14221-1.51416l.00293-.08984.06543.0625c.85254.82861,1.625,1.61914,2.293,2.3501l.06152.06689H45.31445A2.6758,2.6758,0,0,0,44.55725,33.9541Zm3.06287,60.90009q-1.00049-.06226-1.98535-.177V89.293h1.98535Zm0-6.2702H45.63477V78.91016h1.98535Zm0-10.38281H45.63477V58.10107h1.98535Zm0-20.80908H45.63477V47.71875h1.98535Zm0-10.38232H45.63477V36.73663a16.32462,16.32462,0,0,0,1.98535.42511ZM45.62451,36.00049a2.66711,2.66711,0,0,0-.07422-.56152h1.83154l.01172.01367c.16211.18652.30176.35107.42773.50293l.00977.01172-.001.01514a3.10078,3.10078,0,0,0,.01459.4884A15.54889,15.54889,0,0,1,45.62451,36.00049Zm2.396-1.1709h-.36035l-.0127-.01367c-.793-.89453-1.76758-1.90088-2.89648-2.99121l-.07129-.06885h4.793l-.04.06152A10.9712,10.9712,0,0,0,48.0293,34.7998Zm3.64941,60.06512c-.5531.02454-1.108.0423-1.667.0423-.5614,0-1.11865-.01672-1.67383-.04089V37.24084a14.79918,14.79918,0,0,0,3.34082.001Zm.23242-60.09393a11.6273,11.6273,0,0,0-1.47168-2.98291l-.041-.062h4.72754l-.07031.06885c-1.12012,1.08838-2.08594,2.09473-2.87012,2.99121l-.01172.01367h-.25488ZM54.19824,94.694q-.90344.1019-1.81934.15906V89.293h1.81934Zm0-6.11H52.37891V78.91016h1.81934Zm0-10.38281H52.37891V58.10107h1.81934Zm0-20.80908H52.37891V47.71875h1.81934Zm0-10.38232H52.37891V37.16425a16.31665,16.31665,0,0,0,1.81934-.38019Zm.03778-10.967a15.5392,15.5392,0,0,1-2.08722.43457,3.87,3.87,0,0,0-.02478-.637l-.002-.0166.01074-.01318c.0918-.10986.19336-.23.30176-.35742l.01172-.01416h1.894A3.06,3.06,0,0,0,54.236,36.04279Zm-1.25262-1.2132.06055-.06689c.7041-.77979,1.52832-1.62744,2.44727-2.52051l.06055-.05859.00781.084a5.83713,5.83713,0,0,1-.09607,1.60352,3.06541,3.06541,0,0,0-.86908.9585Zm3.89746,59.45972q-.97815.18365-1.97363.31439v-58.278a2.37245,2.37245,0,0,1,1.18848-2.05322l.78516-.45166Zm.709-.132V76.86914h8.043a2.6748,2.6748,0,0,0,0-5.34961,2.6477,2.6477,0,0,0-.624.07422,3.87554,3.87554,0,0,0-7.06641-.59619,2.93769,2.93769,0,0,0-.35254-.04236v-35.482a16.32058,16.32058,0,0,0,8.49518-11.309A37.5764,37.5764,0,0,1,78.61719,33.934a2.84205,2.84205,0,0,0-.61426.96246,1.98822,1.98822,0,0,0-.377-.03613,2.00708,2.00708,0,1,0,0,4.01416h4.4646A37.216,37.216,0,0,1,57.58984,94.15729Z"/></svg>