<?xml version="1.0" ?><svg viewBox="0 0 512 512" xmlns="http://www.w3.org/2000/svg" xmlns:xlink="http://www.w3.org/1999/xlink"><defs><linearGradient gradientUnits="userSpaceOnUse" id="linear-gradient" x1="256" x2="256" y1="1.1176" y2="105.6264"><stop offset="0.2134" stop-color="#ffa095"/><stop offset="1" stop-color="#ffe990"/></linearGradient><linearGradient gradientUnits="userSpaceOnUse" id="linear-gradient-2" x1="255.9937" x2="255.9937" y1="54.7647" y2="207.4704"><stop offset="0.2021" stop-color="#fff"/><stop offset="1" stop-color="#ff932e"/></linearGradient><linearGradient gradientUnits="userSpaceOnUse" id="linear-gradient-3" x1="256" x2="256" y1="255.9291" y2="105.3518"><stop offset="0" stop-color="#aaa234"/><stop offset="1" stop-color="#efb88f"/><stop offset="1" stop-color="#eab396"/></linearGradient><linearGradient gradientUnits="userSpaceOnUse" id="linear-gradient-4" x1="258.8037" x2="258.8037" y1="320" y2="476.7195"><stop offset="0" stop-color="#b69e7f"/><stop offset="0.3204" stop-color="#a39074"/><stop offset="0.6999" stop-color="#93846b"/><stop offset="1" stop-color="#8e8068"/></linearGradient><linearGradient gradientUnits="userSpaceOnUse" id="linear-gradient-5" x1="259.5" x2="259.5" y1="302" y2="488.0242"><stop offset="0.269" stop-color="#d6bca9"/><stop offset="1" stop-color="#948f74"/></linearGradient><linearGradient id="linear-gradient-6" x1="172.651" x2="172.651" xlink:href="#linear-gradient-5" y1="254" y2="485.7002"/><linearGradient id="linear-gradient-7" x1="345.8681" x2="345.8681" xlink:href="#linear-gradient-5" y1="254" y2="485.7002"/></defs><title/><g id="Hollywood"><g data-name="Layer 39" id="Layer_39"><circle cx="256" cy="256" r="256" style="fill:url(#linear-gradient)"/><circle cx="263" cy="107" r="35" style="fill:#fffba8"/><path d="M511.9494,252A255.65,255.65,0,0,0,405.3264,48.0557,44.6327,44.6327,0,0,0,388.965,92.694a44.8666,44.8666,0,0,0-70.8758,46.8342,44.95,44.95,0,0,0-63.4252,20.06A44.827,44.827,0,0,0,216.28,134.5493a44.2974,44.2974,0,0,0-24.1334,6.0833,45.5957,45.5957,0,0,0,1.1262-16.8941,44.8938,44.8938,0,0,0-40.8514-39.354,44.3665,44.3665,0,0,0-30.7952,9.2143A45.0425,45.0425,0,0,0,105.49,48.9193,255.6271,255.6271,0,0,0,.038,253H168V243h71V217.2046a45.105,45.105,0,0,0,16.2889-19.0027A45.0508,45.0508,0,0,0,271,215.775V241h71v11Z" style="fill:url(#linear-gradient-2)"/><path d="M512,256a255.4135,255.4135,0,0,0-16.231-89.8546l-60.319-31.25a21.9708,21.9708,0,0,0-19.15-.5154L395,144l-61.615-28.0891a16.7153,16.7153,0,0,0-12.9345-.3919L301,123l-19.512-12.0515a28.3158,28.3158,0,0,0-29.184-.346L226,126l-13.7562-5.3828a29.7512,29.7512,0,0,0-18.8076-.9595l-91.21,25.3472-35.39-10.4066a25.1127,25.1127,0,0,0-17.2569,1.1324l-25.217,11.1721A254.9869,254.9869,0,0,0,0,256a258.734,258.734,0,0,0,1.5641,28.2954l508.22,5.4451A258.3333,258.3333,0,0,0,512,256Z" style="fill:url(#linear-gradient-3)"/><path d="M505,238.84V221H467v28.053a10.1,10.1,0,0,0-5.8367,2.72l-5.73,5.4878a5.5821,5.5821,0,0,1-1.0893.8524,6.3941,6.3941,0,0,1-7.6884-.94l-4.011-4.0018A18.8977,18.8977,0,0,0,432,247.8931V205H387v41.4332a14.0754,14.0754,0,0,0-13.4371,3.2841l-7.9485,7.4A15.0261,15.0261,0,0,1,348,259.2041V229H292v27.8806a25.4,25.4,0,0,0-13.5179,5.5784l-2.46,2.0044a12.6983,12.6983,0,0,1-16.25-.4251,9.5666,9.5666,0,0,0-10.4145-1.2173L246,264.5V242H212V227H173v27.7333a5.2907,5.2907,0,0,1-4.8335-1.2184l-1.0233-.93a11.2752,11.2752,0,0,0-13.3-1.3747l-5.0383,2.9636a6.7451,6.7451,0,0,1-7.8048-.7V223H92v18.1288a22.2966,22.2966,0,0,0-7.9744,1.0231l-6.4532,2.0649a10.3557,10.3557,0,0,1-9.9759-2.07l-1.6926-1.4811A17.34,17.34,0,0,0,59,236.9808V213H45V187H12v26H3.6147A257.6647,257.6647,0,0,0,2.252,290H92v16h49V290H509.748A258.2948,258.2948,0,0,0,512,256c0-8.3008-.41-16.5049-1.1822-24.6033Z" style="fill:#8b913b"/><path d="M499.0563,336.5449A254.2654,254.2654,0,0,0,509.048,295H2.952q1.8867,12.3433,4.9365,24.2773Z" style="fill:#d7ab79"/><path d="M26.8785,370.2749l464.0808-12.5186q4.5-10.377,8.097-21.2114L7.8885,319.2773A254.1678,254.1678,0,0,0,26.8785,370.2749Z" style="fill:#c89864"/><path d="M449.68,423.407a256.1112,256.1112,0,0,0,41.2792-65.6507L26.8785,370.2749a255.8124,255.8124,0,0,0,17.1952,29.3662Z" style="fill:#b88958"/><path d="M44.0737,399.6411A255.9217,255.9217,0,0,0,449.68,423.407Z" style="fill:#9f774b"/><path d="M413.5421,457.7891,283.0588,297H238L104.0654,462.042a256.0181,256.0181,0,0,0,309.4767-4.2529Z" style="fill:url(#linear-gradient-4)"/><path d="M257,297V511.9873q2.5053-.0095,5-.0632V297Z" style="fill:url(#linear-gradient-5)"/><path d="M230,297,103.3019,461.4851a256.3216,256.3216,0,0,0,26.304,17.1746L242,297Z" style="fill:url(#linear-gradient-6)"/><path d="M290,297H278L388.2666,475.2209a256.5826,256.5826,0,0,0,25.47-17.5808Z" style="fill:url(#linear-gradient-7)"/><path d="M496.2931,251.7233a13.0805,13.0805,0,0,0-13.6744,1.4752l-3.38,2.6286a14.66,14.66,0,0,1-16.99.72l-.2148-.14a17.3979,17.3979,0,0,0-20.9378,1.4938l-1.6926,1.4811a10.3566,10.3566,0,0,1-9.9764,2.07l-6.4527-2.0648a22.3415,22.3415,0,0,0-22.607,5.4808l-3.9557,3.9556a4.8247,4.8247,0,0,1-6.8234,0l-5.1911-5.1911a8.4993,8.4993,0,0,0-12.3829.3866l-5.3261,6.0364a6.7573,6.7573,0,0,1-8.493,1.3535l-5.0383-2.9637a11.2746,11.2746,0,0,0-13.3008,1.3755l-1.0226.93a5.3022,5.3022,0,0,1-7.4065-.2666l-6.8763-7.22a11.0737,11.0737,0,0,0-17.2325,1.4944l-3.3834,5.0751a5.1228,5.1228,0,0,1-7.24,1.327l-.2853-.2037a11.0834,11.0834,0,0,0-15.726,2.9644l-5.0011,7.6684a7.5587,7.5587,0,0,1-9.7115,2.6316l-8.3286-4.1643a9.5668,9.5668,0,0,0-10.4578,1.2535,12.9112,12.9112,0,0,1-16.4959.153l-2.1706-1.7686a25.4943,25.4943,0,0,0-32.6954.4074,6.3515,6.3515,0,0,1-8.956-.6889l-3.9772-4.64a14.0715,14.0715,0,0,0-20.6344-.7923,15.03,15.03,0,0,1-20.8693.3725l-7.9485-7.4a14.1994,14.1994,0,0,0-20.11.7613l-7.2566,7.8613a8.4183,8.4183,0,0,1-13.07-.8652,18.6107,18.6107,0,0,0-28.6454-2.1783l-4.011,4.1783a6.1463,6.1463,0,0,1-8.78.09l-5.7276-5.7276a9.9659,9.9659,0,0,0-13.8773-.21l-18.7038-1.1425L.0277,253.811C.0216,254.5415,0,255.2682,0,256a257.5827,257.5827,0,0,0,3.78,44H507l4.9543-40.3926q.0027-.1954.005-.3916Z" style="fill:#7c8033"/><path d="M2.1121,289q.7779,6.045,1.834,12H508.0539q1.0558-5.9535,1.834-12Z" style="fill:#facd9b"/><path d="M448.705,325.3708c13.5067,28.4,4.9931,49.9708,4.9931,49.9708,26.49-24.56-.5094-55.8177-.5094-55.8177,17.66,2.2327,26.49,42.4214,26.49,42.4214,13.2449-42.4214-24.2825-53.5848-24.2825-53.5848,19.8675-2.2328,44.15,20.0943,44.15,20.0943-6.6225-35.7234-44.15-31.2579-44.15-31.2579,11.0375-15.629,41.9425,0,41.9425,0-16.1131-21.3116-31.5157-20.0983-41.9339-14.94,8.6226-18.2885,26.4813-25.2489,26.4813-25.2489-25.777-1.4484-33.8955,15.8895-36.4235,28.2534-2.5281-12.3639-10.6467-29.7018-36.4237-28.2534,0,0,18.9306,7.365,27.2237,26.8785-10.3167-6.33-27.1727-10.115-44.8837,13.31,0,0,30.9049-15.629,41.9424,0,0,0-37.5274-4.4655-44.15,31.2579,0,0,24.2824-22.3271,44.15-20.0943,0,0-37.5274,11.1634-24.2824,53.5848,0,0,8.83-40.1887,26.49-42.4214,0,0-26.9993,31.258-.5094,55.8177A89.0332,89.0332,0,0,1,440,326.3911l-1.7635,109.3816q6.2384-6.3234,12.0358-13.0662Z" style="fill:#5d6926"/><path d="M75.84,333.4146c28.6974-25.66-.5519-58.3177-.5519-58.3177,19.1316,2.3328,28.6974,44.3216,28.6974,44.3216,14.3487-44.3216-26.306-55.985-26.306-55.985,21.5232-2.3327,47.8291,20.9944,47.8291,20.9944C118.3338,247.1045,77.6791,251.77,77.6791,251.77c11.9573-16.3291,45.4377,0,45.4377,0-17.4558-22.2663-34.142-20.9985-45.4283-15.6089,9.341-19.1076,28.688-26.38,28.688-26.38-27.9251-1.5132-36.72,16.601-39.4588,29.5187-2.7387-12.9177-11.5339-31.0319-39.459-29.5187,0,0,20.5082,7.6948,29.4923,28.0825C45.7747,231.25,27.514,227.2957,8.327,251.77c0,0,33.48-16.3291,45.4376,0,0,0-40.6546-4.6655-47.8291,32.6579,0,0,26.306-23.3271,47.8291-20.9944,0,0-40.6546,11.6634-26.3059,55.985,0,0,9.5658-41.9888,28.6974-44.3216,0,0-29.2493,32.658-.5519,58.3177,0,0-5.874-24.4142,5.3958-51.1429L58.712,419.14q6.8088,8.2248,14.286,15.8487L70.43,281.2058C85.0626,310.8772,75.84,333.4146,75.84,333.4146Z" style="fill:#5d6926"/><polygon points="98 148 98 167 85 167 85 148 73 148 73 193 85 193 85 176 98 176 98 193 110 193 110 148 98 148" style="fill:#f8fafb"/><path d="M157,185l-7,8H128l-7-7V156l7-8h21l8,8Zm-10-27H131v25h16Z" style="fill:#f8fafb"/><path d="M376,185l-7,8H347l-7-7V156l7-8h21l8,8Zm-10-27H350v25h16Z" style="fill:#f8fafb"/><path d="M421,185l-7,8H392l-7-7V156l7-8h21l8,8Zm-10-27H395v25h16Z" style="fill:#f8fafb"/><polygon points="177 183 177 148 167 148 167 193 195 193 195 183 177 183" style="fill:#f8fafb"/><polygon points="215 183 215 148 205 148 205 193 233 193 233 183 215 183" style="fill:#f8fafb"/><polygon points="262 148 254 165 246 148 236 148 249 176 249 193 259 193 259 176 272 148 262 148" style="fill:#f8fafb"/><polygon points="280 148 290 193 301 193 306 166 311 193 322 193 331 148 321 148 317 171 313 148 299 148 295 171 290 148 280 148" style="fill:#f8fafb"/><path d="M451,148,462,163.99V177.98L452.77,193,429,192.9706V148Zm-12,11v24h8l5-8v-9l-5-7Z" style="fill:#f8fafb"/></g></g></svg>