<?xml version="1.0" ?><!DOCTYPE svg  PUBLIC '-//W3C//DTD SVG 1.1//EN'  'http://www.w3.org/Graphics/SVG/1.1/DTD/svg11.dtd'><svg enable-background="new 0 0 92.168 92.168" height="92.168px" id="Слой_1" version="1.1" viewBox="0 0 92.168 92.168" width="" xml:space="preserve" xmlns="http://www.w3.org/2000/svg" xmlns:xlink="http://www.w3.org/1999/xlink"><rect fill="none" height="92.168" width="92.168" x="0" y="0"/><path clip-rule="evenodd" d="M25.398,82.327c10.892-6.444,22.322,1.602,33.574,1.667  c2.977,0.016,5.872-0.997,8.75-2.06c6.493-2.421,5.348-2.191,0.36,1.667c-2.862,2.208-5.724,4.334-9.011,4.628  c-11.153,0.981-21.783-6.836-32.854-3.565C18.137,87.052,17.237,87.167,25.398,82.327L25.398,82.327z M83.454,39.266  c2.045,0,2.355-0.572,2.372,1.652c0,6.427,0,12.854,0.016,19.297c0,2.715,0.148,2.372-2.42,2.372c-2.372,0-2.355,0.491-2.355-2.027  c-0.033-6.427-0.066-12.854-0.098-19.495C80.952,38.678,81.263,39.266,83.454,39.266L83.454,39.266z M74.705,17.139  c-1.161-5.593-5.07-8.618-12.02-8.569c-3.19,0.033-4.236,0.637-1.554,2.42c1.324,0.9,2.42,2.339,3.385,3.598  c2.158,2.845,2.682,4.611-1.669,0.899c-2.715-2.306-8.062-2.142-10.974-1.406c-6.95,1.749-4.039,2.076,0.606,2.158  c2.584,0.049,6.296,1.718,8.21,3.19c3.221,2.469,0.851,2.567-2.273,4.039c-2.649,1.243-4.138,4.628-4.742,6.902  c-1.57,6.035-0.752,3.548,2.142,1.014c2.731-2.372,6.263-3.679,10.45-4.154c2.993-0.327,2.96-0.752,2.175,1.914  c-1.145,3.811-0.67,7.114-0.555,10.908c0.098,3.352-1.881,5.054,2.747,1.636c2.143-1.587,3.533-4.351,5.691-6.46  c1.358-1.325,1.537-1.096,3.272-0.343c4.138,1.815,7.474,4.791,9.583,9.501c1.996,4.466,1.537,5.578,1.864-0.376  c0.425-7.523-1.39-14.211-9.403-17.825c-2.011-0.916-4.35-0.867-0.801-2.078c3.091-1.046,6.297,0.23,9.224,2.519  c2.175,1.717,2.142,2.273,2.093-0.998c-0.163-9.272-6.868-13.95-15.046-7.359C74.395,20.459,75.376,20.377,74.705,17.139  L74.705,17.139z M21.767,32.414c0.606-0.343,1.227-0.67,1.914-0.932c0.606-0.23,0.589-0.18,1.079,0.229  c0.834,0.687,1.505,1.374,2.012,2.045c0.524,0.687,0.507,0.539-0.033,1.161c-0.818,0.964-1.472,1.946-1.979,2.944  c-0.523,1.046-0.327,1.21-1.014,0.115c-0.915-1.44-1.7-2.928-2.24-4.514C21.261,32.773,21.13,32.757,21.767,32.414L21.767,32.414z   M26.543,12.772c0.997-5.626,4.808-8.765,11.774-8.913c3.173-0.082,4.236,0.491,1.619,2.372c-1.308,0.932-2.355,2.403-3.287,3.696  c-2.061,2.894-2.535,4.678,1.7,0.851c2.649-2.388,7.981-2.404,10.924-1.751c7,1.537,4.105,1.963-0.539,2.176  c-2.584,0.13-6.231,1.914-8.112,3.433c-3.156,2.568-0.769,2.601,2.404,3.975c2.682,1.178,4.269,4.497,4.939,6.754  c1.766,5.985,0.866,3.533-2.11,1.079c-2.796-2.29-6.362-3.5-10.565-3.827c-3.009-0.245-2.993-0.67-2.109,1.963  c1.243,3.794,0.883,7.097,0.883,10.892c0,3.352,2.027,5.005-2.715,1.718c-2.175-1.521-3.647-4.236-5.872-6.281  c-1.39-1.291-1.569-1.046-3.27-0.245c-4.088,1.946-7.326,5.021-9.289,9.78c-1.864,4.53-1.39,5.642-1.897-0.311  c-0.637-7.506,0.964-14.244,8.863-18.104c1.979-0.964,4.334-0.997,0.736-2.094c-3.123-0.948-6.28,0.409-9.141,2.797  c-2.127,1.782-2.061,2.339-2.11-0.948c-0.13-9.257,6.427-14.13,14.801-7.802C26.968,16.093,25.97,16.044,26.543,12.772  L26.543,12.772z M38.612,28.342c3.27,3.058,6.165,6.591,8.323,10.598c0.834,1.554,0.54,1.505,1.751,0.196  c0.212-0.261,0.458-0.506,0.687-0.752c0.851-0.882,0.703-0.8,0.033-1.864c-1.881-3.057-4.285-5.772-7.441-8.209  c-0.949-0.752-1.881-0.948-3.042-1.291C35.194,25.873,36.323,26.167,38.612,28.342L38.612,28.342z M50.059,47.165  c0.393,1.685,0.278,1.26,0.393,3.075c0.066,1.423-0.163,1.324,1.292,1.324c0.719,0,1.423,0,2.142,0c1.423,0,1.309,0.148,1.014-1.259  c-0.654-3.026-0.915-3.696-1.946-6.248c-0.572-1.423-0.703-1.733-1.472-0.687c-0.393,0.507-0.8,0.997-1.161,1.505  C49.585,45.874,49.782,45.971,50.059,47.165L50.059,47.165z M62.357,31.957c-7.081,5.02-13.001,10.728-16.108,18.201  c-0.327,0.785-0.311,0.654-1.178,0.67c-0.572,0-1.145,0-1.7,0c-0.834,0-0.654-0.016-0.327-0.736  c3.451-7.556,8.781-13.41,16.583-18.904c1.178-0.834,1.291-0.933,2.73-0.752C64.844,30.779,64.206,30.631,62.357,31.957  L62.357,31.957z M44.335,56.945c-0.229,1.423-0.376,2.911-0.409,4.464c-0.032,1.342,0.131,1.21-1.226,1.227  c-0.752,0-1.488,0.016-2.24,0.016c-1.358,0.016-1.26,0.148-0.982-1.194c0.327-1.619,0.687-3.172,1.112-4.66  c0.197-0.655,0.115-0.639,0.801-0.639c0.785,0,1.57,0,2.355,0C44.614,56.16,44.467,56.127,44.335,56.945L44.335,56.945z   M27.769,39.43c2.045,0,2.355-0.573,2.372,1.651c0,6.427,0,12.854,0.016,19.282c0,2.731,0.148,2.372-2.421,2.388  c-2.371,0-2.42,0.49-2.354-2.028c0.163-6.493-0.066-13.001-0.098-19.494C25.283,38.841,25.578,39.43,27.769,39.43L27.769,39.43z   M1.914,39.348c2.273,0,2.208-0.229,3.222,1.93c1.455,3.123,2.927,6.247,4.399,9.371c1.603,3.434,1.227,3.124,2.862-0.18  c1.505-3.042,3.009-6.084,4.53-9.141c0.965-1.963,0.785-1.996,2.879-1.996c2.076,0,1.881-0.212,1.881,1.996  c0.016,6.442,0.016,12.886,0.016,19.313c0.015,2.24,0.179,2.012-1.93,2.012c-2.012,0-2.503,0.442-2.552-1.685  c-0.065-3.238-0.13-6.475-0.196-9.714c-0.082-3.875-0.212-1.799-1.652,1.374c-4.202,9.256-3.859,10.989-8.896,0.539  c-1.276-2.633-1.669-5.478-1.636-1.963c0.016,3.14,0.033,6.281,0.049,9.42c0.016,2.437-0.409,1.963-2.682,1.963  c-2.076,0.016-2.175,0.246-2.191-1.946c0-6.524,0-13.05-0.016-19.559C0,39.021-0.033,39.348,1.914,39.348L1.914,39.348z   M57.599,39.348c2.273,0,2.208-0.213,3.222,1.946c1.455,3.123,2.927,6.247,4.399,9.371c1.603,3.418,1.227,3.108,2.862-0.18  c1.505-3.058,3.009-6.1,4.514-9.157c0.982-1.963,0.801-1.996,2.895-1.996c2.076,0,1.881-0.212,1.881,2.012  c0.016,6.426,0.016,12.87,0.016,19.313c0.016,2.24,0.179,1.996-1.93,1.996c-2.012,0-2.503,0.458-2.552-1.685  c-0.065-3.238-0.13-6.475-0.196-9.698c-0.082-3.892-0.212-1.815-1.652,1.358c-4.202,9.256-3.859,10.989-8.896,0.539  c-1.276-2.633-1.669-5.462-1.636-1.963c0.016,3.14,0.033,6.281,0.049,9.42c0.016,2.437-0.409,1.979-2.682,1.979  c-2.076,0-2.191,0.23-2.191-1.963c0-6.524,0-13.034-0.016-19.559C55.685,39.021,55.652,39.348,57.599,39.348L57.599,39.348z   M38.399,60.984c-0.621,2.209-0.964,1.685-3.434,1.685c-2.666,0-3.205,0.654-2.306-1.815c2.29-6.378,4.596-12.772,6.885-19.15  c0.867-2.404,0.573-2.355,3.369-2.355c2.699,0,2.454-0.131,3.303,2.191c0.131,0.393,0.066,0.376-0.163,0.703  c-0.867,1.276-1.669,2.584-2.388,3.958c-0.311,0.555-0.245,0.703-0.458,0.033c-0.327-1.064-0.343-0.491-0.932,1.488  c-0.36,1.209-0.703,2.42-1.063,3.614c-0.213,0.703-0.327,0.67,0.425,0.67c1.455,0,2.927,0,4.382,0c0.621,0,0.539,0.016,0.752-0.572  c0.36-1.015,0.769-1.996,1.227-2.944c0.425-0.9,0.36-1.031,0.719-0.049c1.521,4.187,3.042,8.373,4.563,12.576  c0.833,2.322,0.114,1.636-2.339,1.636c-1.946,0-2.764,0.588-3.287-1.194c-0.458-1.636-1.015-3.516-1.537-5.282  c-0.393-1.324-0.279-1.21-1.669-1.21c-0.964,0.016-1.946,0.016-2.911,0.016c-1.587,0-1.391-0.033-1.848,1.488  C39.25,57.975,38.824,59.479,38.399,60.984L38.399,60.984z M20.279,70.763c14.343-7.065,29.388,1.751,44.205,1.816  c3.924,0.016,7.735-1.08,11.529-2.257c8.553-2.649,7.033-2.404,0.458,1.831c-3.745,2.403-7.523,4.742-11.841,5.069  c-14.686,1.079-28.7-7.474-43.272-3.892C10.729,75.949,9.535,76.062,20.279,70.763L20.279,70.763z" fill="#434A54" fill-rule="evenodd"/></svg>