<?xml version="1.0" ?><!DOCTYPE svg  PUBLIC '-//W3C//DTD SVG 1.1//EN'  'http://www.w3.org/Graphics/SVG/1.1/DTD/svg11.dtd'><svg enable-background="new 0 0 512 512" id="Layer_1" version="1.1" viewBox="0 0 512 512" xml:space="preserve" xmlns="http://www.w3.org/2000/svg" xmlns:xlink="http://www.w3.org/1999/xlink"><g><g><g><circle cx="256" cy="308.9" fill="#D0E5F6" r="196.6"/></g></g><g><path d="M414.7,383.4h-34.9c-1.2,0-2.2-1-2.2-2.2s1-2.2,2.2-2.2h34.9c1.2,0,2.2,1,2.2,2.2S416,383.4,414.7,383.4z" fill="#FFFFFF"/></g><g><path d="M447.6,280.4h-34.9c-1.2,0-2.2-1-2.2-2.2c0-1.2,1-2.2,2.2-2.2h34.9c1.2,0,2.2,1,2.2,2.2    C449.8,279.4,448.8,280.4,447.6,280.4z" fill="#FFFFFF"/></g><g><path d="M102.8,278.2H67.9c-1.2,0-2.2-1-2.2-2.2s1-2.2,2.2-2.2h34.9c1.2,0,2.2,1,2.2,2.2S104,278.2,102.8,278.2z" fill="#FFFFFF"/></g><g><path d="M291.9,169.9H257c-1.2,0-2.2-1-2.2-2.2c0-1.2,1-2.2,2.2-2.2h34.9c1.2,0,2.2,1,2.2,2.2    C294.1,168.9,293.1,169.9,291.9,169.9z" fill="#FFFFFF"/></g><path d="M407,183.7c-4.6-3.4-8.9-7.1-11.5-11.6c-0.2,0-0.3,0-0.5,0c-16.3,0-29.7,12.1-31.9,27.8c0,0,0,0,0,0   c-9.8,0-17.8,7.7-18.3,17.4h86.8C422.4,206.7,413.2,196,407,183.7z" fill="#FFFFFF"/><path d="M155.2,229.8c-1-2.9-3.8-5-7.1-5c-0.6,0-1.1,0.1-1.7,0.2c0-0.1,0-0.1,0-0.2c0-9.6-7.8-17.4-17.4-17.4   c-2.6,0-5.1,0.6-7.3,1.6c-3.8-4.8-9.6-7.9-16.2-7.9c-10.3,0-18.9,7.7-20.3,17.6c0,0,0,0,0,0c-6.2,0-11.3,4.9-11.6,11H155.2z" fill="#FFFFFF"/><path d="M145.7,325.8c-0.3-8.1-7-14.5-15.1-14.5c-5.7,0-10.8,3.2-13.3,7.9c-1.2-0.6-2.5-1-4-1   c-4.3,0-7.9,3.4-8.2,7.6H145.7z" fill="#FFFFFF"/><g><g><path d="M210.4,313.3L210.4,313.3c-0.8-0.5-1.7-0.9-2.5-1.4v4c0,10.8-3.1,21.4-8.8,30.6l-16.7,26.6     c-6.1,9.7-21.1,5.4-21.1-6.1v-29.4l-20.6,34c-8.4,13.9-4,32,9.9,40.4c13.9,8.4,32,4,40.4-9.9l29.4-48.4     C228.7,339.9,224.2,321.8,210.4,313.3z" fill="#F5F7F9"/><path d="M190.8,313.9l17.1-1.9c0,0,4,22.4-4.2,39.9c-4.2,9-14.8,25.2-24.1,38.9c-6.5,9.6-21.3,7.1-24.3-4     l-7.4-26.9l18.9-31.5L190.8,313.9z" fill="#D3DAE2"/><polyline fill="#D3DAE2" points="283.2,279.3 288.9,224.1 299.5,279.3    "/><polyline fill="#D3DAE2" points="312.1,282.1 358.1,248 325.3,288.2    "/><polyline fill="#D3DAE2" points="335.1,296.6 389.3,284.6 341.1,306.8    "/><polyline fill="#D3DAE2" points="343,317 396.5,323.4 340.6,328.4    "/><polyline fill="#D3DAE2" points="270.2,283.6 224.5,251.7 256.1,292.1    "/><polyline fill="#D3DAE2" points="243.7,309.1 210.6,304.4 197.2,299.6 210.6,298.4 250.2,298.4    "/><path d="M242.1,368.7l9.5-31.4l12-36.1l66.6,10.7l4.9,25.3l6.9,41c0.6,3.5-0.5,7.1-2.9,9.7h0     c-2.5,2.8-3.6,6.6-2.7,10.3l6.5,29l-8.7,8l-52.1-1.8l-55-53.5L242.1,368.7z" fill="#3E5A71"/><path d="M184.2,491.3c0.3,0.1,0.6,0.2,0.9,0.3c3.8-0.2,7.6,0.2,11.5,1.5c4.9,1.6,8.5,3.6,11.7,4.7     c9.2,3.2,16.9,3.7,26.6,4.8c17.9,2,38.6,2.3,54.8-0.4c19.3-3.1,35.2-10.8,52.8-17.8c13.5-5.4,27-13.7,39.7-22.5     c-9-21.5-30.3-36.7-55.1-36.7h-16.1c-13,0-25.3-5.7-33.7-15.5c0,0-36.7-41.7-54.3-61.3c-0.7,1.9-1.5,3.7-2.6,5.4l-29.4,48.4     c-5.4,8.8-14.6,13.8-24.2,14.1v33.6C166.7,466.1,173.4,480.8,184.2,491.3z" fill="#F5F7F9"/><path d="M293.3,279.3c-27.4,0-49.6,16.9-49.6,37.7c0,10.7,5.9,20.3,15.3,27.2c-1.3-3.3-2-6.8-2-10.5     c0-17.9,16.2-32.4,36.3-32.4c20,0,36.3,14.5,36.3,32.4c0,3.7-0.7,7.2-2,10.5c9.4-6.9,15.3-16.5,15.3-27.2     C343,296.2,320.7,279.3,293.3,279.3z" fill="#3E5A71"/><g><path d="M246.1,325.8c0-20.8,22.2-37.7,49.6-37.7c21.9,0,40.5,10.8,47.1,25.8c-2-19.4-23.4-34.6-49.4-34.6      c-27.4,0-49.6,16.9-49.6,37.7c0,4.2,0.9,8.1,2.5,11.9C246.2,327.9,246.1,326.8,246.1,325.8z" fill="#59788D"/><path d="M331.9,340.6c-0.2-3.5-1.1-6.9-2.5-10c0.1,1,0.2,2,0.2,3c0,3.7-0.7,7.2-2,10.5      C329.2,343.1,330.6,341.9,331.9,340.6z" fill="#59788D"/></g><path d="M293.3,301.2c-16.7,0-30.8,10.1-35,23.8l5.6,40.6c1.9,13.6,14.6,23.6,29.3,23.6h0     c14.7,0,27.4-10,29.3-23.6l5.6-40.6C324.1,311.3,310,301.2,293.3,301.2z" fill="#FFFFFF"/><path d="M293.3,389.3L293.3,389.3c-14.7,0-27.4-10-29.3-23.6l-0.4-2.9l0,0v31.1l13.5,15.8     c8.4,9.8,20.7,15.5,33.7,15.5h6.4v-47.1C311.8,384.9,303,389.3,293.3,389.3z" fill="#F5F7F9"/><path d="M293.3,389.3L293.3,389.3c-13.7,0-25.6-8.7-28.8-20.9l1.1,7.7c1.9,13.6,14.6,23.6,29.3,23.6l0,0     c8.8,0,16.8-3.6,22.3-9.3v-12.4C311.8,384.9,303,389.3,293.3,389.3z" fill="#D3DAE2"/><rect fill="#F5F7F9" height="26.6" width="74.8" x="137.2" y="62.7"/><rect fill="#FFFFFF" height="7.2" width="74.8" x="137.2" y="62.7"/><path d="M212.6,102.4h-76c-4.7,0-8.4-3.8-8.4-8.4v-4.6H221V94C221,98.6,217.2,102.4,212.6,102.4z" fill="#F5F7F9"/><path d="M188.5,127h-27.9c-3.1,0-5.7-2.5-5.7-5.7v-18.9h39.2v18.9C194.2,124.4,191.6,127,188.5,127z" fill="#B7BFC9"/><path d="M174.5,25.8h-5.2c-10.2,0-18.5,8.3-18.5,18.5v0c0,10.2,8.3,18.5,18.5,18.5h10.5     c10.2,0,18.5-8.3,18.5-18.5v-40C198.3,4.2,190.3,25.8,174.5,25.8z" fill="#F4B7A5"/><path d="M174.5,25.8h-5.2c-10.2,0-18.5,8.3-18.5,18.5v0c0,1.3,0.1,2.5,0.4,3.7c1.7-8.5,9.2-14.8,18.1-14.8h5.2     c15.7,0,23.7-21.5,23.7-21.5V4.2C198.3,4.2,190.3,25.8,174.5,25.8z" fill="#FBD1C6"/><path d="M175.9,133h-26.6c-3.8,0-6.9,3.1-6.9,6.9v0c0,3.8,3.1,6.9,6.9,6.9h26.6c3.8,0,6.9-3.1,6.9-6.9v0     C182.8,136.1,179.7,133,175.9,133z" fill="#FFFFFF"/><path d="M175.9,146.9h-26.6c-3.8,0-6.9,3.1-6.9,6.9v0c0,3.8,3.1,6.9,6.9,6.9h26.6c3.8,0,6.9-3.1,6.9-6.9v0     C182.8,150,179.7,146.9,175.9,146.9z" fill="#FFFFFF"/><path d="M175.9,160.7h-26.6c-3.8,0-6.9,3.1-6.9,6.9v0c0,3.8,3.1,6.9,6.9,6.9h26.6c3.8,0,6.9-3.1,6.9-6.9v0     C182.8,163.8,179.7,160.7,175.9,160.7z" fill="#FFFFFF"/><path d="M175.9,141.7h-26.6c-2.9,0-5.4-1.8-6.4-4.3c-0.3,0.8-0.5,1.7-0.5,2.6v0c0,3.8,3.1,6.9,6.9,6.9h26.6     c3.8,0,6.9-3.1,6.9-6.9v0c0-0.9-0.2-1.8-0.5-2.6C181.3,139.9,178.8,141.7,175.9,141.7z" fill="#D3DAE2"/><path d="M175.9,155.5h-26.6c-2.9,0-5.4-1.8-6.4-4.3c-0.3,0.8-0.5,1.7-0.5,2.6v0c0,3.8,3.1,6.9,6.9,6.9h26.6     c3.8,0,6.9-3.1,6.9-6.9v0c0-0.9-0.2-1.8-0.5-2.6C181.3,153.7,178.8,155.5,175.9,155.5z" fill="#D3DAE2"/><path d="M175.9,169.3h-26.6c-2.9,0-5.4-1.8-6.4-4.3c-0.3,0.8-0.5,1.7-0.5,2.6v0c0,3.8,3.1,6.9,6.9,6.9h26.6     c3.8,0,6.9-3.1,6.9-6.9v0c0-0.9-0.2-1.8-0.5-2.6C181.3,167.6,178.8,169.3,175.9,169.3z" fill="#D3DAE2"/><path d="M178.5,127h-17.3v6.1h14.7c3.8,0,6.9,3.1,6.9,6.9v0c0,3.8-3.1,6.9-6.9,6.9c3.8,0,6.9,3.1,6.9,6.9v0     c0,3.8-3.1,6.9-6.9,6.9l0,0c3.8,0,6.9,3.1,6.9,6.9v0c0,3.8-3.1,6.9-6.9,6.9h-14.7V367c0,11.5,15,15.8,21.1,6.1l16.7-26.6     c5.8-9.2,8.8-19.8,8.8-30.6V156.3C207.8,140.1,194.7,127,178.5,127z" fill="#FFFFFF"/><path d="M159.9,127l0.3,6.1h15.7c3.8,0,6.9,3.1,6.9,6.9v0c0,3.8-3.1,6.9-6.9,6.9c3.8,0,6.9,3.1,6.9,6.9v0     c0,3.8-3.1,6.9-6.9,6.9l0,0c3.8,0,6.9,3.1,6.9,6.9v0c0,3.8-3.1,6.9-6.9,6.9h-13.6l1.9,37.1c0.3,5.5,4.8,9.8,10.3,9.8     s10-4.3,10.3-9.8l4.4-84.7H159.9z" fill="#D3DAE2"/><path d="M295,464.8c-0.6,0-1.1-0.5-1.1-1.1v-15.5c0-0.6,0.5-1.1,1.1-1.1c0.6,0,1.1,0.5,1.1,1.1v15.5     C296.1,464.3,295.6,464.8,295,464.8z" fill="#244964"/><path d="M325.2,334.6c-17.3-4.9-30.2-16.3-30.3-16.4c-0.5-0.4-1.1-0.6-1.8-0.6c-0.6,0.1-1.2,0.4-1.6,0.9     c-5.5,7.9-23,12.9-29.8,14.6c0.4,1.5,0.6,3,0.7,4.5c6.6-1.6,23.7-6.3,31.3-14.6c4.3,3.5,15.9,11.9,30.6,16     C324.6,337.6,324.8,336.1,325.2,334.6z" fill="#D1DBDE"/><path d="M234.8,502.5c17.9,2,38.6,2.3,54.8-0.4c4.1-0.7,8.1-1.6,12-2.6l20.1-40.6c6-12.1-8.2-24.2-19.2-16.4     l-82,58.2C225,501.5,229.6,502,234.8,502.5z" fill="#F5F7F9"/><polygon fill="#9FACB8" points="155,102.4 194.2,102.4 194.2,119.7    "/><path d="M221,89.3h-92.9l87.5,10.6C218.9,97.6,221,93.7,221,89.3z" fill="#D3DAE2"/></g><g><g><path d="M222,501l81.1-57.6c5.6-4,11.4-2.1,14.6,0.6c3.3,2.8,6,8.2,3,14.3L300.2,500c1-0.2,1.9-0.5,2.9-0.8      l19.6-39.7c3-6,1.6-12.7-3.5-17c-5.1-4.3-11.9-4.6-17.4-0.8l-82.9,58.9C219.9,500.7,221,500.9,222,501z" fill="#244964"/></g><g><path d="M327.6,346.4c-0.5,0-1-0.2-1.4-0.5c-0.8-0.6-1.1-1.7-0.7-2.6c1.2-3.1,1.8-6.4,1.8-9.7      c0-16.6-15.3-30.2-34-30.2c-18.8,0-34,13.5-34,30.2c0,3.3,0.6,6.6,1.8,9.7c0.4,0.9,0.1,2-0.7,2.6c-0.8,0.6-1.9,0.6-2.7,0      c-10.5-7.6-16.2-17.9-16.2-29c0-22,23.3-39.9,51.9-39.9s51.9,17.9,51.9,39.9c0,11.1-5.8,21.4-16.2,29      C328.6,346.3,328.1,346.4,327.6,346.4z M293.3,299c21.2,0,38.5,15.5,38.5,34.6c0,1.4-0.1,2.8-0.3,4.2c5.9-6,9.2-13.3,9.2-20.9      c0-19.5-21.3-35.4-47.4-35.4S246,297.4,246,317c0,7.6,3.2,14.9,9.2,20.9c-0.2-1.4-0.3-2.8-0.3-4.2      C254.8,314.5,272.1,299,293.3,299z" fill="#244964"/></g><g><path d="M299.5,281.6c-1.1,0-2-0.7-2.2-1.8l-7.7-40.3l-4.2,40.1c-0.1,1.2-1.2,2.1-2.5,2c-1.2-0.1-2.1-1.2-2-2.5      l5.7-55.2c0.1-1.1,1-2,2.1-2c1.1-0.1,2.1,0.7,2.3,1.8l10.5,55.2c0.2,1.2-0.6,2.4-1.8,2.6C299.8,281.5,299.6,281.6,299.5,281.6z" fill="#244964"/></g><g><path d="M325.3,290.4c-0.5,0-1-0.2-1.4-0.5c-1-0.8-1.1-2.2-0.3-3.2l21.5-26.3l-31.6,23.4c-1,0.7-2.4,0.5-3.1-0.5      c-0.7-1-0.5-2.4,0.5-3.1l46.1-34.1c0.9-0.7,2.2-0.6,3,0.3c0.8,0.8,0.8,2.1,0.1,3L327,289.6C326.6,290.1,325.9,290.4,325.3,290.4      z" fill="#244964"/></g><g><path d="M341.1,309c-0.8,0-1.7-0.5-2-1.3c-0.5-1.1,0-2.5,1.1-3l29.1-13.4l-33.7,7.5c-1.2,0.3-2.4-0.5-2.7-1.7      c-0.3-1.2,0.5-2.4,1.7-2.7l54.2-12c1.1-0.3,2.2,0.4,2.6,1.5c0.4,1.1-0.1,2.3-1.2,2.7L342,308.8C341.7,308.9,341.4,309,341.1,309      z" fill="#244964"/></g><g><path d="M340.6,330.6c-1.1,0-2.1-0.9-2.2-2c-0.1-1.2,0.8-2.3,2-2.4l34.5-3.1l-32.3-3.9c-1.2-0.1-2.1-1.3-2-2.5      c0.1-1.2,1.3-2.1,2.5-2l53.5,6.4c1.1,0.1,2,1.1,2,2.3c0,1.1-0.9,2.1-2,2.2l-55.8,5C340.8,330.6,340.7,330.6,340.6,330.6z" fill="#244964"/></g><g><path d="M256.1,294.3c-0.7,0-1.3-0.3-1.8-0.9l-31.6-40.4c-0.7-0.9-0.6-2.1,0.1-2.9c0.8-0.8,2-0.9,2.9-0.3      l45.7,31.9c1,0.7,1.3,2.1,0.6,3.1c-0.7,1-2.1,1.3-3.1,0.6l-33.4-23.3l22.4,28.5c0.8,1,0.6,2.4-0.4,3.1      C257.1,294.1,256.6,294.3,256.1,294.3z" fill="#244964"/></g><g><path d="M250.2,300.6h-39.6c-1.2,0-2.2-1-2.2-2.2c0-1.2,1-2.2,2.2-2.2h39.6c1.2,0,2.2,1,2.2,2.2      C252.4,299.6,251.4,300.6,250.2,300.6z" fill="#244964"/></g><g><path d="M243.7,311.3c-0.1,0-0.2,0-0.3,0l-33.1-4.6c-1.2-0.2-2.1-1.3-1.9-2.5c0.2-1.2,1.3-2.1,2.5-1.9l33.1,4.6      c1.2,0.2,2.1,1.3,1.9,2.5C245.8,310.5,244.8,311.3,243.7,311.3z" fill="#244964"/></g><g><path d="M327.2,335.3c-0.2,0-0.3,0-0.5-0.1c-15.6-3.7-27.9-13.2-32.7-17.3c-8,11.7-33.2,15.7-34.3,15.8      c-1.2,0.2-2.4-0.7-2.6-1.9c-0.2-1.2,0.7-2.4,1.9-2.6c7.7-1.2,28.5-6.3,32.3-15.8c0.3-0.7,0.9-1.2,1.6-1.4c0.7-0.2,1.5,0.1,2,0.6      c0.1,0.1,14.3,13.6,32.8,18.1c1.2,0.3,1.9,1.5,1.7,2.7C329.1,334.6,328.2,335.3,327.2,335.3z" fill="#244964"/></g><g><path d="M293.3,391.5c-16,0-29.5-11-31.5-25.6l-5.6-40.6c0-0.3,0-0.7,0.1-1c4.6-15,19.8-25.4,37.1-25.4      c17.3,0,32.5,10.4,37.1,25.4c0.1,0.3,0.1,0.6,0.1,1l-5.6,40.6C322.9,380.5,309.3,391.5,293.3,391.5z M260.7,325.3l5.6,40.1      c1.7,12.4,13.4,21.7,27.1,21.7c13.7,0,25.4-9.3,27.1-21.7l5.6-40.1c-4.2-12.8-17.5-21.8-32.7-21.8S264.8,312.4,260.7,325.3z" fill="#244964"/></g><g><path d="M317.3,427.4h-6.4c-13.6,0-26.5-5.9-35.4-16.3l-13.5-15.8c-0.3-0.4-0.5-0.9-0.5-1.5v-31.1      c0-1.2,0.9-2.2,2.1-2.2c1.2-0.1,2.2,0.8,2.4,1.9l0.4,2.9c1.7,12.4,13.4,21.7,27.1,21.7c8.7,0,17-3.9,22.2-10.4      c0.6-0.7,1.6-1,2.5-0.7c0.9,0.3,1.5,1.2,1.5,2.1v47.1C319.5,426.4,318.5,427.4,317.3,427.4z M265.8,393l13,15.2      c8,9.4,19.7,14.7,32,14.7h4.2v-39.3c-5.9,5-13.6,7.9-21.7,7.9c-11.6,0-21.9-5.8-27.5-14.6V393z" fill="#244964"/></g><g><path d="M342.9,429.6c-1,0-1.9-0.7-2.2-1.7l-6.5-29c-1-4.4,0.2-9,3.3-12.3c1.9-2.1,2.8-5,2.3-7.8l-6.9-41      c-0.2-1.2,0.6-2.4,1.8-2.6c1.2-0.2,2.4,0.6,2.6,1.8l6.9,41c0.7,4.2-0.5,8.4-3.4,11.6c-2.1,2.2-2.9,5.3-2.2,8.3l6.5,29      c0.3,1.2-0.5,2.4-1.7,2.7C343.3,429.5,343.1,429.6,342.9,429.6z" fill="#244964"/></g><g><path d="M242.1,370.9c-0.2,0-0.4,0-0.6-0.1c-1.2-0.4-1.9-1.6-1.5-2.8l9.5-31.4c0.4-1.2,1.6-1.9,2.8-1.5      c1.2,0.4,1.9,1.6,1.5,2.8l-9.5,31.4C244,370.3,243.1,370.9,242.1,370.9z" fill="#244964"/></g><g><path d="M211.9,91.6h-74.8c-1.2,0-2.2-1-2.2-2.2V62.7c0-1.2,1-2.2,2.2-2.2h74.8c1.2,0,2.2,1,2.2,2.2v26.6      C214.2,90.6,213.2,91.6,211.9,91.6z M139.4,87.1h70.3V65h-70.3V87.1z" fill="#244964"/></g><g><path d="M207.9,104.6h-66.8c-8.4,0-15.3-6.9-15.3-15.3c0-1.2,1-2.2,2.2-2.2H221c1.2,0,2.2,1,2.2,2.2      C223.3,97.8,216.4,104.6,207.9,104.6z M130.6,91.6c1,4.9,5.4,8.6,10.6,8.6h66.8c5.2,0,9.6-3.7,10.6-8.6H130.6z" fill="#244964"/></g><g><path d="M187.8,129.2h-26.5c-4.7,0-8.6-3.9-8.6-8.6v-18.2c0-1.2,1-2.2,2.2-2.2h39.2c1.2,0,2.2,1,2.2,2.2v18.2      C196.4,125.3,192.5,129.2,187.8,129.2z M157.2,104.6v16c0,2.3,1.8,4.1,4.1,4.1h26.5c2.3,0,4.1-1.8,4.1-4.1v-16H157.2z" fill="#244964"/></g><g><path d="M179.8,65h-10.5c-11.4,0-20.7-9.3-20.7-20.7s9.3-20.7,20.7-20.7h5.2c14,0,21.6-19.9,21.6-20.1      c0.4-1,1.4-1.6,2.5-1.4c1.1,0.2,1.8,1.1,1.8,2.2v40C200.5,55.7,191.2,65,179.8,65z M169.3,28c-9,0-16.2,7.3-16.2,16.2      s7.3,16.2,16.2,16.2h10.5c9,0,16.2-7.3,16.2-16.2V13.6c-4.1,6.5-11.2,14.5-21.5,14.5H169.3z" fill="#244964"/></g><g><path d="M165.7,418.6c-5.6,0-11.2-1.5-16.4-4.6c-14.9-9.1-19.7-28.6-10.6-43.5l20.6-34c0.5-0.9,1.5-1.3,2.5-1      c1,0.3,1.6,1.2,1.6,2.2V367c0,5.1,3.6,8,6.7,8.8c3.1,0.9,7.6,0.4,10.3-4l16.7-26.6c5.5-8.8,8.5-19,8.5-29.4v-4      c0-0.8,0.4-1.5,1-1.9c0.7-0.4,1.5-0.5,2.2-0.1c0.9,0.5,1.8,0.9,2.7,1.5h0c14.9,9.1,19.7,28.6,10.6,43.5l-29.4,48.4      C186.9,413.1,176.4,418.6,165.7,418.6z M159,345.6l-16.5,27.2c-7.8,12.8-3.7,29.6,9.1,37.3c12.8,7.8,29.6,3.7,37.3-9.1      l29.4-48.4c7.6-12.5,3.9-28.8-8.3-36.8v0.1c0,11.3-3.2,22.3-9.1,31.8l-16.7,26.6c-3.3,5.3-9.4,7.6-15.4,5.9      c-6-1.7-9.9-6.9-9.9-13.2V345.6z" fill="#244964"/></g><g><path d="M175.9,149.1h-26.6c-5.1,0-9.2-4.1-9.2-9.2s4.1-9.2,9.2-9.2h26.6c5.1,0,9.2,4.1,9.2,9.2      S180.9,149.1,175.9,149.1z M149.3,135.3c-2.6,0-4.7,2.1-4.7,4.7s2.1,4.7,4.7,4.7h26.6c2.6,0,4.7-2.1,4.7-4.7s-2.1-4.7-4.7-4.7      H149.3z" fill="#244964"/></g><g><path d="M175.9,163h-26.6c-5.1,0-9.2-4.1-9.2-9.2c0-5.1,4.1-9.2,9.2-9.2h26.6c5.1,0,9.2,4.1,9.2,9.2      C185.1,158.8,180.9,163,175.9,163z M149.3,149.1c-2.6,0-4.7,2.1-4.7,4.7s2.1,4.7,4.7,4.7h26.6c2.6,0,4.7-2.1,4.7-4.7      s-2.1-4.7-4.7-4.7H149.3z" fill="#244964"/></g><g><path d="M175.9,176.8h-26.6c-5.1,0-9.2-4.1-9.2-9.2s4.1-9.2,9.2-9.2h26.6c5.1,0,9.2,4.1,9.2,9.2      S180.9,176.8,175.9,176.8z M149.3,163c-2.6,0-4.7,2.1-4.7,4.7s2.1,4.7,4.7,4.7h26.6c2.6,0,4.7-2.1,4.7-4.7s-2.1-4.7-4.7-4.7      H149.3z" fill="#244964"/></g><g><path d="M172.8,380.7c-1.3,0-2.6-0.2-4-0.6c-6-1.7-9.9-6.9-9.9-13.2V174.6c0-1.2,1-2.2,2.2-2.2h14.7      c2.6,0,4.7-2.1,4.7-4.7s-2.1-4.7-4.7-4.7c-1.2,0-2.2-1-2.2-2.2s1-2.2,2.2-2.2c2.6,0,4.7-2.1,4.7-4.7s-2.1-4.7-4.7-4.7      c-1.2,0-2.2-1-2.2-2.2c0-1.2,1-2.2,2.2-2.2c2.6,0,4.7-2.1,4.7-4.7s-2.1-4.7-4.7-4.7h-14.7c-1.2,0-2.2-1-2.2-2.2V127      c0-1.2,1-2.2,2.2-2.2h17.3c17.4,0,31.6,14.2,31.6,31.6v159.6c0,11.3-3.2,22.3-9.1,31.8l-16.7,26.6      C181.7,378.4,177.4,380.7,172.8,380.7z M163.5,176.8V367c0,5.1,3.6,8,6.7,8.8c3.1,0.9,7.6,0.4,10.3-4l16.7-26.6      c5.5-8.8,8.5-19,8.5-29.4V156.3c0-15-12.2-27.1-27.1-27.1h-15v1.6h12.4c5.1,0,9.2,4.1,9.2,9.2c0,2.8-1.2,5.2-3.2,6.9      c1.9,1.7,3.2,4.2,3.2,6.9s-1.2,5.2-3.2,6.9c1.9,1.7,3.2,4.2,3.2,6.9c0,5.1-4.1,9.2-9.2,9.2H163.5z" fill="#244964"/></g><g><path d="M174.6,223.7c-6.7,0-12.2-5.2-12.5-11.9l-1.9-37.1c0-0.6,0.2-1.2,0.6-1.7s1-0.7,1.6-0.7h13.6      c2.6,0,4.7-2.1,4.7-4.7s-2.1-4.7-4.7-4.7c-1.2,0-2.2-1-2.2-2.2s1-2.2,2.2-2.2c2.6,0,4.7-2.1,4.7-4.7s-2.1-4.7-4.7-4.7      c-1.2,0-2.2-1-2.2-2.2c0-1.2,1-2.2,2.2-2.2c2.6,0,4.7-2.1,4.7-4.7s-2.1-4.7-4.7-4.7h-15.7c-1.2,0-2.2-0.9-2.2-2.1l-0.3-6.1      c0-0.6,0.2-1.2,0.6-1.7c0.4-0.4,1-0.7,1.6-0.7h29.3c0.6,0,1.2,0.3,1.6,0.7s0.6,1,0.6,1.7l-4.4,84.7      C186.7,218.5,181.2,223.7,174.6,223.7z M164.7,176.8l1.8,34.8c0.2,4.3,3.8,7.7,8.1,7.7c4.3,0,7.8-3.4,8.1-7.7l2.1-41.7      c-1,3.9-4.6,6.9-8.9,6.9H164.7z M181.9,160.7c1.6,1.4,2.7,3.3,3.1,5.6l1.9-37.1h-24.6l0.1,1.6h13.6c5.1,0,9.2,4.1,9.2,9.2      c0,2.8-1.2,5.2-3.2,6.9c1.9,1.7,3.2,4.2,3.2,6.9S183.8,159,181.9,160.7z" fill="#244964"/></g><g><g><path d="M185.1,491.6c0.9,0,1.8,0,2.6,0c-11.8-10.3-18.8-25.3-18.8-41.7v-31.5c9.9-1,18.7-6.5,23.9-15.1       l29.4-48.4c0.5-0.8,0.9-1.6,1.4-2.5c18.1,20.2,51.6,58.3,51.9,58.7c8.9,10.4,21.8,16.3,35.4,16.3h16.1       c24,0,44.6,14.8,53.2,35.7c1.3-0.9,2.5-1.7,3.8-2.6c-9.5-22.1-31.5-37.6-57-37.6h-16.1c-12.3,0-24-5.4-32-14.8       c-0.4-0.4-36.9-42-54.3-61.3c-0.5-0.6-1.3-0.8-2.1-0.7c-0.8,0.2-1.4,0.7-1.7,1.4c-0.6,1.8-1.4,3.4-2.4,5L189,401       c-4.8,7.9-13.1,12.8-22.4,13.1c-1.2,0-2.2,1-2.2,2.2v33.6c0,15,5.7,29.2,15.4,40C181.6,490.4,183.3,491,185.1,491.6z" fill="#244964"/></g></g><g><path d="M293.3,302.4c-0.6,0-1.1-0.5-1.1-1.1v-21.9c0-0.6,0.5-1.1,1.1-1.1s1.1,0.5,1.1,1.1v21.9      C294.5,301.9,294,302.4,293.3,302.4z" fill="#244964"/></g><g><path d="M284.1,304.5c-0.5,0-0.9-0.3-1.1-0.8l-6.7-22.1c-0.2-0.6,0.2-1.2,0.7-1.4c0.6-0.2,1.2,0.2,1.4,0.7      l6.7,22.1c0.2,0.6-0.2,1.2-0.7,1.4C284.4,304.5,284.2,304.5,284.1,304.5z" fill="#244964"/></g><g><path d="M274.7,306.9c-0.4,0-0.8-0.2-1-0.6l-11.1-19c-0.3-0.5-0.1-1.2,0.4-1.5c0.5-0.3,1.2-0.1,1.5,0.4l11.1,19      c0.3,0.5,0.1,1.2-0.4,1.5C275.1,306.9,274.9,306.9,274.7,306.9z" fill="#244964"/></g><g><path d="M267.1,312.4c-0.3,0-0.6-0.1-0.8-0.4l-14.7-15.6c-0.4-0.5-0.4-1.2,0.1-1.6c0.5-0.4,1.2-0.4,1.6,0.1      l14.7,15.6c0.4,0.5,0.4,1.2-0.1,1.6C267.6,312.3,267.3,312.4,267.1,312.4z" fill="#244964"/></g><g><path d="M261.7,318.9c-0.2,0-0.4-0.1-0.6-0.2l-16.2-11c-0.5-0.3-0.6-1-0.3-1.6c0.3-0.5,1-0.6,1.6-0.3l16.2,11      c0.5,0.3,0.6,1,0.3,1.6C262.5,318.7,262.1,318.9,261.7,318.9z" fill="#244964"/></g><g><path d="M258.4,326.2c-0.1,0-0.3,0-0.4-0.1l-14.6-5.5c-0.6-0.2-0.9-0.9-0.7-1.4c0.2-0.6,0.9-0.9,1.4-0.7      l14.6,5.5c0.6,0.2,0.9,0.9,0.7,1.4C259.2,325.9,258.8,326.2,258.4,326.2z" fill="#244964"/></g><g><path d="M303,303.5c-0.1,0-0.2,0-0.3,0c-0.6-0.1-1-0.7-0.8-1.3l5.1-21.4c0.1-0.6,0.7-1,1.3-0.8      c0.6,0.1,1,0.7,0.8,1.3l-5.1,21.4C303.9,303.2,303.5,303.5,303,303.5z" fill="#244964"/></g><g><path d="M311.1,306.5c-0.2,0-0.4,0-0.5-0.1c-0.5-0.3-0.7-1-0.4-1.5l10.8-19.2c0.3-0.5,1-0.7,1.5-0.4      c0.5,0.3,0.7,1,0.4,1.5L312.1,306C311.9,306.3,311.5,306.5,311.1,306.5z" fill="#244964"/></g><g><path d="M318.1,311.1c-0.3,0-0.6-0.1-0.8-0.3c-0.4-0.4-0.5-1.1,0-1.6l15-15.5c0.4-0.4,1.1-0.5,1.6,0      c0.4,0.4,0.5,1.1,0,1.6l-15,15.5C318.7,311,318.4,311.1,318.1,311.1z" fill="#244964"/></g><g><path d="M323.8,317.3c-0.4,0-0.7-0.2-0.9-0.5c-0.3-0.5-0.2-1.2,0.3-1.5l16.7-10.7c0.5-0.3,1.2-0.2,1.5,0.3      c0.3,0.5,0.2,1.2-0.3,1.5l-16.7,10.7C324.3,317.2,324,317.3,323.8,317.3z" fill="#244964"/></g><g><path d="M327.8,324.8c-0.5,0-0.9-0.3-1.1-0.8c-0.2-0.6,0.1-1.2,0.7-1.4l15.1-4.7c0.6-0.2,1.2,0.1,1.4,0.7      c0.2,0.6-0.1,1.2-0.7,1.4l-15.1,4.7C328.1,324.8,328,324.8,327.8,324.8z" fill="#244964"/></g><g><path d="M339,332.8h-9.5c-0.6,0-1.1-0.5-1.1-1.1s0.5-1.1,1.1-1.1h9.5c0.6,0,1.1,0.5,1.1,1.1      S339.6,332.8,339,332.8z" fill="#244964"/></g><g><path d="M253.7,441.2c-0.6,0-1.1-0.5-1.1-1.1v-57.7c0-0.6,0.5-1.1,1.1-1.1c0.6,0,1.1,0.5,1.1,1.1v57.7      C254.8,440.7,254.3,441.2,253.7,441.2z" fill="#244964"/></g><g><path d="M204.8,496.4v-49.8c0-0.6-0.5-1.1-1.1-1.1s-1.1,0.5-1.1,1.1v48.8C203.3,495.7,204.1,496.1,204.8,496.4z" fill="#244964"/></g><g><path d="M192.9,492.2v-24c0-0.6-0.5-1.1-1.1-1.1c-0.6,0-1.1,0.5-1.1,1.1v23.6C191.4,491.9,192.1,492,192.9,492.2      z" fill="#244964"/></g><g><path d="M180.4,488.4c-0.6,0-1.1-0.5-1.1-1.1v-47.2c0-0.6,0.5-1.1,1.1-1.1s1.1,0.5,1.1,1.1v47.2      C181.5,487.9,181,488.4,180.4,488.4z" fill="#244964"/></g><g><path d="M202.4,365.3c-0.6,0-1.1-0.5-1.1-1.1v-23.8c0-0.6,0.5-1.1,1.1-1.1s1.1,0.5,1.1,1.1v23.8      C203.5,364.8,203,365.3,202.4,365.3z" fill="#244964"/></g><g><path d="M191.8,383.4c-0.6,0-1.1-0.5-1.1-1.1v-24.2c0-0.6,0.5-1.1,1.1-1.1c0.6,0,1.1,0.5,1.1,1.1v24.2      C192.9,382.9,192.4,383.4,191.8,383.4z" fill="#244964"/></g><g><path d="M157.7,416.3c-0.6,0-1.1-0.5-1.1-1.1v-32.9c0-0.6,0.5-1.1,1.1-1.1c0.6,0,1.1,0.5,1.1,1.1v32.9      C158.8,415.8,158.3,416.3,157.7,416.3z" fill="#244964"/></g><g><path d="M149.2,399.9c-0.6,0-1.1-0.5-1.1-1.1v-25.9c0-0.6,0.5-1.1,1.1-1.1c0.6,0,1.1,0.5,1.1,1.1v25.9      C150.4,399.4,149.9,399.9,149.2,399.9z" fill="#244964"/></g><g><path d="M166.7,409.4c-0.6,0-1.1-0.5-1.1-1.1v-16.4c0-0.6,0.5-1.1,1.1-1.1c0.6,0,1.1,0.5,1.1,1.1v16.4      C167.8,408.9,167.3,409.4,166.7,409.4z" fill="#244964"/></g><g><path d="M303,412.3c-0.6,0-1.1-0.5-1.1-1.1v-23.4c0-0.6,0.5-1.1,1.1-1.1c0.6,0,1.1,0.5,1.1,1.1v23.4      C304.1,411.8,303.6,412.3,303,412.3z" fill="#244964"/></g><g><path d="M295,403.3c-0.6,0-1.1-0.5-1.1-1.1v-13c0-0.6,0.5-1.1,1.1-1.1s1.1,0.5,1.1,1.1v13      C296.1,402.8,295.6,403.3,295,403.3z" fill="#244964"/></g><g><path d="M288.4,488.4c-0.6,0-1.1-0.5-1.1-1.1v-34.8c0-0.6,0.5-1.1,1.1-1.1c0.6,0,1.1,0.5,1.1,1.1v34.8      C289.5,487.9,289,488.4,288.4,488.4z" fill="#244964"/></g><g><path d="M274.7,480.2c-0.6,0-1.1-0.5-1.1-1.1v-16.8c0-0.6,0.5-1.1,1.1-1.1c0.6,0,1.1,0.5,1.1,1.1v16.8      C275.9,479.7,275.4,480.2,274.7,480.2z" fill="#244964"/></g><g><path d="M243.2,503.3v-17.9c0-0.6-0.5-1.1-1.1-1.1c-0.6,0-1.1,0.5-1.1,1.1v17.7      C241.7,503.2,242.5,503.3,243.2,503.3z" fill="#244964"/></g><g><path d="M295,464.8c-0.6,0-1.1-0.5-1.1-1.1v-15.8c0-0.6,0.5-1.1,1.1-1.1s1.1,0.5,1.1,1.1v15.8      C296.1,464.3,295.6,464.8,295,464.8z" fill="#244964"/></g><g><path d="M359.2,476.3v-42.3c0-0.6-0.5-1.1-1.1-1.1s-1.1,0.5-1.1,1.1v43.6C357.7,477.1,358.5,476.7,359.2,476.3z" fill="#244964"/></g><g><path d="M369.7,470.1v-1.9c0-0.6-0.5-1.1-1.1-1.1c-0.6,0-1.1,0.5-1.1,1.1v3.3C368.2,471,368.9,470.5,369.7,470.1      z" fill="#244964"/></g><g><path d="M245.6,412.3c-0.6,0-1.1-0.5-1.1-1.1v-37.3c0-0.6,0.5-1.1,1.1-1.1c0.6,0,1.1,0.5,1.1,1.1v37.3      C246.7,411.8,246.2,412.3,245.6,412.3z" fill="#244964"/></g><g><path d="M261.7,451.8c-0.6,0-1.1-0.5-1.1-1.1v-34.3c0-0.6,0.5-1.1,1.1-1.1s1.1,0.5,1.1,1.1v34.3      C262.9,451.3,262.4,451.8,261.7,451.8z" fill="#244964"/></g></g></g><g><g><g><path d="M256,107.8c-22.1,0-43.3,3.6-63.2,10.2c0.3,1.2,0.4,2.3,0.1,3.6c-0.3,1.3-1.1,2.6-2.1,3.5      c-0.8,0.7-1.7,1.3-2.7,1.7v2.3c21.1-8,44-12.5,68-12.5c106,0,192.1,86.2,192.1,192.1C448.1,414.8,362,501,256,501      c-106,0-192.1-86.2-192.1-192.1c0-62.9,30.4-118.9,77.3-154c-0.3-0.9-0.4-1.9-0.2-2.9c0.6-2.4,2.4-4.2,4.6-5.4      c-1.3-0.8-2.4-1.8-3.3-3.2c0-0.1-0.1-0.1-0.1-0.2c-52.7,36.3-87.3,97-87.3,165.7C54.9,419.8,145.1,510,256,510      c110.9,0,201.1-90.2,201.1-201.1C457.1,198,366.9,107.8,256,107.8z" fill="#244964"/></g></g></g></g></svg>