<?xml version="1.0" ?><!DOCTYPE svg  PUBLIC '-//W3C//DTD SVG 1.1//EN'  'http://www.w3.org/Graphics/SVG/1.1/DTD/svg11.dtd'><svg enable-background="new 0 0 512 512" id="Layer_1" version="1.1" viewBox="0 0 512 512" xml:space="preserve" xmlns="http://www.w3.org/2000/svg" xmlns:xlink="http://www.w3.org/1999/xlink"><g><g><g><circle cx="256" cy="294.3" fill="#D0E5F6" r="210.9"/></g></g><g><g><g><g><path d="M256.6,505.2h6.9c4.8-0.5,9.7-0.9,14.5-1.4c2.2-0.4,4.4-0.8,6.6-1.2c10-1.9,19.8-3.7,29.5-6.8       c1.6-0.5,3.2-1.1,4.8-1.7V362.5H193.3v129.5c3,0.9,6,1.7,9,2.6c4.7,1.3,9.5,2.8,14.3,3.8c2.1,0.5,4.2,0.9,6.3,1.2       c0.9,0.1,7.1,1,6,0.9C238.1,501.8,247.5,502.8,256.6,505.2z" fill="#F4F6F8"/></g></g><g><g><rect fill="#9FABB7" height="8.5" width="43.5" x="234.4" y="457.7"/></g></g><g><g><rect fill="#D0DADD" height="4.7" width="54.7" x="228.8" y="439.4"/></g></g><g><g><rect fill="#F4F6F8" height="34.3" width="10.8" x="404.4" y="311.7"/></g></g><g><g><path d="M326.2,491.4c-1.2,0.5,4.6-2,5.3-2.4c1.9-0.9,3.8-1.8,5.6-2.7c8.7-4.4,17.1-9.3,25.3-14.6       c7.7-5,15.1-10.5,22.9-15.3c3.6-2.2,7.4-4.4,11-6.6c1.5-1,3.1-2,4.6-3c0.4-0.3,0.9-0.6,1.3-0.9c0.2-0.2,0.5-0.4,0.9-0.8       c1.3-1.3,2.7-2.4,3.9-3.8c0.7-0.8,1.4-1.6,2-2.4c0.1-0.1,0.2-0.2,0.3-0.4c2.9-3.9,5.8-7.8,8.7-11.6c3.9-5.2,7.8-10.3,12.1-15.2       v-49.2H318.7v131.7C321.2,493.3,323.7,492.4,326.2,491.4z" fill="#F4F6F8"/></g></g><g><g><path d="M326.2,491.4c-0.6,0.2,0.6-0.3,2-0.9v-128h-9.5v131.7C321.2,493.3,323.7,492.4,326.2,491.4z" fill="#D0DADD"/></g></g><g><g><polygon fill="#F4B7A5" points="418.1,346 318.7,346 318.7,362.5 430,362.5      "/></g></g><g><g><path d="M337.1,486.3c3.8-1.9,7.4-3.9,11.1-6h-14.5v6.6h2.2C336.3,486.7,336.7,486.5,337.1,486.3z" fill="#9FABB7"/></g></g><g><g><g><rect fill="#9FABB7" height="6.6" width="17.8" x="395.5" y="416.2"/></g></g><g><rect fill="#9FABB7" height="36.9" width="15.4" x="396.7" y="379.8"/></g><g><path d="M412.1,417.9h-15.4c-0.7,0-1.2-0.5-1.2-1.2v-36.9c0-0.7,0.5-1.2,1.2-1.2h15.4c0.7,0,1.2,0.5,1.2,1.2       v36.9C413.3,417.3,412.8,417.9,412.1,417.9z M397.9,415.5h13V381h-13V415.5z" fill="#244A64"/></g><g><g><g><path d="M412.1,388.3h-15.4c-0.7,0-1.2-0.5-1.2-1.2c0-0.7,0.5-1.2,1.2-1.2h15.4c0.7,0,1.2,0.5,1.2,1.2         C413.3,387.8,412.8,388.3,412.1,388.3z" fill="#244A64"/></g></g></g><g><g><g><path d="M412.1,395.7h-15.4c-0.7,0-1.2-0.5-1.2-1.2c0-0.7,0.5-1.2,1.2-1.2h15.4c0.7,0,1.2,0.5,1.2,1.2         C413.3,395.2,412.8,395.7,412.1,395.7z" fill="#244A64"/></g></g></g><g><g><g><path d="M412.1,403.1h-15.4c-0.7,0-1.2-0.5-1.2-1.2c0-0.7,0.5-1.2,1.2-1.2h15.4c0.7,0,1.2,0.5,1.2,1.2         C413.3,402.6,412.8,403.1,412.1,403.1z" fill="#244A64"/></g></g></g><g><g><g><path d="M412.1,410.5h-15.4c-0.7,0-1.2-0.5-1.2-1.2c0-0.7,0.5-1.2,1.2-1.2h15.4c0.7,0,1.2,0.5,1.2,1.2         C413.3,410,412.8,410.5,412.1,410.5z" fill="#244A64"/></g></g></g><g><g><path d="M404.4,417.9c-0.7,0-1.2-0.5-1.2-1.2v-36.9c0-0.7,0.5-1.2,1.2-1.2c0.7,0,1.2,0.5,1.2,1.2v36.9        C405.6,417.3,405.1,417.9,404.4,417.9z" fill="#244A64"/></g></g></g><g><g><g><rect fill="#9FABB7" height="6.6" width="17.8" x="333.7" y="416.2"/></g></g><g><rect fill="#9FABB7" height="36.9" width="15.4" x="334.9" y="379.8"/></g><g><path d="M350.3,417.9h-15.4c-0.7,0-1.2-0.5-1.2-1.2v-36.9c0-0.7,0.5-1.2,1.2-1.2h15.4c0.7,0,1.2,0.5,1.2,1.2       v36.9C351.5,417.3,351,417.9,350.3,417.9z M336.1,415.5h13V381h-13V415.5z" fill="#244A64"/></g><g><g><g><path d="M350.3,388.3h-15.4c-0.7,0-1.2-0.5-1.2-1.2c0-0.7,0.5-1.2,1.2-1.2h15.4c0.7,0,1.2,0.5,1.2,1.2         C351.5,387.8,351,388.3,350.3,388.3z" fill="#244A64"/></g></g></g><g><g><g><path d="M350.3,395.7h-15.4c-0.7,0-1.2-0.5-1.2-1.2c0-0.7,0.5-1.2,1.2-1.2h15.4c0.7,0,1.2,0.5,1.2,1.2         C351.5,395.2,351,395.7,350.3,395.7z" fill="#244A64"/></g></g></g><g><g><g><path d="M350.3,403.1h-15.4c-0.7,0-1.2-0.5-1.2-1.2c0-0.7,0.5-1.2,1.2-1.2h15.4c0.7,0,1.2,0.5,1.2,1.2         C351.5,402.6,351,403.1,350.3,403.1z" fill="#244A64"/></g></g></g><g><g><g><path d="M350.3,410.5h-15.4c-0.7,0-1.2-0.5-1.2-1.2c0-0.7,0.5-1.2,1.2-1.2h15.4c0.7,0,1.2,0.5,1.2,1.2         C351.5,410,351,410.5,350.3,410.5z" fill="#244A64"/></g></g></g><g><g><path d="M342.6,417.9c-0.7,0-1.2-0.5-1.2-1.2v-36.9c0-0.7,0.5-1.2,1.2-1.2s1.2,0.5,1.2,1.2v36.9        C343.8,417.3,343.3,417.9,342.6,417.9z" fill="#244A64"/></g></g></g><g><g><g><rect fill="#9FABB7" height="6.6" width="17.8" x="364.6" y="416.2"/></g></g><g><rect fill="#9FABB7" height="36.9" width="15.4" x="365.8" y="379.8"/></g><g><path d="M381.2,417.9h-15.4c-0.7,0-1.2-0.5-1.2-1.2v-36.9c0-0.7,0.5-1.2,1.2-1.2h15.4c0.7,0,1.2,0.5,1.2,1.2       v36.9C382.4,417.3,381.9,417.9,381.2,417.9z M367,415.5h13V381h-13V415.5z" fill="#244A64"/></g><g><g><g><path d="M381.2,388.3h-15.4c-0.7,0-1.2-0.5-1.2-1.2c0-0.7,0.5-1.2,1.2-1.2h15.4c0.7,0,1.2,0.5,1.2,1.2         C382.4,387.8,381.9,388.3,381.2,388.3z" fill="#244A64"/></g></g></g><g><g><g><path d="M381.2,395.7h-15.4c-0.7,0-1.2-0.5-1.2-1.2c0-0.7,0.5-1.2,1.2-1.2h15.4c0.7,0,1.2,0.5,1.2,1.2         C382.4,395.2,381.9,395.7,381.2,395.7z" fill="#244A64"/></g></g></g><g><g><g><path d="M381.2,403.1h-15.4c-0.7,0-1.2-0.5-1.2-1.2c0-0.7,0.5-1.2,1.2-1.2h15.4c0.7,0,1.2,0.5,1.2,1.2         C382.4,402.6,381.9,403.1,381.2,403.1z" fill="#244A64"/></g></g></g><g><g><g><path d="M381.2,410.5h-15.4c-0.7,0-1.2-0.5-1.2-1.2c0-0.7,0.5-1.2,1.2-1.2h15.4c0.7,0,1.2,0.5,1.2,1.2         C382.4,410,381.9,410.5,381.2,410.5z" fill="#244A64"/></g></g></g><g><g><path d="M373.5,417.9c-0.7,0-1.2-0.5-1.2-1.2v-36.9c0-0.7,0.5-1.2,1.2-1.2c0.7,0,1.2,0.5,1.2,1.2v36.9        C374.7,417.3,374.2,417.9,373.5,417.9z" fill="#244A64"/></g></g></g><g><g><path d="M400.9,446.8c0.4-0.3,0.9-0.6,1.3-0.9c0.2-0.2,0.5-0.4,0.9-0.8c0.3-0.4,0.7-0.7,1.1-1h-7.5v5.5       C398.1,448.6,399.5,447.7,400.9,446.8z" fill="#9FABB7"/></g></g><g><g><path d="M396.3,449.7c0.5-0.3,1.1-0.7,1.6-1v-3.5h5c0.1-0.1,0.1-0.1,0.2-0.2c0.7-0.8,1.5-1.5,2.3-2.2h-8.7       c-0.7,0-1.2,0.5-1.2,1.2v6.2C395.8,450.1,396,449.9,396.3,449.7z" fill="#244A64"/></g></g><g><g><path d="M381.2,459v-15h-15.4v25.5C370.9,466,376,462.4,381.2,459z" fill="#9FABB7"/></g></g><g><g><path d="M367,468.7v-23.5h13v14.6c0.8-0.5,1.6-1.1,2.4-1.6V444c0-0.7-0.5-1.2-1.2-1.2h-15.4       c-0.7,0-1.2,0.5-1.2,1.2v26.3C365.4,469.8,366.2,469.2,367,468.7z" fill="#244A64"/></g></g><g><g><g><g><g><path d="M381.2,452.6h-15.4c-0.7,0-1.2-0.5-1.2-1.2c0-0.7,0.5-1.2,1.2-1.2h15.4c0.7,0,1.2,0.5,1.2,1.2          C382.4,452,381.9,452.6,381.2,452.6z" fill="#244A64"/></g></g></g><g><g><g><path d="M365.8,460h14c0.9-0.6,1.7-1.1,2.6-1.7c-0.2-0.4-0.6-0.7-1.1-0.7h-15.4c-0.7,0-1.2,0.5-1.2,1.2          C364.6,459.4,365.1,460,365.8,460z" fill="#244A64"/></g></g></g><g><g><g><path d="M365.8,467.4h3.1c1.2-0.8,2.3-1.6,3.5-2.4h-6.6c-0.7,0-1.2,0.5-1.2,1.2          C364.6,466.8,365.1,467.4,365.8,467.4z" fill="#244A64"/></g></g></g></g><g><g><g><path d="M374.7,463.4l0-19.4c0-0.7-0.5-1.2-1.2-1.2c-0.7,0-1.2,0.5-1.2,1.2l0,21         C373.1,464.5,373.9,463.9,374.7,463.4z" fill="#244A64"/></g></g></g></g><g><g><path d="M350.3,479.1V444h-15.4v36.9h12.2C348.2,480.3,349.2,479.7,350.3,479.1z" fill="#9FABB7"/></g></g><g><g><path d="M334.9,482.1H345c2.2-1.2,4.4-2.4,6.5-3.7V444c0-0.7-0.5-1.2-1.2-1.2h-15.4c-0.7,0-1.2,0.5-1.2,1.2       v36.9C333.7,481.6,334.2,482.1,334.9,482.1z M336.1,445.2h13v34.5h-13V445.2z" fill="#244A64"/></g></g><g><g><g><g><g><path d="M350.3,452.6h-15.4c-0.7,0-1.2-0.5-1.2-1.2c0-0.7,0.5-1.2,1.2-1.2h15.4c0.7,0,1.2,0.5,1.2,1.2          C351.5,452,350.9,452.6,350.3,452.6z" fill="#244A64"/></g></g></g><g><g><g><path d="M350.3,460h-15.4c-0.7,0-1.2-0.5-1.2-1.2c0-0.7,0.5-1.2,1.2-1.2h15.4c0.7,0,1.2,0.5,1.2,1.2          C351.5,459.4,350.9,460,350.3,460z" fill="#244A64"/></g></g></g><g><g><g><path d="M350.3,467.4h-15.4c-0.7,0-1.2-0.5-1.2-1.2c0-0.7,0.5-1.2,1.2-1.2h15.4c0.7,0,1.2,0.5,1.2,1.2          C351.5,466.8,350.9,467.4,350.3,467.4z" fill="#244A64"/></g></g></g><g><g><g><path d="M350.3,474.8h-15.4c-0.7,0-1.2-0.5-1.2-1.2c0-0.7,0.5-1.2,1.2-1.2h15.4c0.7,0,1.2,0.5,1.2,1.2          C351.5,474.3,350.9,474.8,350.3,474.8z" fill="#244A64"/></g></g></g></g><g><g><g><path d="M342.6,482.1c-0.7,0-1.2-0.5-1.2-1.2V444c0-0.7,0.5-1.2,1.2-1.2c0.7,0,1.2,0.5,1.2,1.2v36.9         C343.8,481.6,343.2,482.1,342.6,482.1z" fill="#244A64"/></g></g></g></g><g><g><rect fill="#F4F6F8" height="34.3" width="10.8" x="96.8" y="311.7"/></g></g><g><g><rect fill="#F4F6F8" height="88.4" width="117.6" x="197.3" y="257.6"/></g></g><g><g><rect fill="#D3DAE1" height="12.3" width="117.6" x="197.3" y="257.6"/></g></g><g><g><rect fill="#D3DAE1" height="7.4" width="117.6" x="197.3" y="306"/></g></g><g><g><rect fill="#F4F6F8" height="73.7" width="82.7" x="214.8" y="167.7"/></g></g><g><g><rect fill="#D3DAE1" height="7.6" width="82.7" x="214.8" y="226.2"/></g></g><g><g><rect fill="#D3DAE1" height="11.5" width="82.7" x="214.8" y="167.7"/></g></g><g><g><polygon fill="#F4F6F8" points="322.1,241.4 190.1,241.4 197.2,257.6 315,257.6      "/></g></g><g><g><polygon fill="#BCC3CD" points="193.7,249.4 197.2,257.6 315,257.6 318.6,249.4      "/></g></g><g><g><path d="M269,84.3h-23.3V61.2c0-3.9,3.2-7.1,7.1-7.1h9.1c3.9,0,7.1,3.2,7.1,7.1V84.3z" fill="#FFFFFF"/></g></g><g><g><path d="M257.4,54.1c-1.3,0-2.6,0.2-3.8,0.6c4.6,1.6,7.8,5.9,7.8,11v18.5h7.6V65.8       C269,59.3,263.8,54.1,257.4,54.1z" fill="#F4F6F8"/></g></g><g><g><path d="M256.1,81.3L256.1,81.3c-15.3,0-27.8,11.7-29.1,26.6h58.2C283.9,92.9,271.4,81.3,256.1,81.3z" fill="#D3DAE1"/></g></g><g><g><path d="M257.4,81.3L257.4,81.3c-15.3,0-27.8,11.7-29.1,26.6h58.2C285.2,92.9,272.6,81.3,257.4,81.3z" fill="#F59B80"/></g></g><g><g><path d="M276.5,107.9h8.7c-1.3-14.9-13.8-26.6-29.1-26.6h0c-1.6,0-3.2,0.1-4.7,0.4       C264.6,83.7,275,94.5,276.5,107.9z" fill="#F4B7A5"/></g></g><g><g><path d="M227,107.9c-0.1,0.9-0.1,1.7-0.1,2.6v57.3h58.4v-57.3c0-0.9,0-1.7-0.1-2.6H227z" fill="#F4F6F8"/></g></g><g><g><circle cx="256.1" cy="204.4" fill="#B6BEC8" r="16.5"/></g></g><g><g><path d="M256.1,222.1c-9.7,0-17.7-7.9-17.7-17.7c0-9.7,7.9-17.7,17.7-17.7c9.7,0,17.7,7.9,17.7,17.7       C273.8,214.1,265.9,222.1,256.1,222.1z M256.1,189.1c-8.4,0-15.3,6.9-15.3,15.3c0,8.4,6.9,15.3,15.3,15.3       c8.4,0,15.3-6.9,15.3-15.3C271.4,196,264.6,189.1,256.1,189.1z" fill="#B6BEC8"/></g></g><g><g><circle cx="256.1" cy="199.6" fill="#FFFFFF" r="16.5"/></g></g><g><g><rect fill="#9FABB7" height="40.7" width="55.4" x="228.4" y="398.7"/></g></g><g><g><polygon fill="#F4F6F8" points="292.7,392.9 219.6,392.9 223.5,398.7 288.8,398.7      "/></g></g><g><g><path d="M266.9,439.4h-21.6v-46.5c0-3.6,2.9-6.6,6.6-6.6h8.5c3.6,0,6.6,2.9,6.6,6.6V439.4z" fill="#9FABB7"/></g></g><g><g><path d="M263.5,505.2c2.2-0.2,4.3-0.4,6.5-0.6v-46.8h-27.7v44.6c4.8,0.7,9.6,1.6,14.3,2.8H263.5z" fill="#3F5A71"/></g></g><g><g><rect fill="#244A64" height="8.5" width="27.7" x="242.3" y="457.7"/></g></g><g><g><rect fill="#F4F6F8" height="6.9" width="43.5" x="234.4" y="450.8"/></g></g><g><g><polygon fill="#F4F6F8" points="288.8,305.9 256.1,293.5 223.5,305.9      "/></g></g><g><g><path d="M85.7,414.7c1.1,1.9,2.2,3.9,3.3,5.8c0.4,0.7,0.9,1.4,1.4,2c4.1,4.8,7.8,10.1,11.6,15.2       c1.1,1.5,2.2,3.1,3.3,4.6c0.1-0.1,2.7,3,3.2,3.6c3.2,3.4,6.8,6.4,10.3,9.4c0,0,0,0,0.1,0.1c0.7,0.5,1.4,1.1,2.2,1.6       c1.9,1.4,3.8,2.7,5.7,4.1c8,5.6,16.2,10.8,24.9,15.3c2.1,1.1,4.3,2.1,6.5,3.2c0.7,0.3,5.2,2.3,5.4,2.4       c3.7,1.5,7.5,2.9,11.3,4.3c6.1,2.1,12.2,4,18.4,5.9V362.5H82v46.2C83.3,410.7,84.5,412.7,85.7,414.7z" fill="#F4F6F8"/></g></g><g><g><path d="M193.3,492.1V362.5h-9.5v126.6C187,490.1,190.2,491.1,193.3,492.1z" fill="#D0DADD"/></g></g><g><g><polygon fill="#F4B7A5" points="93.9,346 193.3,346 193.3,362.5 82,362.5      "/></g></g><g><g><polygon fill="#F59B80" points="318.7,354.1 318.7,362.5 430,362.5 424,354.1      "/></g></g><g><g><polygon fill="#F59B80" points="88,354.1 82,362.5 193.3,362.5 193.3,354.1      "/></g></g><g><g><polygon fill="#F4F6F8" points="330.7,346 181.5,346 193.3,362.5 318.9,362.5      "/></g></g><g><g><polygon fill="#D3DAE1" points="187.2,353.9 193.3,362.5 318.9,362.5 325.1,353.9      "/></g></g><g><g><circle cx="256.1" cy="326" fill="#FFFFFF" r="10.8"/></g></g><g><g><rect fill="#9FABB7" height="6.6" width="17.8" x="98.6" y="416.2"/></g></g><g><g><rect fill="#9FABB7" height="6.6" width="17.8" x="129.5" y="416.2"/></g></g><g><g><rect fill="#9FABB7" height="6.6" width="17.8" x="160.4" y="416.2"/></g></g><g><g><path d="M163.6,481.9c3.7,1.5,7.5,2.9,11.3,4.3c0.7,0.2,1.4,0.5,2.1,0.7h1.3v-6.6h-17.8v0.2       C161.9,481.2,163.5,481.9,163.6,481.9z" fill="#9FABB7"/></g></g><g><g><rect fill="#9FABB7" height="36.9" width="15.4" x="99.9" y="379.8"/></g></g><g><g><path d="M115.3,417.9H99.9c-0.7,0-1.2-0.5-1.2-1.2v-36.9c0-0.7,0.5-1.2,1.2-1.2h15.4c0.7,0,1.2,0.5,1.2,1.2       v36.9C116.5,417.3,116,417.9,115.3,417.9z M101.1,415.5h13V381h-13V415.5z" fill="#244A64"/></g></g><g><g><g><g><g><path d="M115.3,388.3H99.9c-0.7,0-1.2-0.5-1.2-1.2c0-0.7,0.5-1.2,1.2-1.2h15.4c0.7,0,1.2,0.5,1.2,1.2          C116.5,387.8,116,388.3,115.3,388.3z" fill="#244A64"/></g></g></g><g><g><g><path d="M115.3,395.7H99.9c-0.7,0-1.2-0.5-1.2-1.2c0-0.7,0.5-1.2,1.2-1.2h15.4c0.7,0,1.2,0.5,1.2,1.2          C116.5,395.2,116,395.7,115.3,395.7z" fill="#244A64"/></g></g></g><g><g><g><path d="M115.3,403.1H99.9c-0.7,0-1.2-0.5-1.2-1.2c0-0.7,0.5-1.2,1.2-1.2h15.4c0.7,0,1.2,0.5,1.2,1.2          C116.5,402.6,116,403.1,115.3,403.1z" fill="#244A64"/></g></g></g><g><g><g><path d="M115.3,410.5H99.9c-0.7,0-1.2-0.5-1.2-1.2c0-0.7,0.5-1.2,1.2-1.2h15.4c0.7,0,1.2,0.5,1.2,1.2          C116.5,410,116,410.5,115.3,410.5z" fill="#244A64"/></g></g></g></g><g><g><g><path d="M107.6,417.9c-0.7,0-1.2-0.5-1.2-1.2l0-36.9c0-0.7,0.5-1.2,1.2-1.2c0.7,0,1.2,0.5,1.2,1.2l0,36.9         C108.8,417.3,108.3,417.9,107.6,417.9z" fill="#244A64"/></g></g></g></g><g><g><rect fill="#9FABB7" height="36.9" width="15.4" x="130.8" y="379.8"/></g></g><g><g><path d="M146.2,417.9h-15.4c-0.7,0-1.2-0.5-1.2-1.2v-36.9c0-0.7,0.5-1.2,1.2-1.2h15.4c0.7,0,1.2,0.5,1.2,1.2       v36.9C147.4,417.3,146.9,417.9,146.2,417.9z M132,415.5h13V381h-13V415.5z" fill="#244A64"/></g></g><g><g><g><g><g><path d="M146.2,388.3h-15.4c-0.7,0-1.2-0.5-1.2-1.2c0-0.7,0.5-1.2,1.2-1.2h15.4c0.7,0,1.2,0.5,1.2,1.2          C147.4,387.8,146.9,388.3,146.2,388.3z" fill="#244A64"/></g></g></g><g><g><g><path d="M146.2,395.7h-15.4c-0.7,0-1.2-0.5-1.2-1.2c0-0.7,0.5-1.2,1.2-1.2h15.4c0.7,0,1.2,0.5,1.2,1.2          C147.4,395.2,146.9,395.7,146.2,395.7z" fill="#244A64"/></g></g></g><g><g><g><path d="M146.2,403.1h-15.4c-0.7,0-1.2-0.5-1.2-1.2c0-0.7,0.5-1.2,1.2-1.2h15.4c0.7,0,1.2,0.5,1.2,1.2          C147.4,402.6,146.9,403.1,146.2,403.1z" fill="#244A64"/></g></g></g><g><g><g><path d="M146.2,410.5h-15.4c-0.7,0-1.2-0.5-1.2-1.2c0-0.7,0.5-1.2,1.2-1.2h15.4c0.7,0,1.2,0.5,1.2,1.2          C147.4,410,146.9,410.5,146.2,410.5z" fill="#244A64"/></g></g></g></g><g><g><g><path d="M138.5,417.9c-0.7,0-1.2-0.5-1.2-1.2l0-36.9c0-0.7,0.5-1.2,1.2-1.2c0.7,0,1.2,0.5,1.2,1.2l0,36.9         C139.7,417.3,139.2,417.9,138.5,417.9z" fill="#244A64"/></g></g></g></g><g><g><rect fill="#9FABB7" height="36.9" width="15.4" x="161.7" y="379.8"/></g></g><g><g><path d="M177.1,417.9h-15.4c-0.7,0-1.2-0.5-1.2-1.2v-36.9c0-0.7,0.5-1.2,1.2-1.2h15.4c0.7,0,1.2,0.5,1.2,1.2       v36.9C178.3,417.3,177.8,417.9,177.1,417.9z M162.9,415.5h13V381h-13V415.5z" fill="#244A64"/></g></g><g><g><g><g><g><path d="M177.1,388.3h-15.4c-0.7,0-1.2-0.5-1.2-1.2c0-0.7,0.5-1.2,1.2-1.2h15.4c0.7,0,1.2,0.5,1.2,1.2          C178.3,387.8,177.8,388.3,177.1,388.3z" fill="#244A64"/></g></g></g><g><g><g><path d="M177.1,395.7h-15.4c-0.7,0-1.2-0.5-1.2-1.2c0-0.7,0.5-1.2,1.2-1.2h15.4c0.7,0,1.2,0.5,1.2,1.2          C178.3,395.2,177.8,395.7,177.1,395.7z" fill="#244A64"/></g></g></g><g><g><g><path d="M177.1,403.1h-15.4c-0.7,0-1.2-0.5-1.2-1.2c0-0.7,0.5-1.2,1.2-1.2h15.4c0.7,0,1.2,0.5,1.2,1.2          C178.3,402.6,177.8,403.1,177.1,403.1z" fill="#244A64"/></g></g></g><g><g><g><path d="M177.1,410.5h-15.4c-0.7,0-1.2-0.5-1.2-1.2c0-0.7,0.5-1.2,1.2-1.2h15.4c0.7,0,1.2,0.5,1.2,1.2          C178.3,410,177.8,410.5,177.1,410.5z" fill="#244A64"/></g></g></g></g><g><g><g><path d="M169.4,417.9c-0.7,0-1.2-0.5-1.2-1.2l0-36.9c0-0.7,0.5-1.2,1.2-1.2s1.2,0.5,1.2,1.2l0,36.9         C170.6,417.3,170.1,417.9,169.4,417.9z" fill="#244A64"/></g></g></g></g><g><g><path d="M108.6,446c2.1,2.3,4.4,4.3,6.8,6.3V444h-8.4C107.6,444.8,108.3,445.7,108.6,446z" fill="#9FABB7"/></g></g><g><g><path d="M107.9,445.2h6.2v6c0.8,0.7,1.6,1.4,2.4,2.1V444c0-0.7-0.5-1.2-1.2-1.2h-9.5       C106.4,443.4,107.3,444.5,107.9,445.2z" fill="#244A64"/></g></g><g><g><g><g><g><path d="M115.6,452.5c0.5-0.1,1-0.6,1-1.2c0-0.7-0.5-1.2-1.2-1.2h-2.4C113.8,450.9,114.7,451.7,115.6,452.5z          " fill="#244A64"/></g></g></g></g></g><g><g><path d="M146.2,473.4V444h-15.4v19.8C135.8,467.2,140.9,470.5,146.2,473.4z" fill="#9FABB7"/></g></g><g><g><path d="M132,464.7v-19.4h13v27.5c0.8,0.5,1.6,0.9,2.4,1.3V444c0-0.7-0.5-1.2-1.2-1.2h-15.4       c-0.7,0-1.2,0.5-1.2,1.2v19C130.4,463.6,131.2,464.1,132,464.7z" fill="#244A64"/></g></g><g><g><g><g><g><path d="M146.2,452.6h-15.4c-0.7,0-1.2-0.5-1.2-1.2c0-0.7,0.5-1.2,1.2-1.2h15.4c0.7,0,1.2,0.5,1.2,1.2          C147.4,452,146.9,452.6,146.2,452.6z" fill="#244A64"/></g></g></g><g><g><g><path d="M146.2,460h-15.4c-0.7,0-1.2-0.5-1.2-1.2c0-0.7,0.5-1.2,1.2-1.2h15.4c0.7,0,1.2,0.5,1.2,1.2          C147.4,459.4,146.9,460,146.2,460z" fill="#244A64"/></g></g></g><g><g><g><path d="M136.2,467.4h10.1c0.7,0,1.2-0.5,1.2-1.2c0-0.7-0.5-1.2-1.2-1.2h-13.7          C133.7,465.8,134.9,466.6,136.2,467.4z" fill="#244A64"/></g></g></g></g><g><g><g><path d="M139.7,469.6l0-25.6c0-0.7-0.5-1.2-1.2-1.2c-0.7,0-1.2,0.5-1.2,1.2l0,24.1         C138.1,468.6,138.9,469.1,139.7,469.6z" fill="#244A64"/></g></g></g></g><g><g><rect fill="#9FABB7" height="36.9" width="15.4" x="161.7" y="444"/></g></g><g><g><path d="M163.6,481.9c0.2,0.1,0.3,0.1,0.5,0.2h13c0.7,0,1.2-0.5,1.2-1.2V444c0-0.7-0.5-1.2-1.2-1.2h-15.4       c-0.7,0-1.2,0.5-1.2,1.2v36.5C162,481.2,163.5,481.9,163.6,481.9z M162.9,445.2h13v34.5h-13V445.2z" fill="#244A64"/></g></g><g><g><g><g><g><path d="M177.1,452.6h-15.4c-0.7,0-1.2-0.5-1.2-1.2c0-0.7,0.5-1.2,1.2-1.2h15.4c0.7,0,1.2,0.5,1.2,1.2          C178.3,452,177.8,452.6,177.1,452.6z" fill="#244A64"/></g></g></g><g><g><g><path d="M177.1,460h-15.4c-0.7,0-1.2-0.5-1.2-1.2c0-0.7,0.5-1.2,1.2-1.2h15.4c0.7,0,1.2,0.5,1.2,1.2          C178.3,459.4,177.8,460,177.1,460z" fill="#244A64"/></g></g></g><g><g><g><path d="M177.1,467.4h-15.4c-0.7,0-1.2-0.5-1.2-1.2c0-0.7,0.5-1.2,1.2-1.2h15.4c0.7,0,1.2,0.5,1.2,1.2          C178.3,466.8,177.8,467.4,177.1,467.4z" fill="#244A64"/></g></g></g><g><g><g><path d="M177.1,474.8h-15.4c-0.7,0-1.2-0.5-1.2-1.2c0-0.7,0.5-1.2,1.2-1.2h15.4c0.7,0,1.2,0.5,1.2,1.2          C178.3,474.3,177.8,474.8,177.1,474.8z" fill="#244A64"/></g></g></g></g><g><g><g><path d="M169.4,482.1c-0.7,0-1.2-0.5-1.2-1.2l0-36.9c0-0.7,0.5-1.2,1.2-1.2s1.2,0.5,1.2,1.2l0,36.9         C170.6,481.6,170.1,482.1,169.4,482.1z" fill="#244A64"/></g></g></g></g><g><g><rect fill="#D0DADD" height="10.5" width="24.1" x="243.9" y="281.2"/></g></g><g><g><rect fill="#FFFFFF" height="19.9" width="21.6" x="245.3" y="265.7"/></g></g><g><g><path d="M263.2,200.8h-7c-0.7,0-1.2-0.5-1.2-1.2v-11.7c0-0.7,0.5-1.2,1.2-1.2c0.7,0,1.2,0.5,1.2,1.2v10.5h5.8       c0.7,0,1.2,0.5,1.2,1.2C264.4,200.2,263.8,200.8,263.2,200.8z" fill="#244A64"/></g></g><g><g><path d="M285.2,150.4h-58.2c-0.7,0-1.2-0.5-1.2-1.2s0.5-1.2,1.2-1.2h58.2c0.7,0,1.2,0.5,1.2,1.2       S285.9,150.4,285.2,150.4z" fill="#244A64"/></g></g><g><g><path d="M285.2,156.9h-58.2c-0.7,0-1.2-0.5-1.2-1.2c0-0.7,0.5-1.2,1.2-1.2h58.2c0.7,0,1.2,0.5,1.2,1.2       C286.4,156.4,285.9,156.9,285.2,156.9z" fill="#244A64"/></g></g></g><g><g><g><g><path d="M415.2,348.4h-10.8c-1.3,0-2.4-1.1-2.4-2.4v-34.3c0-1.3,1.1-2.4,2.4-2.4h10.8c1.3,0,2.4,1.1,2.4,2.4        V346C417.6,347.3,416.6,348.4,415.2,348.4z M406.8,343.6h6v-29.5h-6V343.6z" fill="#244A64"/></g></g></g><g><g><g><rect fill="#244A64" height="17.5" width="2.4" x="393.7" y="328.5"/></g></g></g><g><g><g><rect fill="#244A64" height="17.5" width="2.4" x="385" y="328.5"/></g></g></g><g><g><g><rect fill="#244A64" height="17.5" width="2.4" x="376.2" y="328.5"/></g></g></g><g><g><g><rect fill="#244A64" height="17.5" width="2.4" x="367.4" y="328.5"/></g></g></g><g><g><g><rect fill="#244A64" height="17.5" width="2.4" x="358.7" y="328.5"/></g></g></g><g><g><g><rect fill="#244A64" height="17.5" width="2.4" x="349.9" y="328.5"/></g></g></g><g><g><g><rect fill="#244A64" height="17.5" width="2.4" x="341.1" y="328.5"/></g></g></g><g><g><g><rect fill="#244A64" height="17.5" width="2.4" x="332.3" y="328.5"/></g></g></g><g><g><g><path d="M404.4,330h-89.7c-0.7,0-1.2-0.5-1.2-1.2c0-0.7,0.5-1.2,1.2-1.2h89.7c0.7,0,1.2,0.5,1.2,1.2        C405.6,329.5,405.1,330,404.4,330z" fill="#244A64"/></g></g></g><g><g><g><path d="M321.1,493.4V364.9h106.6v49.6c1.6-1.9,3.2-3.7,4.8-5.5v-48.9H316.3v135        C317.9,494.5,319.5,494,321.1,493.4z" fill="#244A64"/></g></g></g><g><g><g><path d="M430,364.9H318.7c-1.3,0-2.4-1.1-2.4-2.4c0-1.3,1.1-2.4,2.4-2.4h106.7l-8.5-11.7h-88.2        c-1.3,0-2.4-1.1-2.4-2.4c0-1.3,1.1-2.4,2.4-2.4h89.4c0.8,0,1.5,0.4,1.9,1l11.9,16.5c0.5,0.7,0.6,1.7,0.2,2.5        C431.8,364.4,430.9,364.9,430,364.9z" fill="#244A64"/></g></g></g><g><g><g><rect fill="#244A64" height="17.5" width="2.4" x="323.6" y="328.5"/></g></g></g><g><g><g><path d="M107.6,348.4H96.8c-1.3,0-2.4-1.1-2.4-2.4v-34.3c0-1.3,1.1-2.4,2.4-2.4h10.8c1.3,0,2.4,1.1,2.4,2.4        V346C110,347.3,108.9,348.4,107.6,348.4z M99.2,343.6h6v-29.5h-6V343.6z" fill="#244A64"/></g></g></g><g><g><g><rect fill="#244A64" height="17.5" width="2.4" x="115.9" y="328.5"/></g></g></g><g><g><g><rect fill="#244A64" height="17.5" width="2.4" x="124.6" y="328.5"/></g></g></g><g><g><g><rect fill="#244A64" height="17.5" width="2.4" x="133.4" y="328.5"/></g></g></g><g><g><g><rect fill="#244A64" height="17.5" width="2.4" x="142.2" y="328.5"/></g></g></g><g><g><g><rect fill="#244A64" height="17.5" width="2.4" x="150.9" y="328.5"/></g></g></g><g><g><g><rect fill="#244A64" height="17.5" width="2.4" x="159.7" y="328.5"/></g></g></g><g><g><g><rect fill="#244A64" height="17.5" width="2.4" x="168.5" y="328.5"/></g></g></g><g><g><g><rect fill="#244A64" height="17.5" width="2.4" x="177.2" y="328.5"/></g></g></g><g><g><g><path d="M197.3,330h-89.7c-0.7,0-1.2-0.5-1.2-1.2c0-0.7,0.5-1.2,1.2-1.2h89.7c0.7,0,1.2,0.5,1.2,1.2        C198.6,329.5,198,330,197.3,330z" fill="#244A64"/></g></g></g><g><g><g><path d="M283.5,502.8h-38.4c4.5,0.7,8.9,1.6,13.3,2.9c6.5-0.6,13.1-1.2,19.6-1.9        C279.9,503.5,281.7,503.1,283.5,502.8z" fill="#244A64"/></g><g><path d="M316.5,495c1.6-0.5,3.2-1.1,4.8-1.7V360.1H190.9v131.2c1.6,0.5,3.2,1,4.8,1.4V364.9h120.8V495z" fill="#244A64"/></g></g></g><g><g><g><path d="M317.3,348.4H194.9v-93.2h122.4V348.4z M199.8,343.6h112.8V260H199.8V343.6z" fill="#244A64"/></g></g></g><g><g><g><path d="M297.5,243.8h-82.7c-1.3,0-2.4-1.1-2.4-2.4v-73.7c0-1.3,1.1-2.4,2.4-2.4h82.7c1.3,0,2.4,1.1,2.4,2.4        v73.7C299.9,242.7,298.8,243.8,297.5,243.8z M217.2,239h77.9v-68.9h-77.9V239z" fill="#244A64"/></g></g></g><g><g><g><path d="M315,260H197.2c-1,0-1.8-0.6-2.2-1.4l-7.1-16.2c-0.3-0.7-0.3-1.6,0.2-2.3c0.4-0.7,1.2-1.1,2-1.1h132        c0.8,0,1.6,0.4,2,1.1s0.5,1.5,0.2,2.3l-7.1,16.2C316.9,259.5,316,260,315,260z M198.8,255.2h114.7l5-11.4H193.8L198.8,255.2z" fill="#244A64"/></g></g></g><g><g><g><path d="M257.4,56.5c-1.3,0-2.4-1.1-2.4-2.4V4.4c0-1.3,1.1-2.4,2.4-2.4c1.3,0,2.4,1.1,2.4,2.4v49.7        C259.8,55.4,258.7,56.5,257.4,56.5z" fill="#244A64"/></g></g></g><g><g><g><path d="M285.2,110.3h-58.2c-0.7,0-1.3-0.3-1.8-0.8c-0.5-0.5-0.7-1.2-0.6-1.8c1.5-16.4,15-28.8,31.5-28.8        c16.5,0,30,12.4,31.5,28.8c0.1,0.7-0.2,1.3-0.6,1.8C286.5,110,285.9,110.3,285.2,110.3z M229.8,105.5h52.7        c-2.3-12.6-13.2-21.8-26.3-21.8C243,83.7,232.1,92.9,229.8,105.5z" fill="#244A64"/></g></g></g><g><g><g><path d="M269,86.7c-0.4,0-0.7-0.1-1.1-0.2c-3.7-1.8-7.7-2.8-11.8-2.8c-3.3,0-6.5,0.6-9.5,1.7        c-0.7,0.3-1.6,0.2-2.2-0.3s-1-1.2-1-2V65.8c0-7.7,6.3-14,14-14c7.7,0,14,6.3,14,14v18.5C271.4,85.6,270.4,86.7,269,86.7z         M256.1,78.9c3.6,0,7.1,0.6,10.5,1.8V65.8c0-5.1-4.1-9.2-9.2-9.2c-5.1,0-9.2,4.1-9.2,9.2v14.1        C250.8,79.2,253.4,78.9,256.1,78.9z" fill="#244A64"/></g></g></g><g><g><g><path d="M285.3,170.1h-58.4c-1.3,0-2.4-1.1-2.4-2.4v-57.3c0-0.9,0-1.8,0.1-2.8c0.1-1.2,1.1-2.2,2.4-2.2h58.2        c1.2,0,2.3,1,2.4,2.2c0.1,1,0.1,1.9,0.1,2.8v57.3C287.7,169.1,286.7,170.1,285.3,170.1z M229.3,165.3h53.6v-54.9        c0-0.1,0-0.1,0-0.2h-53.6c0,0.1,0,0.1,0,0.2V165.3z" fill="#244A64"/></g></g></g><g><g><g><path d="M271.1,142.1c-0.7,0-1.2-0.5-1.2-1.2v-24.6c0-0.7,0.5-1.2,1.2-1.2c0.7,0,1.2,0.5,1.2,1.2v24.6        C272.3,141.6,271.8,142.1,271.1,142.1z" fill="#244A64"/></g></g></g><g><g><g><path d="M256.1,142.1c-0.7,0-1.2-0.5-1.2-1.2v-24.6c0-0.7,0.5-1.2,1.2-1.2c0.7,0,1.2,0.5,1.2,1.2v24.6        C257.3,141.6,256.8,142.1,256.1,142.1z" fill="#244A64"/></g></g></g><g><g><g><path d="M241.1,142.1c-0.7,0-1.2-0.5-1.2-1.2v-24.6c0-0.7,0.5-1.2,1.2-1.2c0.7,0,1.2,0.5,1.2,1.2v24.6        C242.3,141.6,241.8,142.1,241.1,142.1z" fill="#244A64"/></g></g></g><g><g><g><path d="M256.1,217.3c-9.7,0-17.7-7.9-17.7-17.7c0-9.7,7.9-17.7,17.7-17.7c9.7,0,17.7,7.9,17.7,17.7        C273.8,209.3,265.9,217.3,256.1,217.3z M256.1,184.3c-8.4,0-15.3,6.9-15.3,15.3c0,8.4,6.9,15.3,15.3,15.3        c8.4,0,15.3-6.9,15.3-15.3C271.4,191.2,264.6,184.3,256.1,184.3z" fill="#244A64"/></g></g></g><g><g><g><path d="M297.5,227.4h-82.7c-0.7,0-1.2-0.5-1.2-1.2c0-0.7,0.5-1.2,1.2-1.2h82.7c0.7,0,1.2,0.5,1.2,1.2        C298.7,226.8,298.2,227.4,297.5,227.4z" fill="#244A64"/></g></g></g><g><g><g><path d="M266.9,286.8h-21.6c-0.7,0-1.2-0.5-1.2-1.2v-19.9c0-0.7,0.5-1.2,1.2-1.2h21.6c0.7,0,1.2,0.5,1.2,1.2        v19.9C268.1,286.3,267.6,286.8,266.9,286.8z M246.5,284.4h19.2v-17.5h-19.2V284.4z" fill="#244A64"/></g></g></g><g><g><g><path d="M243.5,458.9h25.3V504h-17.3c2.3,0.5,4.6,1.1,6.8,1.7c4.3-0.4,8.6-0.8,12.8-1.2v-46.7        c0-0.7-0.5-1.2-1.2-1.2h-27.7c-0.7,0-1.2,0.5-1.2,1.2v44.4c0.8,0.1,1.6,0.2,2.4,0.4V458.9z" fill="#244A64"/></g></g></g><g><g><g><path d="M277.9,458.9h-43.5c-0.7,0-1.2-0.5-1.2-1.2v-6.9c0-0.7,0.5-1.2,1.2-1.2h43.5c0.7,0,1.2,0.5,1.2,1.2        v6.9C279.1,458.4,278.6,458.9,277.9,458.9z M235.6,456.5h41.1V452h-41.1V456.5z" fill="#244A64"/></g></g></g><g><g><g><path d="M288.8,307.1h-65.3c-0.6,0-1.1-0.4-1.2-1c-0.1-0.6,0.2-1.1,0.8-1.3l32.7-12.5c0.3-0.1,0.6-0.1,0.9,0        l32.7,12.5c0.5,0.2,0.9,0.8,0.8,1.3C289.9,306.7,289.4,307.1,288.8,307.1z M230,304.7h52.3l-26.2-10L230,304.7z" fill="#244A64"/></g></g></g><g><g><g><g><path d="M226,347.2c-0.7,0-1.2-0.5-1.2-1.2v-88.4c0-0.7,0.5-1.2,1.2-1.2c0.7,0,1.2,0.5,1.2,1.2V346         C227.2,346.6,226.6,347.2,226,347.2z" fill="#244A64"/></g></g></g><g><g><g><path d="M286.3,347.2c-0.7,0-1.2-0.5-1.2-1.2v-88.4c0-0.7,0.5-1.2,1.2-1.2c0.7,0,1.2,0.5,1.2,1.2V346         C287.5,346.6,287,347.2,286.3,347.2z" fill="#244A64"/></g></g></g></g><g><g><g><path d="M314.9,307.1H197.3c-0.7,0-1.2-0.5-1.2-1.2c0-0.7,0.5-1.2,1.2-1.2h117.6c0.7,0,1.2,0.5,1.2,1.2        C316.1,306.6,315.6,307.1,314.9,307.1z" fill="#244A64"/></g></g></g><g><g><g><path d="M197.3,243.8c-1.3,0-2.4-1.1-2.4-2.4v-20.6c0-1.3,1.1-2.4,2.4-2.4c1.3,0,2.4,1.1,2.4,2.4v20.6        C199.8,242.7,198.7,243.8,197.3,243.8z" fill="#244A64"/></g></g></g><g><g><g><path d="M312.4,243.8c-1.3,0-2.4-1.1-2.4-2.4v-20.6c0-1.3,1.1-2.4,2.4-2.4s2.4,1.1,2.4,2.4v20.6        C314.8,242.7,313.7,243.8,312.4,243.8z" fill="#244A64"/></g></g></g><g><g><g><path d="M297.5,170.1c-1.3,0-2.4-1.1-2.4-2.4v-20.6c0-1.3,1.1-2.4,2.4-2.4s2.4,1.1,2.4,2.4v20.6        C299.9,169.1,298.8,170.1,297.5,170.1z" fill="#244A64"/></g></g></g><g><g><g><path d="M214.8,170.1c-1.3,0-2.4-1.1-2.4-2.4v-20.6c0-1.3,1.1-2.4,2.4-2.4c1.3,0,2.4,1.1,2.4,2.4v20.6        C217.2,169.1,216.1,170.1,214.8,170.1z" fill="#244A64"/></g></g></g><g><g><g><g><path d="M84.4,412.5v-47.6h106.6v126.4c1.6,0.5,3.2,1,4.8,1.4V360.1H79.6v45.3         C81.3,407.7,82.9,410,84.4,412.5z" fill="#244A64"/></g></g></g></g><g><g><g><path d="M193.3,364.9H82c-0.9,0-1.7-0.5-2.1-1.3c-0.4-0.8-0.3-1.8,0.2-2.5l11.9-16.5c0.5-0.6,1.2-1,1.9-1h87.6        c1.3,0,2.4,1.1,2.4,2.4c0,1.3-1.1,2.4-2.4,2.4H95.1l-8.5,11.7h106.7c1.3,0,2.4,1.1,2.4,2.4        C195.7,363.8,194.7,364.9,193.3,364.9z" fill="#244A64"/></g></g></g><g><g><g><rect fill="#244A64" height="17.5" width="2.4" x="186" y="328.5"/></g></g></g><g><g><g><path d="M318.9,364.9H193.3c-0.8,0-1.5-0.4-2-1l-11.8-16.5c-0.5-0.7-0.6-1.7-0.2-2.5c0.4-0.8,1.2-1.3,2.1-1.3        h149.2c0.9,0,1.7,0.5,2.1,1.3c0.4,0.8,0.3,1.8-0.2,2.5l-11.8,16.5C320.4,364.5,319.7,364.9,318.9,364.9z M194.6,360.1h123.1        l8.4-11.7H186.2L194.6,360.1z" fill="#244A64"/></g></g></g><g><g><g><path d="M256.1,338c-6.6,0-12-5.4-12-12s5.4-12,12-12c6.6,0,12,5.4,12,12S262.8,338,256.1,338z M256.1,316.4        c-5.3,0-9.6,4.3-9.6,9.6s4.3,9.6,9.6,9.6c5.3,0,9.6-4.3,9.6-9.6S261.4,316.4,256.1,316.4z" fill="#244A64"/></g></g></g><g><g><g><path d="M283.8,440.6h-55.4c-0.7,0-1.2-0.5-1.2-1.2v-40.7c0-0.7,0.5-1.2,1.2-1.2h55.4c0.7,0,1.2,0.5,1.2,1.2        v40.7C285,440,284.5,440.6,283.8,440.6z M229.6,438.2h53v-38.3h-53V438.2z" fill="#244A64"/></g></g></g><g><g><g><path d="M288.8,399.9h-65.3c-0.4,0-0.8-0.2-1-0.5l-3.9-5.8c-0.2-0.4-0.3-0.8-0.1-1.2c0.2-0.4,0.6-0.6,1.1-0.6        h73.1c0.4,0,0.9,0.2,1.1,0.6s0.2,0.9-0.1,1.2l-3.9,5.8C289.5,399.7,289.2,399.9,288.8,399.9z M224.1,397.5h64l2.3-3.4h-68.6        L224.1,397.5z" fill="#244A64"/></g></g></g><g><g><g><path d="M266.9,440.6h-21.6c-0.7,0-1.2-0.5-1.2-1.2v-42.3c0-6.6,5.4-12,12-12c6.6,0,12,5.4,12,12v42.3        C268.1,440,267.6,440.6,266.9,440.6z M246.5,438.2h19.2v-41.1c0-5.3-4.3-9.6-9.6-9.6c-5.3,0-9.6,4.3-9.6,9.6V438.2z" fill="#244A64"/></g></g></g><g><g><g><g><line fill="#9FABB7" x1="228.5" x2="283.8" y1="405.3" y2="405.3"/></g></g><g><g><path d="M283.8,406.5h-55.3c-0.7,0-1.2-0.5-1.2-1.2c0-0.7,0.5-1.2,1.2-1.2h55.3c0.7,0,1.2,0.5,1.2,1.2         C285,406,284.5,406.5,283.8,406.5z" fill="#244A64"/></g></g></g><g><g><g><line fill="#9FABB7" x1="228.5" x2="283.8" y1="412.2" y2="412.2"/></g></g><g><g><path d="M283.8,413.4h-55.3c-0.7,0-1.2-0.5-1.2-1.2s0.5-1.2,1.2-1.2h55.3c0.7,0,1.2,0.5,1.2,1.2         S284.5,413.4,283.8,413.4z" fill="#244A64"/></g></g></g><g><g><g><line fill="#9FABB7" x1="228.5" x2="283.8" y1="419" y2="419"/></g></g><g><g><path d="M283.8,420.2h-55.3c-0.7,0-1.2-0.5-1.2-1.2c0-0.7,0.5-1.2,1.2-1.2h55.3c0.7,0,1.2,0.5,1.2,1.2         C285,419.7,284.5,420.2,283.8,420.2z" fill="#244A64"/></g></g></g><g><g><g><line fill="#9FABB7" x1="228.5" x2="283.8" y1="425.9" y2="425.9"/></g></g><g><g><path d="M283.8,427.1h-55.3c-0.7,0-1.2-0.5-1.2-1.2c0-0.7,0.5-1.2,1.2-1.2h55.3c0.7,0,1.2,0.5,1.2,1.2         C285,426.6,284.5,427.1,283.8,427.1z" fill="#244A64"/></g></g></g><g><g><g><line fill="#9FABB7" x1="228.5" x2="283.8" y1="432.8" y2="432.8"/></g></g><g><g><path d="M283.8,434h-55.3c-0.7,0-1.2-0.5-1.2-1.2c0-0.7,0.5-1.2,1.2-1.2h55.3c0.7,0,1.2,0.5,1.2,1.2         C285,433.5,284.5,434,283.8,434z" fill="#244A64"/></g></g></g></g><g><g><g><line fill="#9FABB7" x1="236.5" x2="236.5" y1="398.7" y2="439.4"/></g></g><g><g><path d="M236.5,440.6c-0.7,0-1.2-0.5-1.2-1.2v-40.6c0-0.7,0.5-1.2,1.2-1.2c0.7,0,1.2,0.5,1.2,1.2v40.6        C237.7,440,237.2,440.6,236.5,440.6z" fill="#244A64"/></g></g></g><g><g><g><line fill="#9FABB7" x1="275.4" x2="275.4" y1="398.7" y2="439.4"/></g></g><g><g><path d="M275.4,440.6c-0.7,0-1.2-0.5-1.2-1.2v-40.6c0-0.7,0.5-1.2,1.2-1.2c0.7,0,1.2,0.5,1.2,1.2v40.6        C276.6,440,276,440.6,275.4,440.6z" fill="#244A64"/></g></g></g><g><g><g><line fill="#9FABB7" x1="256.1" x2="256.1" y1="386.3" y2="439.4"/></g></g><g><g><path d="M256.1,440.6c-0.7,0-1.2-0.5-1.2-1.2v-53.1c0-0.7,0.5-1.2,1.2-1.2c0.7,0,1.2,0.5,1.2,1.2v53.1        C257.3,440,256.8,440.6,256.1,440.6z" fill="#244A64"/></g></g></g><g><g><g><line fill="#9FABB7" x1="245.3" x2="266.9" y1="398.7" y2="398.7"/></g></g><g><g><path d="M266.9,399.9h-21.6c-0.7,0-1.2-0.5-1.2-1.2c0-0.7,0.5-1.2,1.2-1.2h21.6c0.7,0,1.2,0.5,1.2,1.2        C268.1,399.4,267.6,399.9,266.9,399.9z" fill="#244A64"/></g></g></g><g><g><g><line fill="#9FABB7" x1="245.3" x2="266.9" y1="392.7" y2="392.7"/></g></g><g><g><path d="M266.9,393.9h-21.6c-0.7,0-1.2-0.5-1.2-1.2c0-0.7,0.5-1.2,1.2-1.2h21.6c0.7,0,1.2,0.5,1.2,1.2        C268.1,393.4,267.6,393.9,266.9,393.9z" fill="#244A64"/></g></g></g></g></g><g><path d="M359.7,150.4h-37.4c-1.3,0-2.4-1.1-2.4-2.4c0-1.3,1.1-2.4,2.4-2.4h37.4c1.3,0,2.4,1.1,2.4,2.4    C362.1,149.3,361,150.4,359.7,150.4z" fill="#FFFFFF"/></g><g><path d="M84.9,283.6H47.5c-1.3,0-2.4-1.1-2.4-2.4s1.1-2.4,2.4-2.4h37.4c1.3,0,2.4,1.1,2.4,2.4    S86.2,283.6,84.9,283.6z" fill="#FFFFFF"/></g><g><path d="M160.9,255.9h-37.4c-1.3,0-2.4-1.1-2.4-2.4c0-1.3,1.1-2.4,2.4-2.4h37.4c1.3,0,2.4,1.1,2.4,2.4    C163.3,254.9,162.2,255.9,160.9,255.9z" fill="#FFFFFF"/></g><g><path d="M186.9,175.9h-37.4c-1.3,0-2.4-1.1-2.4-2.4c0-1.3,1.1-2.4,2.4-2.4h37.4c1.3,0,2.4,1.1,2.4,2.4    C189.3,174.8,188.3,175.9,186.9,175.9z" fill="#FFFFFF"/></g><g><path d="M441.8,251.8h-37.4c-1.3,0-2.4-1.1-2.4-2.4c0-1.3,1.1-2.4,2.4-2.4h37.4c1.3,0,2.4,1.1,2.4,2.4    C444.2,250.8,443.2,251.8,441.8,251.8z" fill="#FFFFFF"/></g><path d="M432.7,182.1c-2.6-4.4-4.5-9.2-6.7-13.7c-1-2.1-2.2-4.1-3.4-6.1c-0.1-0.1-0.2-0.2-0.3-0.3   c0-0.1,0-0.1-0.1-0.2c0,0,0,0,0,0c-0.3-0.2-0.5-0.4-0.7-0.5c-0.7-0.5-1.5-1.1-2.1-1.7c-3.5-1.2-7.2-1.8-11-1.8   c-17.5,0-31.9,13-34.3,29.8c0,0,0,0,0,0c-10.5,0-19.1,8.2-19.7,18.6h91C441.5,198,437.3,190,432.7,182.1z" fill="#FFFFFF"/><path d="M179.5,230.2c-1.1-3.1-4.1-5.4-7.6-5.4c-0.6,0-1.2,0.1-1.8,0.2c0-0.1,0-0.1,0-0.2   c0-10.3-8.3-18.6-18.6-18.6c-2.8,0-5.5,0.6-7.9,1.8c-4-5.2-10.3-8.5-17.3-8.5c-11.1,0-20.3,8.2-21.7,18.9l0,0   c-6.7,0-12.1,5.2-12.5,11.8H179.5z" fill="#FFFFFF"/><path d="M398,279.1c-0.4-8.7-7.5-15.6-16.2-15.6c-6.2,0-11.5,3.4-14.3,8.5c-1.3-0.7-2.7-1.1-4.3-1.1   c-4.7,0-8.5,3.6-8.8,8.2H398z" fill="#FFFFFF"/><g><path d="M269.9,79c0.2,1.1,0.1,2.1-0.2,3.2c-0.4,1.2-0.5,1.4,0.3,2.5c0.3,0.4,0.5,0.7,0.8,1    c1.6,0.7,3.2,1.4,4.8,2.2c0.7,0.4,1.4,0.9,1.9,1.4c103.6,10.8,184.7,98.5,184.7,205c0,113.6-92.5,206.1-206.1,206.1    c-113.6,0-206.1-92.5-206.1-206.1c0-106.8,81.6-194.8,185.7-205.1c0.1-0.2,0.3-0.4,0.4-0.5c2.2-2.4,4.7-4.3,6.9-6.6    c0.4-0.4,0.7-0.8,1.1-1.2c-0.2,0.1-0.3,0.2-0.5,0.3c0.2-0.7,0.3-1.4,0.5-2.1c0,0,0-0.1,0-0.1C130.6,85.2,40.3,179.4,40.3,294.3    C40.3,413.2,137.1,510,256,510c118.9,0,215.7-96.8,215.7-215.7C471.7,180,382.4,86.2,269.9,79z" fill="#244A64"/></g></g></svg>