<?xml version="1.0" ?><svg viewBox="0 0 512 512" xmlns="http://www.w3.org/2000/svg" xmlns:xlink="http://www.w3.org/1999/xlink"><defs><linearGradient gradientTransform="matrix(-1, 0, 0, 1, -2920, 0)" gradientUnits="userSpaceOnUse" id="linear-gradient" x1="-3176" x2="-3176" y1="-7.2351" y2="395.3536"><stop offset="0" stop-color="#99bcff"/><stop offset="0.4318" stop-color="#f3ca72"/><stop offset="1" stop-color="#faff8a"/></linearGradient><linearGradient gradientUnits="userSpaceOnUse" id="linear-gradient-2" x1="418.3972" x2="418.3972" y1="145" y2="346.0224"><stop offset="0.2553" stop-color="#fff"/><stop offset="1" stop-color="#ffa647"/></linearGradient><linearGradient gradientTransform="matrix(-1, 0, 0, 1, -2920, 0)" id="linear-gradient-3" x1="-3047.1034" x2="-3047.1034" xlink:href="#linear-gradient-2" y1="112.0593" y2="358.717"/><linearGradient gradientTransform="matrix(1, 0, 0, 1, 0, 0)" id="linear-gradient-4" x1="256" x2="256" xlink:href="#linear-gradient" y1="525.103" y2="305.6281"/><linearGradient gradientTransform="matrix(1, 0, 0, -1, 0, 446.5)" gradientUnits="userSpaceOnUse" id="linear-gradient-5" x1="543.12" x2="-2.2149" y1="62.0018" y2="62.0018"><stop offset="0" stop-color="#9ca6a3"/><stop offset="0.4408" stop-color="#ffbc7d"/><stop offset="0.4984" stop-color="#efb883"/><stop offset="0.6438" stop-color="#cbb091"/><stop offset="0.7803" stop-color="#b1ab9b"/><stop offset="0.903" stop-color="#a1a7a1"/><stop offset="1" stop-color="#9ca6a3"/></linearGradient><linearGradient id="linear-gradient-6" x1="543.12" x2="-2.2149" xlink:href="#linear-gradient-5" y1="55.75" y2="55.75"/><linearGradient gradientUnits="userSpaceOnUse" id="linear-gradient-7" x1="543.12" x2="-2.2149" y1="191.5" y2="191.5"><stop offset="0" stop-color="#679ea6"/><stop offset="0.4408" stop-color="#ffae2c"/><stop offset="0.4939" stop-color="#e8ac3f"/><stop offset="0.612" stop-color="#baa763"/><stop offset="0.7251" stop-color="#96a380"/><stop offset="0.8304" stop-color="#7ca095"/><stop offset="0.9251" stop-color="#6c9fa2"/><stop offset="1" stop-color="#679ea6"/></linearGradient></defs><title/><g id="San_Diego"><g data-name="Layer 22" id="Layer_22"><circle cx="256" cy="256" r="256" style="fill:url(#linear-gradient)"/><path d="M489.3918,150.6605a51.0318,51.0318,0,0,0-7.486,38.94,51.003,51.003,0,0,0-80.4532,53.3307A50.993,50.993,0,0,0,348,329.7512V359h81v12h55.7612a256.5371,256.5371,0,0,0,4.6306-220.3395Z" style="fill:url(#linear-gradient-2)"/><path d="M150,319h81V289.751a50.9929,50.9929,0,0,0-53.4529-86.82A50.9946,50.9946,0,0,0,97.095,149.6,51.0119,51.0119,0,0,0,61.1713,89.9514,256.3371,256.3371,0,0,0,11.1741,331H150Z" style="fill:url(#linear-gradient-3)"/><circle cx="300" cy="203" r="40" style="fill:#fffddb"/><path d="M508.3853,299H3.6147C24.0662,419.904,129.2628,511.9928,255.9856,512h.0288C382.7373,511.9928,487.9338,419.904,508.3853,299Z" style="fill:url(#linear-gradient-4)"/><path d="M480,389v-9.0037q-2.5272,4.5558-5.2212,9.0037Z" style="fill:url(#linear-gradient-5)"/><path d="M492,310v42h1.3721a254.13,254.13,0,0,0,15.3447-55H3.2833A254.7508,254.7508,0,0,0,53,411.9625V349H63.999v43H91V319h14V444h44V337h19V460.5l21,24L211,461V332h16v23h29V321h21V307h44v14h51V436.5l21,21,21-21V320h14v69h46.7788q2.7048-4.44,5.2212-9.0037V310Z" style="fill:url(#linear-gradient-6)"/><path d="M207.6592,35.708C232.7217,43.1455,239.1,51.084,239,51c9.1308-7.2983,21.687-11.8838,32.84-13.8095-13.6045,5.9033-24.789,16.4174-29.251,22.792l0,.0009c-7.05,6.2432-9.0865-4.8818-12.6006-7.26C222.2778,43.76,207.6592,35.708,207.6592,35.708Z" style="fill:#fff"/><path d="M345.6592,93.708C370.7217,101.1455,377.1,109.084,377,109c9.1308-7.2983,21.687-11.8838,32.84-13.8095-13.6045,5.9033-24.789,16.4174-29.2509,22.792l-.0005.0009c-7.05,6.2432-9.0865-4.8818-12.6006-7.26C360.2778,101.76,345.6592,93.708,345.6592,93.708Z" style="fill:#fff"/><path d="M510.96,233H492v42H480V196H428v69H414V144l-21-21-21,21V265H321v14H277V265H256V230H227v23H211V118.5L189,95l-21,24V248H149V162H105V266H91V193H63.999v43H53V170l-38.4932.8952Q12.0614,177.8341,10,184.9472V236H.7734Q.0082,245.9,0,256a258.5037,258.5037,0,0,0,1.9875,32h508.025A258.5037,258.5037,0,0,0,512,256C512,248.246,511.6353,240.5784,510.96,233Z" style="fill:url(#linear-gradient-7)"/><path d="M217,364l264.5288,13.2159Q485.0276,370.72,488.15,364Z" style="fill:#fffddb"/><path d="M52.2621,411q5.7812,7.5874,12.1048,14.72L359,411Z" style="fill:#fffddb"/><path d="M1.8733,287q.791,6.5522,1.9071,13H508.22q1.1166-6.4463,1.907-13Z" style="fill:#fffddb"/><path d="M169,416l-9.7706-10.4685A2.6936,2.6936,0,0,0,161.1986,401H183V343.0761a3.689,3.689,0,0,1,6.9612-1.7033L221,401h19.24a2.024,2.024,0,0,1,1.3566,3.5259L230,415Z" style="fill:#fffddb"/></g></g></svg>