<?xml version="1.0" ?><!DOCTYPE svg  PUBLIC '-//W3C//DTD SVG 1.1//EN'  'http://www.w3.org/Graphics/SVG/1.1/DTD/svg11.dtd'><svg enable-background="new 0 0 512 512" id="Layer_1" version="1.1" viewBox="0 0 512 512" xml:space="preserve" xmlns="http://www.w3.org/2000/svg" xmlns:xlink="http://www.w3.org/1999/xlink"><g><g><g><circle cx="256" cy="280.1" fill="#D0E5F6" r="223.5"/></g></g><g><path d="M46.6,196.1h4.6c3.1-4.1,4.9-9.1,4.9-14.6c0-0.2,0-0.3,0-0.5C53.3,186.2,50.2,191.3,46.6,196.1z" fill="#F5F7F9"/><path d="M82.4,134.8C74.5,144,68.7,156,63,167.6c-4.8,9.9-9.8,19.7-16.3,28.5h69.3c3.6-6.1,5.6-13.1,5.6-20.6    C121.6,153.5,104.2,135.6,82.4,134.8z" fill="#F5F7F9"/><path d="M143.5,196.1c1.4-2.6,2.2-5.6,2.2-8.8c0-10.1-8.2-18.4-18.4-18.4c-10.1,0-18.4,8.2-18.4,18.4    c0,3.2,0.8,6.2,2.2,8.8H143.5z" fill="#F5F7F9"/></g><g><path d="M294.9,183.9c2.7-3.5,4.3-7.9,4.3-12.6c0-11.5-9.3-20.9-20.9-20.9c-11.5,0-20.9,9.3-20.9,20.9    c0,4.7,1.6,9.1,4.3,12.6H294.9z" fill="#F5F7F9"/><path d="M350.9,183.9c3.1-5.2,4.9-11.3,4.9-17.8c0-19.5-15.8-35.2-35.2-35.2c-19.5,0-35.2,15.8-35.2,35.2    c0,6.5,1.8,12.6,4.9,17.8H350.9z" fill="#F5F7F9"/><path d="M374.6,183.9c1.2-2.3,1.9-4.9,1.9-7.6c0-8.8-7.1-15.9-15.9-15.9c-8.8,0-15.9,7.1-15.9,15.9    c0,2.8,0.7,5.4,1.9,7.6H374.6z" fill="#F5F7F9"/></g><g><path d="M426.8,295.8c1.7-2.3,2.8-5.1,2.8-8.1c0-7.4-6-13.5-13.5-13.5s-13.5,6-13.5,13.5c0,3.1,1,5.9,2.8,8.1    H426.8z" fill="#F5F7F9"/><path d="M463,295.8c2-3.4,3.1-7.3,3.1-11.5c0-12.6-10.2-22.7-22.7-22.7s-22.7,10.2-22.7,22.7    c0,4.2,1.1,8.1,3.1,11.5H463z" fill="#F5F7F9"/><path d="M478.3,295.8c0.8-1.5,1.3-3.1,1.3-4.9c0-5.7-4.6-10.2-10.2-10.2c-5.7,0-10.2,4.6-10.2,10.2    c0,1.8,0.5,3.5,1.3,4.9H478.3z" fill="#F5F7F9"/></g><g><path d="M117.2,336.6c1.1-1.5,1.8-3.4,1.8-5.4c0-5-4-9-9-9c-5,0-9,4-9,9c0,2,0.7,3.9,1.8,5.4H117.2z" fill="#F5F7F9"/><path d="M141.3,336.6c1.3-2.3,2.1-4.9,2.1-7.7c0-8.4-6.8-15.2-15.2-15.2s-15.2,6.8-15.2,15.2    c0,2.8,0.8,5.4,2.1,7.7H141.3z" fill="#F5F7F9"/><path d="M151.5,336.6c0.5-1,0.8-2.1,0.8-3.3c0-3.8-3.1-6.8-6.8-6.8c-3.8,0-6.8,3.1-6.8,6.8c0,1.2,0.3,2.3,0.8,3.3    H151.5z" fill="#F5F7F9"/></g><path d="M76.8,407.7c2,1.4,4,3.1,6.4,3.4c5.6,0.7,9.3-5.9,14.7-7.5c5.6-1.7,11.1,2.3,16.9,3.1   c5.4,0.7,10.7-1.3,16-2.1c8.2-1.2,16.8,0.6,23.8,5c3.2,2,6.4,4.7,10.2,4.8c2.4,0.1,4.7-0.8,7.1-0.8c5.4,0.1,9.5,4.6,13.4,8.3   c8.3,8,19,13.5,30.3,15.7c1.2,0.2,2.4,0.4,3.5,0.1c1.8-0.5,2.9-2.1,4.1-3.5c5-5.7,12.9-8.6,20.4-7.6c8.9,1.3,16.4,7.6,25.2,9.1   c9.1,1.5,18.5-2.6,25.1-9.2c1.4-1.4,2.9-3.1,4.8-3.7c3.3-1,6.6,1.3,10,1.5c6.3,0.3,10.6-6.2,16.2-9c8.7-4.3,21.3,0.1,27.7-7.3   c2-2.3,3-5.6,5.4-7.5c5.5-4.3,13.3,0.8,20.2,0.4c4.6-0.3,8.7-3,13.1-4.6c16-5.8,34.9,4.2,50.2-3.1c2.4,3.3,0.3,7.9-2,11.4   c-13.5,20.4-32,36.8-50.2,53.1c-10.7,9.5-21.6,19.2-34.4,25.6c-18.7,9.5-40.2,11.5-61.1,13.4c-12.8,1.1-25.6,2.3-38.3,3.4   c-13.8,1.2-27.8,2.5-41.5,0c-11.9-2.1-23.1-7-34.2-11.9C141.7,470.9,103,450.1,78.3,416L76.8,407.7z" fill="#BAD9DD"/><g><path d="M280.7,398.1v-35.9l-1.3-4.9v-29l-1.6-5.6v-34.8c0-0.6-0.5-1.1-1.1-1.1h-6.7c-0.6,0-1.1,0.5-1.1,1.1v34.8    v33.9v40.7v52.8h8.9h1.6h1.3h1.9v-47.2L280.7,398.1z" fill="#EC5844"/></g><g opacity="0.5"><g><path d="M281.4,399.7h-9v-35.2h8.4v-2.3l-0.6-2.3h-8v-28.6h7.3v-3l-1-3.5h-6.1v-35h5.5v-1.9     c0-0.6-0.5-1.1-1.1-1.1h-6.7c-0.6,0-1.1,0.5-1.1,1.1v162.1h4v-44h9.6v-3.1L281.4,399.7z" fill="#A43D2D"/></g></g><g><path d="M243,290v10.1v0.1v4.9c0,0,0.4-4.2,6-4.2l1.6-0.7h10.8l1.6,0.7c5.6,0,6,4.2,6,4.2v-4.9v-0.1V290H243z" fill="#EB5743"/></g><g><path d="M243,398.5v12.7v7.5c0,0,0.4-6.3,6-6.3l1.9-1.2h10.2l1.9,1.2c5.6,0,6,6.3,6,6.3v-7.5v-12.7H243z" fill="#EB5743"/></g><g><path d="M243,322.7v9.7v0.5v5.3c0,0,0.4-4.9,6-4.9l0.9-0.4h12.2l0.9,0.4c5.6,0,6,4.9,6,4.9v-5.3v-0.5v-9.7H243z" fill="#EB5743"/></g><g><path d="M243,356.6v9.8v0.4v5.9c0,0,0.4-5.3,6-5.3l1.1-0.6h11.7l1.1,0.6c5.6,0,6,5.3,6,5.3v-5.9v-0.4v-9.8H243z" fill="#EB5743"/></g><g opacity="0.5"><g><rect fill="#A43D2D" height="2.1" width="26" x="243" y="290"/></g></g><g opacity="0.5"><g><rect fill="#A43D2D" height="2.9" width="26" x="243" y="398.5"/></g></g><g opacity="0.5"><g><rect fill="#A43D2D" height="2.5" width="26" x="243" y="322.7"/></g></g><g opacity="0.5"><g><rect fill="#A43D2D" height="1.8" width="26" x="243" y="356.6"/></g></g><g><path d="M248.5,290H243v15.1c0,0,0.4-4,5.5-4.2V290z" fill="#A43D2D"/></g><g><path d="M248.5,398.5H243v20.2c0,0,0.4-5.9,5.5-6.3V398.5z" fill="#A43D2D"/></g><g><path d="M248.5,322.7H243v15.6c0,0,0.4-4.6,5.5-4.9V322.7z" fill="#A43D2D"/></g><g><path d="M248.5,356.6H243v16.1c0,0,0.4-5,5.5-5.3V356.6z" fill="#A43D2D"/></g><g><path d="M241.9,286.8h-6.7c-0.6,0-1.1,0.5-1.1,1.1v34.8l-1.6,5.6v29l-1.3,4.9v35.9l-1.9,4.9v47.2h1.9h1.3h1.6h8.9    v-52.8v-40.7v-33.9v-34.8C243,287.3,242.5,286.8,241.9,286.8z" fill="#EC5844"/></g><g opacity="0.5"><g><path d="M243,332.9v-7.5h-5.4v-35.5h5.4v-1.9c0-0.6-0.5-1.1-1.1-1.1h-6.7c-0.6,0-1.1,0.5-1.1,1.1v34.8l-1.6,5.6     v29l-1.3,4.9v35.9l-1.9,4.9v47.2h4v-43.2h9.6v-6.6h-8.4v-34.9h8.4v-6.3h-6.9v-26.3H243z" fill="#A43D2D"/></g></g><g><polygon fill="#F1685A" points="231.3,397.9 231.3,398.1 229.4,402.9 229.4,403.1 243,403.1 243,397.9   "/></g><g><polygon fill="#F1685A" points="234.1,322.4 234.1,322.7 232.6,328.3 232.6,328.8 243,328.8 243,322.4   "/></g><g><polygon fill="#F1685A" points="232.6,357.3 232.6,357.3 231.4,361.9 243,361.9 243,357.3   "/></g><g><polygon fill="#F3827C" points="234.2,400.4 243,400.4 243,397.9 231.3,397.9 231.3,398.1 229.4,402.9 229.4,403.1 234.2,403.1       "/></g><g><polygon fill="#F3827C" points="236.5,325.2 243,325.2 243,322.4 234.1,322.4 234.1,322.7 232.6,328.3 232.6,328.8 236.5,328.8       "/></g><g><polygon fill="#F3827C" points="235.6,359.2 243,359.2 243,357.3 232.6,357.3 232.6,357.3 231.4,361.9 235.6,361.9   "/></g><g><polygon fill="#F1685A" points="277.9,322.7 277.9,322.5 269,322.5 269,328.6 279.4,328.6 279.4,328.3   "/></g><g><polygon fill="#F1685A" points="279.4,357.2 269,357.2 269,361.9 280.6,361.9 279.4,357.3   "/></g><g><polygon fill="#F1685A" points="280.7,398.1 269,398.1 269,403.4 282.6,403.4 282.6,402.9   "/></g><g><polygon fill="#F3827C" points="272.2,325.2 278.6,325.2 277.9,322.7 277.9,322.5 269,322.5 269,328.6 272.2,328.6   "/></g><g><polygon fill="#F3827C" points="272.4,359 279.9,359 279.4,357.3 279.4,357.2 269,357.2 269,361.9 272.4,361.9   "/></g><g><polygon fill="#F3827C" points="272.9,400.1 281.5,400.1 280.7,398.1 269,398.1 269,403.4 272.9,403.4   "/></g><g><g><g><path d="M239.5,281.1h-1.8c-0.9,0-1.7,0.8-1.7,1.7v4h5.3v-4C241.2,281.9,240.4,281.1,239.5,281.1z" fill="#F1685A"/></g></g><g><g><path d="M274.3,281.1h-1.8c-0.9,0-1.7,0.8-1.7,1.7v4h5.3v-4C276.1,281.9,275.3,281.1,274.3,281.1z" fill="#F1685A"/></g></g></g><g><g><g><path d="M238.1,283.4h3.1v-0.6c0-0.9-0.8-1.7-1.7-1.7h-1.8c-0.9,0-1.7,0.8-1.7,1.7v4h2.1V283.4z" fill="#F3827C"/></g></g><g><g><path d="M273,283.4h3v-0.6c0-0.9-0.8-1.7-1.7-1.7h-1.8c-0.9,0-1.7,0.8-1.7,1.7v4h2.2V283.4z" fill="#F3827C"/></g></g></g><g><path d="M238.6,281.7c-0.4,0-0.6-0.3-0.6-0.6v-5.3c0-0.4,0.3-0.6,0.6-0.6c0.4,0,0.6,0.3,0.6,0.6v5.3    C239.2,281.5,238.9,281.7,238.6,281.7z" fill="#244964"/></g><g><path d="M273.4,281.7c-0.4,0-0.6-0.3-0.6-0.6v-5.3c0-0.4,0.3-0.6,0.6-0.6s0.6,0.3,0.6,0.6v5.3    C274.1,281.5,273.8,281.7,273.4,281.7z" fill="#244964"/></g><g><path d="M269,305.7c-0.3,0-0.6-0.2-0.6-0.6c0-0.1-0.5-3.6-5.4-3.6c-0.1,0-0.2,0-0.2,0l-1.5-0.6h-10.5l-1.5,0.6    c-0.1,0-0.2,0-0.2,0c-4.9,0-5.4,3.5-5.4,3.6c0,0.3-0.3,0.6-0.7,0.6c-0.3,0-0.6-0.3-0.6-0.6V290c0-0.4,0.3-0.6,0.6-0.6h26    c0.4,0,0.6,0.3,0.6,0.6v15.1C269.6,305.4,269.4,305.7,269,305.7C269,305.7,269,305.7,269,305.7z M243.6,290.6v11.7    c0.9-1.1,2.5-2.1,5.3-2.1l1.5-0.6c0.1,0,0.2,0,0.2,0h10.8c0.1,0,0.2,0,0.2,0l1.5,0.6c2.7,0,4.3,1,5.2,2.1v-11.7H243.6z" fill="#244964"/></g><g><path d="M243,419.3C243,419.3,243,419.3,243,419.3c-0.4,0-0.6-0.3-0.6-0.6v-20.2c0-0.4,0.3-0.6,0.6-0.6h26    c0.4,0,0.6,0.3,0.6,0.6v20.2c0,0.3-0.3,0.6-0.6,0.6c-0.3,0-0.6-0.2-0.7-0.6c0-0.2-0.5-5.7-5.4-5.7c-0.1,0-0.2,0-0.3-0.1l-1.7-1.1    h-9.8l-1.7,1.1c-0.1,0.1-0.2,0.1-0.3,0.1c-4.9,0-5.4,5.5-5.4,5.7C243.6,419.1,243.3,419.3,243,419.3z M243.6,399.1v15.6    c1-1.6,2.6-2.9,5.2-3l1.7-1.1c0.1-0.1,0.2-0.1,0.3-0.1h10.2c0.1,0,0.2,0,0.3,0.1l1.7,1.1c2.6,0.1,4.2,1.4,5.2,3v-15.6H243.6z" fill="#244964"/></g><g><path d="M269,338.9c-0.3,0-0.6-0.2-0.6-0.6c0-0.2-0.5-4.3-5.4-4.3c-0.1,0-0.2,0-0.3-0.1l-0.7-0.4H250l-0.7,0.4    c-0.1,0-0.2,0.1-0.3,0.1c-4.9,0-5.4,4.2-5.4,4.3c0,0.3-0.3,0.6-0.7,0.6c-0.3,0-0.6-0.3-0.6-0.6v-15.6c0-0.4,0.3-0.6,0.6-0.6h26    c0.4,0,0.6,0.3,0.6,0.6v15.6C269.6,338.6,269.4,338.9,269,338.9C269,338.9,269,338.9,269,338.9z M243.6,323.3v11.8    c0.9-1.2,2.5-2.4,5.2-2.4l0.7-0.4c0.1,0,0.2-0.1,0.3-0.1h12.2c0.1,0,0.2,0,0.3,0.1l0.7,0.4c2.7,0,4.3,1.2,5.2,2.4v-11.8H243.6z" fill="#244964"/></g><g><path d="M243,373.3C243,373.3,243,373.3,243,373.3c-0.4,0-0.6-0.3-0.6-0.6v-16.1c0-0.4,0.3-0.6,0.6-0.6h26    c0.4,0,0.6,0.3,0.6,0.6v16.1c0,0.3-0.3,0.6-0.6,0.6c-0.4,0-0.6-0.2-0.7-0.6c0-0.2-0.5-4.7-5.4-4.7c-0.1,0-0.2,0-0.3-0.1l-1-0.5    h-11.4l-1,0.5c-0.1,0-0.2,0.1-0.3,0.1c-4.9,0-5.4,4.5-5.4,4.7C243.6,373.1,243.3,373.3,243,373.3z M243.6,357.2v12.1    c0.9-1.3,2.5-2.5,5.2-2.6l1-0.5c0.1,0,0.2-0.1,0.3-0.1h11.7c0.1,0,0.2,0,0.3,0.1l1,0.5c2.7,0,4.3,1.2,5.2,2.6v-12.1H243.6z" fill="#244964"/></g><g><g><path d="M243,451.3h-13.6c-0.7,0-1.3-0.6-1.3-1.3v-47.2c0-0.2,0-0.3,0.1-0.5l1.8-4.6v-35.6c0-0.1,0-0.2,0-0.3     l1.2-4.7v-28.9c0-0.1,0-0.2,0-0.3l1.5-5.4v-34.6c0-1.3,1.1-2.4,2.4-2.4h6.7c1.3,0,2.4,1.1,2.4,2.4v162.1     C244.3,450.8,243.7,451.3,243,451.3z M230.6,450.1h11.1v-162h-6.3v34.6c0,0.1,0,0.2,0,0.3l-1.5,5.4v28.9c0,0.1,0,0.2,0,0.3     l-1.2,4.7v35.7c0,0.2,0,0.3-0.1,0.5l-1.8,4.6V450.1z" fill="#244964"/></g><g><path d="M282.6,451.3H269c-0.7,0-1.3-0.6-1.3-1.3V287.9c0-1.3,1.1-2.4,2.4-2.4h6.7c1.3,0,2.4,1.1,2.4,2.4v34.6     l1.5,5.4c0,0.1,0,0.2,0,0.3v28.9l1.2,4.7c0,0.1,0,0.2,0,0.3v35.6l1.8,4.6c0.1,0.2,0.1,0.3,0.1,0.5v47.2     C283.9,450.8,283.3,451.3,282.6,451.3z M270.3,450.1h11.1v-46.9l-1.8-4.6c-0.1-0.2-0.1-0.3-0.1-0.5v-35.7l-1.2-4.7     c0-0.1,0-0.2,0-0.3v-28.9l-1.5-5.4c0-0.1,0-0.2,0-0.3v-34.6h-6.3V450.1z" fill="#244964"/></g></g><g><path d="M243,451.3h-13.6c-0.7,0-1.3-0.6-1.3-1.3v-47.2c0-0.2,0-0.3,0.1-0.5l1.8-4.6v-35.6c0-0.1,0-0.2,0-0.3    l1.2-4.7v-28.9c0-0.1,0-0.2,0-0.3l1.5-5.4v-34.6c0-1.3,1.1-2.4,2.4-2.4h6.7c1.3,0,2.4,1.1,2.4,2.4v162.1    C244.3,450.8,243.7,451.3,243,451.3z M230.6,450.1h11.1v-162h-6.3v34.6c0,0.1,0,0.2,0,0.3l-1.5,5.4v28.9c0,0.1,0,0.2,0,0.3    l-1.2,4.7v35.7c0,0.2,0,0.3-0.1,0.5l-1.8,4.6V450.1z" fill="#244964"/></g><g><g><path d="M241.2,288.1h-5.3c-0.7,0-1.3-0.6-1.3-1.3v-4c0-1.6,1.3-3,3-3h1.8c1.6,0,3,1.3,3,3v4     C242.5,287.5,241.9,288.1,241.2,288.1z M237.2,285.6h2.7v-2.7c0-0.2-0.2-0.4-0.4-0.4h-1.8c-0.2,0-0.4,0.2-0.4,0.4V285.6z" fill="#244964"/></g><g><path d="M276.1,288.1h-5.3c-0.7,0-1.3-0.6-1.3-1.3v-4c0-1.6,1.3-3,3-3h1.8c1.6,0,3,1.3,3,3v4     C277.3,287.5,276.8,288.1,276.1,288.1z M272.1,285.6h2.7v-2.7c0-0.2-0.2-0.4-0.4-0.4h-1.8c-0.2,0-0.4,0.2-0.4,0.4V285.6z" fill="#244964"/></g></g><g><g><path d="M247,298c-0.4,0-0.6-0.3-0.6-0.6v-4.5c0-0.4,0.3-0.6,0.6-0.6c0.4,0,0.6,0.3,0.6,0.6v4.5     C247.7,297.7,247.4,298,247,298z" fill="#244964"/></g><g><path d="M250,298c-0.4,0-0.6-0.3-0.6-0.6v-4.5c0-0.4,0.3-0.6,0.6-0.6c0.4,0,0.6,0.3,0.6,0.6v4.5     C250.7,297.7,250.4,298,250,298z" fill="#244964"/></g><g><path d="M253,298c-0.4,0-0.6-0.3-0.6-0.6v-4.5c0-0.4,0.3-0.6,0.6-0.6c0.4,0,0.6,0.3,0.6,0.6v4.5     C253.6,297.7,253.4,298,253,298z" fill="#244964"/></g><g><path d="M256,298c-0.4,0-0.6-0.3-0.6-0.6v-4.5c0-0.4,0.3-0.6,0.6-0.6c0.4,0,0.6,0.3,0.6,0.6v4.5     C256.6,297.7,256.4,298,256,298z" fill="#244964"/></g><g><path d="M259,298c-0.4,0-0.6-0.3-0.6-0.6v-4.5c0-0.4,0.3-0.6,0.6-0.6s0.6,0.3,0.6,0.6v4.5     C259.6,297.7,259.3,298,259,298z" fill="#244964"/></g><g><path d="M262,298c-0.4,0-0.6-0.3-0.6-0.6v-4.5c0-0.4,0.3-0.6,0.6-0.6s0.6,0.3,0.6,0.6v4.5     C262.6,297.7,262.3,298,262,298z" fill="#244964"/></g><g><path d="M265,298c-0.4,0-0.6-0.3-0.6-0.6v-4.5c0-0.4,0.3-0.6,0.6-0.6c0.4,0,0.6,0.3,0.6,0.6v4.5     C265.6,297.7,265.3,298,265,298z" fill="#244964"/></g><g><path d="M247,330.7c-0.4,0-0.6-0.3-0.6-0.6v-4.5c0-0.4,0.3-0.6,0.6-0.6c0.4,0,0.6,0.3,0.6,0.6v4.5     C247.7,330.4,247.4,330.7,247,330.7z" fill="#244964"/></g><g><path d="M250,330.7c-0.4,0-0.6-0.3-0.6-0.6v-4.5c0-0.4,0.3-0.6,0.6-0.6c0.4,0,0.6,0.3,0.6,0.6v4.5     C250.7,330.4,250.4,330.7,250,330.7z" fill="#244964"/></g><g><path d="M253,330.7c-0.4,0-0.6-0.3-0.6-0.6v-4.5c0-0.4,0.3-0.6,0.6-0.6c0.4,0,0.6,0.3,0.6,0.6v4.5     C253.6,330.4,253.4,330.7,253,330.7z" fill="#244964"/></g><g><path d="M256,330.7c-0.4,0-0.6-0.3-0.6-0.6v-4.5c0-0.4,0.3-0.6,0.6-0.6c0.4,0,0.6,0.3,0.6,0.6v4.5     C256.6,330.4,256.4,330.7,256,330.7z" fill="#244964"/></g><g><path d="M259,330.7c-0.4,0-0.6-0.3-0.6-0.6v-4.5c0-0.4,0.3-0.6,0.6-0.6s0.6,0.3,0.6,0.6v4.5     C259.6,330.4,259.3,330.7,259,330.7z" fill="#244964"/></g><g><path d="M262,330.7c-0.4,0-0.6-0.3-0.6-0.6v-4.5c0-0.4,0.3-0.6,0.6-0.6s0.6,0.3,0.6,0.6v4.5     C262.6,330.4,262.3,330.7,262,330.7z" fill="#244964"/></g><g><path d="M265,330.7c-0.4,0-0.6-0.3-0.6-0.6v-4.5c0-0.4,0.3-0.6,0.6-0.6c0.4,0,0.6,0.3,0.6,0.6v4.5     C265.6,330.4,265.3,330.7,265,330.7z" fill="#244964"/></g><g><path d="M247,364.6c-0.4,0-0.6-0.3-0.6-0.6v-4.5c0-0.4,0.3-0.6,0.6-0.6c0.4,0,0.6,0.3,0.6,0.6v4.5     C247.7,364.3,247.4,364.6,247,364.6z" fill="#244964"/></g><g><path d="M250,364.6c-0.4,0-0.6-0.3-0.6-0.6v-4.5c0-0.4,0.3-0.6,0.6-0.6c0.4,0,0.6,0.3,0.6,0.6v4.5     C250.7,364.3,250.4,364.6,250,364.6z" fill="#244964"/></g><g><path d="M253,364.6c-0.4,0-0.6-0.3-0.6-0.6v-4.5c0-0.4,0.3-0.6,0.6-0.6c0.4,0,0.6,0.3,0.6,0.6v4.5     C253.6,364.3,253.4,364.6,253,364.6z" fill="#244964"/></g><g><path d="M256,364.6c-0.4,0-0.6-0.3-0.6-0.6v-4.5c0-0.4,0.3-0.6,0.6-0.6c0.4,0,0.6,0.3,0.6,0.6v4.5     C256.6,364.3,256.4,364.6,256,364.6z" fill="#244964"/></g><g><path d="M259,364.6c-0.4,0-0.6-0.3-0.6-0.6v-4.5c0-0.4,0.3-0.6,0.6-0.6s0.6,0.3,0.6,0.6v4.5     C259.6,364.3,259.3,364.6,259,364.6z" fill="#244964"/></g><g><path d="M262,364.6c-0.4,0-0.6-0.3-0.6-0.6v-4.5c0-0.4,0.3-0.6,0.6-0.6s0.6,0.3,0.6,0.6v4.5     C262.6,364.3,262.3,364.6,262,364.6z" fill="#244964"/></g><g><path d="M265,364.6c-0.4,0-0.6-0.3-0.6-0.6v-4.5c0-0.4,0.3-0.6,0.6-0.6c0.4,0,0.6,0.3,0.6,0.6v4.5     C265.6,364.3,265.3,364.6,265,364.6z" fill="#244964"/></g><g><path d="M247,408.3c-0.4,0-0.6-0.3-0.6-0.6v-5.6c0-0.4,0.3-0.6,0.6-0.6c0.4,0,0.6,0.3,0.6,0.6v5.6     C247.7,408,247.4,408.3,247,408.3z" fill="#244964"/></g><g><path d="M250,408.3c-0.4,0-0.6-0.3-0.6-0.6v-5.6c0-0.4,0.3-0.6,0.6-0.6c0.4,0,0.6,0.3,0.6,0.6v5.6     C250.7,408,250.4,408.3,250,408.3z" fill="#244964"/></g><g><path d="M253,408.3c-0.4,0-0.6-0.3-0.6-0.6v-5.6c0-0.4,0.3-0.6,0.6-0.6c0.4,0,0.6,0.3,0.6,0.6v5.6     C253.6,408,253.4,408.3,253,408.3z" fill="#244964"/></g><g><path d="M256,408.3c-0.4,0-0.6-0.3-0.6-0.6v-5.6c0-0.4,0.3-0.6,0.6-0.6c0.4,0,0.6,0.3,0.6,0.6v5.6     C256.6,408,256.4,408.3,256,408.3z" fill="#244964"/></g><g><path d="M259,408.3c-0.4,0-0.6-0.3-0.6-0.6v-5.6c0-0.4,0.3-0.6,0.6-0.6s0.6,0.3,0.6,0.6v5.6     C259.6,408,259.3,408.3,259,408.3z" fill="#244964"/></g><g><path d="M262,408.3c-0.4,0-0.6-0.3-0.6-0.6v-5.6c0-0.4,0.3-0.6,0.6-0.6s0.6,0.3,0.6,0.6v5.6     C262.6,408,262.3,408.3,262,408.3z" fill="#244964"/></g><g><path d="M265,408.3c-0.4,0-0.6-0.3-0.6-0.6v-5.6c0-0.4,0.3-0.6,0.6-0.6c0.4,0,0.6,0.3,0.6,0.6v5.6     C265.6,408,265.3,408.3,265,408.3z" fill="#244964"/></g></g><g><g><rect fill="#244964" height="2.5" width="11.7" x="231.3" y="396.8"/></g><g><rect fill="#244964" height="2.5" width="11.7" x="231.3" y="360.4"/></g><g><rect fill="#244964" height="2.5" width="10.4" x="232.6" y="355.9"/></g><g><rect fill="#244964" height="2.5" width="10.4" x="232.6" y="327.5"/></g><g><rect fill="#244964" height="2.5" width="8.9" x="234.1" y="321.4"/></g><g><rect fill="#244964" height="2.5" width="13.6" x="229.4" y="401.8"/></g></g><g><g><rect fill="#244964" height="2.5" width="11.7" x="269" y="396.8"/></g><g><rect fill="#244964" height="2.5" width="11.7" x="269" y="360.4"/></g><g><rect fill="#244964" height="2.5" width="10.4" x="269" y="355.9"/></g><g><rect fill="#244964" height="2.5" width="10.4" x="269" y="327.5"/></g><g><rect fill="#244964" height="2.5" width="8.9" x="269" y="321.4"/></g><g><rect fill="#244964" height="2.5" width="13.6" x="269" y="401.8"/></g></g><g><path d="M319.2,317.1v-91.7l-3.3-12.4v-74.3l-4-14.3V35.5c0-1.6-1.3-2.8-2.8-2.8h-17c-1.6,0-2.8,1.3-2.8,2.8v88.9    V211v104.1v134.9h22.6h4h3.3h4.9V329.5L319.2,317.1z" fill="#EC5844"/></g><g opacity="0.5"><g><path d="M320.9,321.3h-23v-90h21.4v-6l-1.5-5.8h-20.4v-73.2h18.6v-7.7l-2.5-9h-15.6V40.2h14.1v-4.7     c0-1.6-1.3-2.8-2.8-2.8h-17c-1.6,0-2.8,1.3-2.8,2.8v414.6h10.2V337.5h24.6v-8L320.9,321.3z" fill="#A43D2D"/></g></g><g><path d="M207.9,498.5c29.4,5.6,62.1,9.2,91.2,2.4c14.3-3.3,28.5-7.7,42.1-13c3.1-1.2,6.4-2.6,9.8-4.1l-61.7-33.7    h-66.5l-63.4,34.7C174.7,491.3,191.4,495.3,207.9,498.5z" fill="#EC5844"/></g><g><path d="M169.9,488.8l61.3-38.7h-8.5l-63.6,34.6C162.7,486.2,166.3,487.6,169.9,488.8z" fill="#A43D2D"/></g><g><path d="M341.2,487.9c3-1.2,6.2-2.5,9.4-3.9l-62.3-33.9h-8.5l60.4,38.2C340.6,488.1,340.9,488,341.2,487.9z" fill="#A43D2D"/></g><g><path d="M222.8,40.8v25.8v0.3v12.4c0,0,1.1-10.7,15.4-10.7l4.1-1.7h27.5l4.1,1.7c14.3,0,15.4,10.7,15.4,10.7V66.9    v-0.3V40.8H222.8z" fill="#EB5743"/></g><g><path d="M222.8,318.2v32.6v19.1c0,0,1.1-16.1,15.4-16.1l4.8-3H269l4.8,3c14.3,0,15.4,16.1,15.4,16.1v-19.1v-32.6    H222.8z" fill="#EB5743"/></g><g><path d="M222.8,124.3v24.9v1.3v13.7c0,0,1.1-12.6,15.4-12.6l2.2-1.1h31.3l2.2,1.1c14.3,0,15.4,12.6,15.4,12.6    v-13.7v-1.3v-24.9H222.8z" fill="#EB5743"/></g><g><path d="M222.8,211v25.1v1v15c0,0,1.1-13.5,15.4-13.5l2.9-1.5H271l2.9,1.5c14.3,0,15.4,13.5,15.4,13.5v-15v-1V211    H222.8z" fill="#EB5743"/></g><g opacity="0.5"><g><rect fill="#A43D2D" height="5.4" width="66.5" x="222.8" y="40.8"/></g></g><g opacity="0.5"><g><rect fill="#A43D2D" height="7.5" width="66.5" x="222.8" y="318.2"/></g></g><g opacity="0.5"><g><rect fill="#A43D2D" height="6.4" width="66.5" x="222.8" y="124.3"/></g></g><g opacity="0.5"><g><rect fill="#A43D2D" height="4.7" width="66.5" x="222.8" y="211"/></g></g><g><path d="M236.9,40.8h-14.1v38.6c0,0,1-10.1,14.1-10.7V40.8z" fill="#A43D2D"/></g><g><path d="M236.9,318.2h-14.1v51.6c0,0,1-15.1,14.1-16V318.2z" fill="#A43D2D"/></g><g><path d="M236.9,124.3h-14.1v39.8c0,0,1-11.8,14.1-12.5V124.3z" fill="#A43D2D"/></g><g><path d="M236.9,211h-14.1v41.1c0,0,1-12.7,14.1-13.5V211z" fill="#A43D2D"/></g><g><path d="M219.9,32.7h-17c-1.6,0-2.8,1.3-2.8,2.8v88.9l-4,14.3v74.3l-3.3,12.4v91.7l-4.9,12.4v120.6h4.9h3.3h4h22.6    V315.2V211v-86.7V35.5C222.8,33.9,221.5,32.7,219.9,32.7z" fill="#EC5844"/></g><g opacity="0.5"><g><path d="M222.8,150.3v-19.1h-13.9V40.4h13.9v-4.9c0-1.6-1.3-2.8-2.8-2.8h-17c-1.6,0-2.8,1.3-2.8,2.8v88.9l-4,14.3     v74.3l-3.3,12.4v91.7l-4.9,12.4v120.6h10.3V339.6h24.6v-16.8h-21.6v-89.3h21.6v-16H205v-67.2H222.8z" fill="#A43D2D"/></g></g><g><polygon fill="#F1685A" points="192.8,316.6 192.8,317.1 187.9,329.5 187.9,330 222.8,330 222.8,316.6   "/></g><g><polygon fill="#F1685A" points="200.1,123.7 200.1,124.3 196.1,138.7 196.1,139.9 222.8,139.9 222.8,123.7   "/></g><g><polygon fill="#F1685A" points="196.1,212.9 196.1,212.9 193.1,224.5 222.8,224.5 222.8,212.9   "/></g><g><polygon fill="#F3827C" points="200.2,323.1 222.8,323.1 222.8,316.6 192.8,316.6 192.8,317.1 187.9,329.5 187.9,330 200.2,330       "/></g><g><polygon fill="#F3827C" points="206.1,130.8 222.8,130.8 222.8,123.7 200.1,123.7 200.1,124.3 196.1,138.7 196.1,139.9     206.1,139.9   "/></g><g><polygon fill="#F3827C" points="203.8,217.6 222.8,217.6 222.8,212.9 196.1,212.9 196.1,212.9 193.1,224.5 203.8,224.5   "/></g><g><polygon fill="#F1685A" points="311.9,124.3 311.9,123.9 289.2,123.9 289.2,139.5 315.9,139.5 315.9,138.7   "/></g><g><polygon fill="#F1685A" points="315.9,212.6 289.2,212.6 289.2,224.5 319,224.5 315.9,212.9   "/></g><g><polygon fill="#F1685A" points="319.3,317.3 289.2,317.3 289.2,330.8 324.1,330.8 324.1,329.5   "/></g><g><polygon fill="#F3827C" points="297.3,130.8 313.7,130.8 311.9,124.3 311.9,123.9 289.2,123.9 289.2,139.5 297.3,139.5   "/></g><g><polygon fill="#F3827C" points="297.8,217.2 317,217.2 315.9,212.9 315.9,212.6 289.2,212.6 289.2,224.5 297.8,224.5   "/></g><g><polygon fill="#F3827C" points="299.3,322.2 321.2,322.2 319.3,317.3 289.2,317.3 289.2,330.8 299.3,330.8   "/></g><g><g><g><path d="M213.7,18h-4.6c-2.4,0-4.4,2-4.4,4.4v10.3h13.4V22.4C218.1,19.9,216.2,18,213.7,18z" fill="#F1685A"/></g></g><g><g><path d="M302.9,18h-4.6c-2.4,0-4.4,2-4.4,4.4v10.3h13.4V22.4C307.3,19.9,305.3,18,302.9,18z" fill="#F1685A"/></g></g></g><g><g><g><path d="M210.1,23.9h8v-1.5c0-2.4-2-4.4-4.4-4.4h-4.6c-2.4,0-4.4,2-4.4,4.4v10.3h5.4V23.9z" fill="#F3827C"/></g></g><g><g><path d="M299.6,23.9h7.7v-1.5c0-2.4-2-4.4-4.4-4.4h-4.6c-2.4,0-4.4,2-4.4,4.4v10.3h5.7V23.9z" fill="#F3827C"/></g></g></g><g><g><path d="M211.4,20.5c-1.4,0-2.5-1.1-2.5-2.5V4.5c0-1.4,1.1-2.5,2.5-2.5c1.4,0,2.5,1.1,2.5,2.5V18     C214,19.4,212.8,20.5,211.4,20.5z" fill="#244964"/></g><g><path d="M300.6,20.5c-1.4,0-2.5-1.1-2.5-2.5V4.5c0-1.4,1.1-2.5,2.5-2.5c1.4,0,2.5,1.1,2.5,2.5V18     C303.1,19.4,302,20.5,300.6,20.5z" fill="#244964"/></g><g><path d="M289.2,80.6c-0.6,0-1.2-0.5-1.3-1.1c0-0.4-1.2-9.6-14.1-9.6c-0.2,0-0.3,0-0.5-0.1l-3.9-1.6h-27l-3.9,1.6     c-0.2,0.1-0.3,0.1-0.5,0.1c-12.9,0-14.1,9.2-14.1,9.6c-0.1,0.7-0.7,1.2-1.3,1.1c-0.7,0-1.2-0.6-1.2-1.3V40.8     c0-0.7,0.6-1.3,1.3-1.3h66.5c0.7,0,1.3,0.6,1.3,1.3v38.6C290.5,80,290,80.6,289.2,80.6C289.3,80.6,289.3,80.6,289.2,80.6z      M274.1,67.3c7.5,0.1,11.6,3,13.9,6V42h-64v31.2c2.2-2.9,6.3-5.9,13.9-6l3.9-1.6c0.2-0.1,0.3-0.1,0.5-0.1h27.5     c0.2,0,0.3,0,0.5,0.1L274.1,67.3z" fill="#244964"/></g><g><path d="M289.2,371.1c-0.7,0-1.2-0.5-1.3-1.2c0-0.6-1.2-14.9-14.1-14.9c-0.2,0-0.5-0.1-0.7-0.2l-4.5-2.8h-25.4     l-4.5,2.8c-0.2,0.1-0.4,0.2-0.7,0.2c-12.9,0-14.1,14.3-14.1,14.9c0,0.7-0.6,1.2-1.3,1.2c-0.7,0-1.2-0.6-1.2-1.3v-51.6     c0-0.7,0.6-1.3,1.3-1.3h66.5c0.7,0,1.3,0.6,1.3,1.3v51.6C290.5,370.5,290,371.1,289.2,371.1C289.3,371.1,289.3,371.1,289.2,371.1     z M274.2,352.5c7.5,0.1,11.5,4.4,13.7,8.6v-41.7h-64v41.7c2.2-4.3,6.3-8.5,13.7-8.6l4.5-2.8c0.2-0.1,0.4-0.2,0.7-0.2H269     c0.2,0,0.5,0.1,0.7,0.2L274.2,352.5z" fill="#244964"/></g><g><path d="M289.2,165.4c-0.7,0-1.2-0.5-1.3-1.2c0-0.5-1.2-11.4-14.1-11.4c-0.2,0-0.4,0-0.6-0.1l-2-1h-30.7l-2,1     c-0.2,0.1-0.4,0.1-0.6,0.1c-12.9,0-14.1,11-14.1,11.4c-0.1,0.7-0.6,1.2-1.3,1.2c-0.7,0-1.2-0.6-1.2-1.3v-39.8     c0-0.7,0.6-1.3,1.3-1.3h66.5c0.7,0,1.3,0.6,1.3,1.3v39.8C290.5,164.8,290,165.4,289.2,165.4C289.3,165.4,289.3,165.4,289.2,165.4     z M274.2,150.3c7.5,0.1,11.6,3.5,13.8,6.9v-31.6h-64v31.6c2.2-3.4,6.3-6.8,13.8-6.9l2-1c0.2-0.1,0.4-0.1,0.6-0.1h31.3     c0.2,0,0.4,0,0.6,0.1L274.2,150.3z" fill="#244964"/></g><g><path d="M289.2,253.4c-0.7,0-1.2-0.5-1.3-1.2c0-0.5-1.2-12.3-14.1-12.3c-0.2,0-0.4,0-0.6-0.1l-2.6-1.4h-29.3     l-2.6,1.4c-0.2,0.1-0.4,0.1-0.6,0.1c-13,0-14.1,11.8-14.1,12.3c-0.1,0.7-0.6,1.2-1.3,1.2c-0.7,0-1.2-0.6-1.2-1.3V211     c0-0.7,0.6-1.3,1.3-1.3h66.5c0.7,0,1.3,0.6,1.3,1.3v41.1C290.5,252.8,290,253.4,289.2,253.4C289.3,253.4,289.3,253.4,289.2,253.4     z M274.2,237.4c7.5,0.1,11.6,3.7,13.8,7.4v-32.5h-64v32.5c2.2-3.6,6.3-7.3,13.8-7.4l2.6-1.4c0.2-0.1,0.4-0.1,0.6-0.1H271     c0.2,0,0.4,0,0.6,0.1L274.2,237.4z" fill="#244964"/></g><g><g><path d="M222.7,452.6h-34.9c-1.4,0-2.5-1.1-2.5-2.5V329.5c0-0.3,0.1-0.6,0.2-0.9l4.8-12v-91.2      c0-0.2,0-0.4,0.1-0.7l3.2-12.1v-73.9c0-0.2,0-0.5,0.1-0.7l3.9-14V35.5c0-3,2.4-5.4,5.4-5.4h17c3,0,5.4,2.4,5.4,5.4v414.6      C225.3,451.5,224.2,452.6,222.7,452.6z M190.4,447.5h29.8V35.5c0-0.1-0.1-0.3-0.3-0.3h-17c-0.1,0-0.3,0.1-0.3,0.3v88.9      c0,0.2,0,0.5-0.1,0.7l-3.9,14v73.9c0,0.2,0,0.4-0.1,0.7l-3.2,12.1v91.4c0,0.3-0.1,0.6-0.2,0.9l-4.8,12V447.5z" fill="#244964"/></g><g><path d="M324.1,452.6h-34.9c-1.4,0-2.5-1.1-2.5-2.5V35.5c0-3,2.4-5.4,5.4-5.4h17c3,0,5.4,2.4,5.4,5.4V124l3.9,14      c0.1,0.2,0.1,0.5,0.1,0.7v73.9l3.2,12.1c0.1,0.2,0.1,0.4,0.1,0.7v91.2l4.8,12c0.1,0.3,0.2,0.6,0.2,0.9v120.6      C326.7,451.5,325.5,452.6,324.1,452.6z M291.8,447.5h29.8V330l-4.8-12c-0.1-0.3-0.2-0.6-0.2-0.9v-91.4l-3.2-12.1      c-0.1-0.2-0.1-0.4-0.1-0.7V139l-3.9-14c-0.1-0.2-0.1-0.5-0.1-0.7V35.5c0-0.1-0.1-0.3-0.3-0.3h-17c-0.1,0-0.3,0.1-0.3,0.3V447.5z      " fill="#244964"/></g></g><g><path d="M222.7,452.6h-34.9c-1.4,0-2.5-1.1-2.5-2.5V329.5c0-0.3,0.1-0.6,0.2-0.9l4.8-12v-91.2     c0-0.2,0-0.4,0.1-0.7l3.2-12.1v-73.9c0-0.2,0-0.5,0.1-0.7l3.9-14V35.5c0-3,2.4-5.4,5.4-5.4h17c3,0,5.4,2.4,5.4,5.4v414.6     C225.3,451.5,224.2,452.6,222.7,452.6z M190.4,447.5h29.8V35.5c0-0.1-0.1-0.3-0.3-0.3h-17c-0.1,0-0.3,0.1-0.3,0.3v88.9     c0,0.2,0,0.5-0.1,0.7l-3.9,14v73.9c0,0.2,0,0.4-0.1,0.7l-3.2,12.1v91.4c0,0.3-0.1,0.6-0.2,0.9l-4.8,12V447.5z" fill="#244964"/></g><g><g><path d="M218.1,35.2h-13.4c-1.4,0-2.5-1.1-2.5-2.5V22.4c0-3.8,3.1-6.9,6.9-6.9h4.6c3.8,0,6.9,3.1,6.9,6.9v10.3      C220.7,34.1,219.5,35.2,218.1,35.2z M207.2,30.1h8.3v-7.7c0-1-0.8-1.8-1.8-1.8h-4.6c-1,0-1.8,0.8-1.8,1.8V30.1z" fill="#244964"/></g><g><path d="M307.3,35.2h-13.4c-1.4,0-2.5-1.1-2.5-2.5V22.4c0-3.8,3.1-6.9,6.9-6.9h4.6c3.8,0,6.9,3.1,6.9,6.9v10.3      C309.8,34.1,308.7,35.2,307.3,35.2z M296.4,30.1h8.3v-7.7c0-1-0.8-1.8-1.8-1.8h-4.6c-1,0-1.8,0.8-1.8,1.8V30.1z" fill="#244964"/></g></g><g><g><path d="M233,60.8c-0.7,0-1.3-0.6-1.3-1.3V48.1c0-0.7,0.6-1.3,1.3-1.3c0.7,0,1.3,0.6,1.3,1.3v11.5      C234.3,60.3,233.7,60.8,233,60.8z" fill="#244964"/></g><g><path d="M240.7,60.8c-0.7,0-1.3-0.6-1.3-1.3V48.1c0-0.7,0.6-1.3,1.3-1.3c0.7,0,1.3,0.6,1.3,1.3v11.5      C242,60.3,241.4,60.8,240.7,60.8z" fill="#244964"/></g><g><path d="M248.3,60.8c-0.7,0-1.3-0.6-1.3-1.3V48.1c0-0.7,0.6-1.3,1.3-1.3c0.7,0,1.3,0.6,1.3,1.3v11.5      C249.6,60.3,249.1,60.8,248.3,60.8z" fill="#244964"/></g><g><path d="M256,60.8c-0.7,0-1.3-0.6-1.3-1.3V48.1c0-0.7,0.6-1.3,1.3-1.3c0.7,0,1.3,0.6,1.3,1.3v11.5      C257.3,60.3,256.7,60.8,256,60.8z" fill="#244964"/></g><g><path d="M263.7,60.8c-0.7,0-1.3-0.6-1.3-1.3V48.1c0-0.7,0.6-1.3,1.3-1.3c0.7,0,1.3,0.6,1.3,1.3v11.5      C264.9,60.3,264.4,60.8,263.7,60.8z" fill="#244964"/></g><g><path d="M271.3,60.8c-0.7,0-1.3-0.6-1.3-1.3V48.1c0-0.7,0.6-1.3,1.3-1.3c0.7,0,1.3,0.6,1.3,1.3v11.5      C272.6,60.3,272,60.8,271.3,60.8z" fill="#244964"/></g><g><path d="M279,60.8c-0.7,0-1.3-0.6-1.3-1.3V48.1c0-0.7,0.6-1.3,1.3-1.3c0.7,0,1.3,0.6,1.3,1.3v11.5      C280.2,60.3,279.7,60.8,279,60.8z" fill="#244964"/></g><g><path d="M233,144.4c-0.7,0-1.3-0.6-1.3-1.3v-11.5c0-0.7,0.6-1.3,1.3-1.3c0.7,0,1.3,0.6,1.3,1.3v11.5      C234.3,143.9,233.7,144.4,233,144.4z" fill="#244964"/></g><g><path d="M240.7,144.4c-0.7,0-1.3-0.6-1.3-1.3v-11.5c0-0.7,0.6-1.3,1.3-1.3c0.7,0,1.3,0.6,1.3,1.3v11.5      C242,143.9,241.4,144.4,240.7,144.4z" fill="#244964"/></g><g><path d="M248.3,144.4c-0.7,0-1.3-0.6-1.3-1.3v-11.5c0-0.7,0.6-1.3,1.3-1.3c0.7,0,1.3,0.6,1.3,1.3v11.5      C249.6,143.9,249.1,144.4,248.3,144.4z" fill="#244964"/></g><g><path d="M256,144.4c-0.7,0-1.3-0.6-1.3-1.3v-11.5c0-0.7,0.6-1.3,1.3-1.3c0.7,0,1.3,0.6,1.3,1.3v11.5      C257.3,143.9,256.7,144.4,256,144.4z" fill="#244964"/></g><g><path d="M263.7,144.4c-0.7,0-1.3-0.6-1.3-1.3v-11.5c0-0.7,0.6-1.3,1.3-1.3c0.7,0,1.3,0.6,1.3,1.3v11.5      C264.9,143.9,264.4,144.4,263.7,144.4z" fill="#244964"/></g><g><path d="M271.3,144.4c-0.7,0-1.3-0.6-1.3-1.3v-11.5c0-0.7,0.6-1.3,1.3-1.3c0.7,0,1.3,0.6,1.3,1.3v11.5      C272.6,143.9,272,144.4,271.3,144.4z" fill="#244964"/></g><g><path d="M279,144.4c-0.7,0-1.3-0.6-1.3-1.3v-11.5c0-0.7,0.6-1.3,1.3-1.3c0.7,0,1.3,0.6,1.3,1.3v11.5      C280.2,143.9,279.7,144.4,279,144.4z" fill="#244964"/></g><g><path d="M233,231.1c-0.7,0-1.3-0.6-1.3-1.3v-11.5c0-0.7,0.6-1.3,1.3-1.3c0.7,0,1.3,0.6,1.3,1.3v11.5      C234.3,230.5,233.7,231.1,233,231.1z" fill="#244964"/></g><g><path d="M240.7,231.1c-0.7,0-1.3-0.6-1.3-1.3v-11.5c0-0.7,0.6-1.3,1.3-1.3c0.7,0,1.3,0.6,1.3,1.3v11.5      C242,230.5,241.4,231.1,240.7,231.1z" fill="#244964"/></g><g><path d="M248.3,231.1c-0.7,0-1.3-0.6-1.3-1.3v-11.5c0-0.7,0.6-1.3,1.3-1.3c0.7,0,1.3,0.6,1.3,1.3v11.5      C249.6,230.5,249.1,231.1,248.3,231.1z" fill="#244964"/></g><g><path d="M256,231.1c-0.7,0-1.3-0.6-1.3-1.3v-11.5c0-0.7,0.6-1.3,1.3-1.3c0.7,0,1.3,0.6,1.3,1.3v11.5      C257.3,230.5,256.7,231.1,256,231.1z" fill="#244964"/></g><g><path d="M263.7,231.1c-0.7,0-1.3-0.6-1.3-1.3v-11.5c0-0.7,0.6-1.3,1.3-1.3c0.7,0,1.3,0.6,1.3,1.3v11.5      C264.9,230.5,264.4,231.1,263.7,231.1z" fill="#244964"/></g><g><path d="M271.3,231.1c-0.7,0-1.3-0.6-1.3-1.3v-11.5c0-0.7,0.6-1.3,1.3-1.3c0.7,0,1.3,0.6,1.3,1.3v11.5      C272.6,230.5,272,231.1,271.3,231.1z" fill="#244964"/></g><g><path d="M279,231.1c-0.7,0-1.3-0.6-1.3-1.3v-11.5c0-0.7,0.6-1.3,1.3-1.3c0.7,0,1.3,0.6,1.3,1.3v11.5      C280.2,230.5,279.7,231.1,279,231.1z" fill="#244964"/></g><g><path d="M233,343c-0.7,0-1.3-0.6-1.3-1.3v-14.4c0-0.7,0.6-1.3,1.3-1.3c0.7,0,1.3,0.6,1.3,1.3v14.4      C234.3,342.4,233.7,343,233,343z" fill="#244964"/></g><g><path d="M240.7,343c-0.7,0-1.3-0.6-1.3-1.3v-14.4c0-0.7,0.6-1.3,1.3-1.3c0.7,0,1.3,0.6,1.3,1.3v14.4      C242,342.4,241.4,343,240.7,343z" fill="#244964"/></g><g><path d="M248.3,343c-0.7,0-1.3-0.6-1.3-1.3v-14.4c0-0.7,0.6-1.3,1.3-1.3c0.7,0,1.3,0.6,1.3,1.3v14.4      C249.6,342.4,249.1,343,248.3,343z" fill="#244964"/></g><g><path d="M256,343c-0.7,0-1.3-0.6-1.3-1.3v-14.4c0-0.7,0.6-1.3,1.3-1.3c0.7,0,1.3,0.6,1.3,1.3v14.4      C257.3,342.4,256.7,343,256,343z" fill="#244964"/></g><g><path d="M263.7,343c-0.7,0-1.3-0.6-1.3-1.3v-14.4c0-0.7,0.6-1.3,1.3-1.3c0.7,0,1.3,0.6,1.3,1.3v14.4      C264.9,342.4,264.4,343,263.7,343z" fill="#244964"/></g><g><path d="M271.3,343c-0.7,0-1.3-0.6-1.3-1.3v-14.4c0-0.7,0.6-1.3,1.3-1.3c0.7,0,1.3,0.6,1.3,1.3v14.4      C272.6,342.4,272,343,271.3,343z" fill="#244964"/></g><g><path d="M279,343c-0.7,0-1.3-0.6-1.3-1.3v-14.4c0-0.7,0.6-1.3,1.3-1.3c0.7,0,1.3,0.6,1.3,1.3v14.4      C280.2,342.4,279.7,343,279,343z" fill="#244964"/></g></g></g><g><path d="M390.6,335.8c14.1,25,29.8,48.1,47.1,69.4c1.1-1.4,2.2-2.7,3.4-4c-56.2-69.7-86.7-148.9-103-209.7    c-23.7-88.1-23.8-158.1-23.8-158.7c0-1.4-1.1-2.5-2.5-2.6h0c-1.4,0-2.5,1.1-2.5,2.5c0,0.7,0.1,71.2,23.9,159.9    C347.1,244.7,366.4,292.9,390.6,335.8z" fill="#244964"/></g><g><path d="M335.2,473.9c-0.7,0-1.3-0.6-1.3-1.3V190.5c0-0.7,0.6-1.3,1.3-1.3c0.7,0,1.3,0.6,1.3,1.3v282.2    C336.5,473.4,335.9,473.9,335.2,473.9z" fill="#244964"/></g><g><path d="M349.2,478.8c-0.7,0-1.3-0.6-1.3-1.3V235c0-0.7,0.6-1.3,1.3-1.3c0.7,0,1.3,0.6,1.3,1.3v242.6    C350.5,478.3,349.9,478.8,349.2,478.8z" fill="#244964"/></g><g><path d="M365.4,476.3V274.5c0-0.7-0.6-1.3-1.3-1.3c-0.7,0-1.3,0.6-1.3,1.3v203.3    C363.7,477.3,364.5,476.8,365.4,476.3z" fill="#244964"/></g><g><path d="M384.1,462.2V315c0-0.7-0.6-1.3-1.3-1.3c-0.7,0-1.3,0.6-1.3,1.3v149.2    C382.4,463.5,383.2,462.9,384.1,462.2z" fill="#244964"/></g><g><path d="M403.9,446.1v-96.2c0-0.7-0.6-1.3-1.3-1.3c-0.7,0-1.3,0.6-1.3,1.3v98.3    C402.2,447.6,403.1,446.8,403.9,446.1z" fill="#244964"/></g><g><path d="M422.5,426.1v-46.8c0-0.7-0.6-1.3-1.3-1.3c-0.7,0-1.3,0.6-1.3,1.3v50.2    C420.8,428.4,421.6,427.3,422.5,426.1z" fill="#244964"/></g><g><path d="M374.3,470.2l-50.2-20.1h-34.9l61.9,33.7C359.5,479.9,368.1,475.2,374.3,470.2z" fill="#EC5844"/></g><g><path d="M73.8,405.8c17.5-21.5,33.4-44.9,47.6-70.1c24.2-42.9,43.5-91,57.5-143.2c23.9-88.7,23.9-159.2,23.9-159.9    c0-1.4-1.1-2.5-2.5-2.5h0c-1.4,0-2.5,1.1-2.5,2.6c0,0.7-0.1,70.5-23.8,158.6C157.6,252.4,127,331.9,70.4,401.8    C71.5,403.1,72.7,404.5,73.8,405.8z" fill="#244964"/></g><g><path d="M176.8,473.9c-0.7,0-1.3-0.6-1.3-1.3V190.5c0-0.7,0.6-1.3,1.3-1.3c0.7,0,1.3,0.6,1.3,1.3v282.2    C178,473.4,177.5,473.9,176.8,473.9z" fill="#244964"/></g><g><path d="M162.8,478.8c-0.7,0-1.3-0.6-1.3-1.3V235c0-0.7,0.6-1.3,1.3-1.3s1.3,0.6,1.3,1.3v242.6    C164.1,478.3,163.5,478.8,162.8,478.8z" fill="#244964"/></g><g><path d="M149.2,479.9V274.5c0-0.7-0.6-1.3-1.3-1.3c-0.7,0-1.3,0.6-1.3,1.3v204C147.5,479,148.3,479.5,149.2,479.9z    " fill="#244964"/></g><g><path d="M130.5,467.6V315c0-0.7-0.6-1.3-1.3-1.3c-0.7,0-1.3,0.6-1.3,1.3v150.4    C128.7,466.2,129.6,466.9,130.5,467.6z" fill="#244964"/></g><g><path d="M109,446.1c0.6,0.6,1.1,1.2,1.7,1.8v-98c0-0.7-0.6-1.3-1.3-1.3c-0.7,0-1.3,0.6-1.3,1.3v95.2    C108.4,445.5,108.7,445.8,109,446.1z" fill="#244964"/></g><g><path d="M89.7,425.7c0.8,0.9,1.6,1.8,2.4,2.7v-49.1c0-0.7-0.6-1.3-1.3-1.3s-1.3,0.6-1.3,1.3v46.2    C89.6,425.6,89.6,425.6,89.7,425.7z" fill="#244964"/></g><g><path d="M159.2,484.7l63.6-34.6h-34.9l-52.8,21.1C142.6,476.7,150.7,481.1,159.2,484.7z" fill="#EC5844"/></g><g><path d="M143.5,476.7l44.3-19.5l22.8-2.4l12.1-4.8h-34.9l-52.8,21.1C137.8,473.2,140.7,475,143.5,476.7z" fill="#F1685A"/></g><g><path d="M324.1,457.2l42.1,18.5c2.9-1.8,5.7-3.7,8.1-5.6l-50.2-20.1h-34.9l12.1,4.8L324.1,457.2z" fill="#F1685A"/></g><g><path d="M137.6,473l50.8-20.3h24.4l-56.5,30.8c2,0.9,4,1.7,6,2.5l61.8-33.6c1-0.6,1.5-1.7,1.3-2.9    c-0.3-1.1-1.3-1.9-2.5-1.9h-34.9c-0.3,0-0.6,0.1-0.9,0.2l-54.2,21.7C134.3,470.6,136,471.8,137.6,473z" fill="#244964"/></g><g><g><rect fill="#244964" height="2.5" width="29.9" x="192.8" y="315.8"/></g><g><rect fill="#244964" height="2.5" width="29.9" x="192.8" y="222.8"/></g><g><rect fill="#244964" height="2.5" width="26.6" x="196.1" y="211.2"/></g><g><rect fill="#244964" height="2.5" width="26.6" x="196.1" y="138.5"/></g><g><rect fill="#244964" height="2.5" width="22.6" x="200.1" y="123.1"/></g><g><rect fill="#244964" height="2.5" width="34.9" x="187.9" y="328.7"/></g></g><g><g><rect fill="#244964" height="2.5" width="29.9" x="289.3" y="315.8"/></g><g><rect fill="#244964" height="2.5" width="29.9" x="289.3" y="222.8"/></g><g><rect fill="#244964" height="2.5" width="26.6" x="289.3" y="211.2"/></g><g><rect fill="#244964" height="2.5" width="26.6" x="289.3" y="138.5"/></g><g><rect fill="#244964" height="2.5" width="22.6" x="289.3" y="123.1"/></g><g><rect fill="#244964" height="2.5" width="34.9" x="289.3" y="328.7"/></g></g><g><path d="M288,452.3l60.1,32.7c1.9-0.8,3.9-1.7,5.8-2.6l-54.7-29.8h24.4L372,472c1.4-1,2.6-2,3.8-3    c0.3-0.2,0.5-0.4,0.8-0.6l-51.5-20.6c-0.3-0.1-0.6-0.2-0.9-0.2h-34.9c-1.2,0-2.2,0.8-2.5,1.9C286.5,450.6,287,451.7,288,452.3z" fill="#244964"/></g><g><g><path d="M312.8,57.3v13.2c92.3,25,160.4,109.5,160.4,209.6c0,119.8-97.4,217.2-217.2,217.2S38.8,399.8,38.8,280.1     c0-100.2,68.2-184.7,160.6-209.7V57.2C99.9,82.5,26.1,172.8,26.1,280.1C26.1,406.9,129.2,510,256,510s229.9-103.1,229.9-229.9     C485.9,172.9,412.2,82.6,312.8,57.3z" fill="#244964"/></g></g></g></svg>