<?xml version="1.0" ?><!DOCTYPE svg  PUBLIC '-//W3C//DTD SVG 1.1//EN'  'http://www.w3.org/Graphics/SVG/1.1/DTD/svg11.dtd'><svg enable-background="new 0 0 512 512" id="Layer_1" version="1.1" viewBox="0 0 512 512" xml:space="preserve" xmlns="http://www.w3.org/2000/svg" xmlns:xlink="http://www.w3.org/1999/xlink"><g><g><g><g><circle cx="256" cy="303.1" fill="#D0E5F6" r="202.3"/></g></g></g><g><path d="M191.3,319.4h-49.2c-1.7,0-3.2-1.4-3.2-3.2c0-1.7,1.4-3.2,3.2-3.2h49.2c1.7,0,3.2,1.4,3.2,3.2    C194.4,317.9,193,319.4,191.3,319.4z" fill="#FFFFFF"/></g><g><path d="M368,269.1h-39.7c-0.5,2.2-1.3,4.3-2.4,6.3H368c1.7,0,3.2-1.4,3.2-3.2C371.2,270.5,369.8,269.1,368,269.1z    " fill="#FFFFFF"/></g><g><path d="M61.7,364.8c5.6,31.1,32.4,56.5,51.4,81.6c1.7,2.2,3.5,4.4,5.3,6.5c0.7,0.5,1.3,1,2,1.5v-92.7H60.6    C61.1,362.6,61.5,363.7,61.7,364.8z" fill="#A7CFE0"/><path d="M392.4,412.3V387h-25.3v-15.4h-19.4v-31.7h-4.2v31.7h-15.2V387h-32.4v112.1c22.4-4.6,44.5-12.6,64.1-23.9    c9.6-5.5,19.3-12,28-19.4v0c0.2-0.2,0.4-0.3,0.5-0.5c0.2-0.2,0.5-0.4,0.7-0.6c1-0.9,2-1.8,3-2.8c0.1-0.1,0.2-0.2,0.3-0.2v0    c1.8-1.7,3.6-3.5,5.3-5.4c9.8-10.7,17.4-23.1,26.7-34.1H392.4z" fill="#A7CFE0"/><path d="M190.3,371.6h-9.7v-31.2h-4.2v31.2h-5.5V387h-15.5v17.2h-25.7V462c2.3,1.7,4.5,3,7.6,4.8    c6.2,3.6,12,7.6,18.1,11.4l0,0l0,0c1.2,0.7,2.4,1.4,3.5,2.1c0.2,0.1,0.4,0.2,0.6,0.4c1.3,0.8,2.6,1.5,3.9,2.2    c14.5,7.7,29.9,14,45.8,18.1c2,0.3,4.1,0.6,6.1,0.9V387h-25.1V371.6z" fill="#A7CFE0"/></g><path d="M273.4,502.6c5-0.5,10-1.2,15-2.1v-96.3h-58.3v99.2C244.4,504.4,258.9,504.1,273.4,502.6z" fill="#C0C0C0"/><g><path d="M121.2,226.2H72.1c-1.7,0-3.2-1.4-3.2-3.2s1.4-3.2,3.2-3.2h49.2c1.7,0,3.2,1.4,3.2,3.2    S123,226.2,121.2,226.2z" fill="#FFFFFF"/></g><g><path d="M456.9,290.3h-32.8c-1.7,0-3.2,1.4-3.2,3.2s1.4,3.2,3.2,3.2h33.8C457.4,294.5,457,292.4,456.9,290.3z" fill="#FFFFFF"/></g><path d="M446,228.2c0-0.1-0.1-0.3-0.1-0.4c-0.3-0.7-0.7-1.6-0.8-1.8c-1.3-2.6-2.8-5.2-4.4-7.7   c-3.3-5.4-6.7-10.7-9.6-16.4c-0.6-1.1-1.1-2.3-1.5-3.4c-14.9,1.7-26.8,13.3-28.9,28.1c0,0,0,0,0,0c-10,0-18.1,7.8-18.7,17.7h66.7   c-1.5-4.2-2.1-8.7-2.5-13.3C446.1,230.1,446.1,229.1,446,228.2z" fill="#FFFFFF"/><path d="M163.1,281.7c-1.1-3.1-4-5.3-7.4-5.3c-0.6,0-1.2,0.1-1.8,0.2c0-0.1,0-0.1,0-0.2c0-10-8.1-18.2-18.2-18.2   c-2.8,0-5.3,0.6-7.7,1.7c-3.9-5-10-8.3-16.9-8.3c-10.8,0-19.8,8-21.2,18.5c0,0,0,0,0,0c-6.5,0-11.8,5.1-12.2,11.6H163.1z" fill="#FFFFFF"/><path d="M428.4,344.1c-0.5-11.4-9.8-20.5-21.3-20.5c-8.1,0-15.2,4.5-18.8,11.2c-1.7-0.9-3.6-1.4-5.6-1.4   c-6.1,0-11.1,4.7-11.6,10.8H428.4z" fill="#FFFFFF"/><g><g><g><path d="M256.7,505.1c10.7,0.2,21.5-0.3,32.1-2.5c4.1-0.8,8.3-1.7,12.4-2.8V361h-87.7v139.4      C227.8,502.9,242.2,504.8,256.7,505.1z" fill="#F5F7F9"/></g></g><g><g><rect fill="#F4B7A5" height="141.5" width="21.6" x="245.2" y="214.8"/></g></g><g><g><rect fill="#F59B80" height="141.5" width="6.9" x="259.9" y="214.8"/></g></g><g><g><g><path d="M204.1,498.7c5.4,1,10.8,2,16.3,2.9V374.5c0-27.6-33.2-159.7-33.2-159.7h-16.3       c0,0,33.2,132.1,33.2,159.7V498.7z" fill="#F5F7F9"/></g></g><g><g><path d="M307.9,498V374.5c0-27.6,33.2-159.7,33.2-159.7h-16.3c0,0-33.2,132.1-33.2,159.7V502       C297,500.8,302.6,499.6,307.9,498z" fill="#F5F7F9"/></g></g></g><g><g><path d="M236.5,503.8c6.7,0.7,13.5,1.2,20.2,1.4c6.3,0.1,12.6,0,18.8-0.6V360.7c0-26.3,25.7-145.9,25.7-145.9      h-16.7c-5.4,71.5-16.2,134.4-28.5,134.4c-12.4,0-23.1-62.8-28.5-134.4h-16.7c0,0,25.7,119.6,25.7,145.9V503.8z" fill="#F5F7F9"/></g></g><g><g><rect fill="#F59B80" height="19.5" width="21.6" x="245.2" y="214.8"/></g></g><g><g><g><path d="M192,234.3c-2.9-11.9-4.8-19.5-4.8-19.5h-16.3c0,0,1.9,7.6,4.8,19.5H192z" fill="#D3DAE2"/></g></g><g><g><path d="M336.3,234.3c2.9-11.9,4.8-19.5,4.8-19.5h-16.3c0,0-1.9,7.6-4.8,19.5H336.3z" fill="#D3DAE2"/></g></g></g><g><g><path d="M297.1,234.3c2.5-11.9,4.1-19.5,4.1-19.5h-16.7c-0.5,6.6-1,13.1-1.6,19.5H297.1z" fill="#D3DAE2"/></g></g><g><g><path d="M229.1,234.3c-0.6-6.4-1.1-12.9-1.6-19.5h-16.7c0,0,1.6,7.7,4.1,19.5H229.1z" fill="#D3DAE2"/></g></g><g><g><polygon fill="#E8EBED" points="148.6,144.5 256,149.9 363.4,144.5 375.2,123.4 136.8,123.4     "/></g></g><g><g><polygon fill="#E8EBED" points="148.6,144.5 256,149.9 363.4,144.5 375.2,123.4 136.8,123.4     "/></g></g><g><g><path d="M293.6,96.8c0-1.9,0.9-3.7,2.5-5.1L316.4,74H256h-60.4l20.3,17.7c1.6,1.4,2.5,3.2,2.5,5.1      c0,3.3-2.6,6.1-6.4,7.1l-75.2,19.5h238.4L300,104C296.2,103,293.6,100.1,293.6,96.8z" fill="#FFFFFF"/></g></g><g><g><polygon fill="#D3DAE2" points="201.3,144.5 179.3,123.4 136.8,123.4 148.6,144.5 256,149.9 277.3,148.9     "/></g></g><g opacity="0.5"><g><path d="M241.1,96.8c0-1.9-0.9-3.7-2.5-5.1L218.3,74h-22.7l20.3,17.7c1.6,1.4,2.5,3.2,2.5,5.1      c0,3.3-2.6,6.1-6.4,7.1l-75.2,19.5h42.5l55.3-19.5C238.5,103,241.1,100.1,241.1,96.8z" fill="#E8EBED"/></g></g><g><g><rect fill="#FFFFFF" height="22.2" width="45.8" x="233.1" y="55.9"/></g></g><g><g><rect fill="#E8EBED" height="18.1" width="13.8" x="233.1" y="55.9"/></g></g><g><g><path d="M336.9,219.5H175.1c-21.9,0-41.3-11.6-48-28.8l0,0h257.7v0C378.2,207.9,358.8,219.5,336.9,219.5z" fill="#F5F7F9"/></g></g><g><g><path d="M378.3,201.7c2.8-3.3,5-7,6.6-11H127.1c1.5,4,3.8,7.7,6.6,11H378.3z" fill="#D3DAE2"/></g></g><g opacity="0.5"><g><path d="M181.4,190.7L181.4,190.7h-54.2l0,0c6.6,17.1,26,28.8,48,28.8h54.2C207.4,219.5,188,207.9,181.4,190.7z" fill="#D3DAE2"/></g></g><g><g><rect fill="#BDE6FA" height="23.6" width="224.3" x="143.8" y="167.1"/></g></g><g><g><rect fill="#8DD4F5" height="23.6" width="53.2" x="143.8" y="167.1"/></g></g><g><g><polygon fill="#A7B4BF" points="420,154 368.3,140.9 143.7,140.9 92,154 143.7,167.1 368.3,167.1     "/></g></g><g><g><polygon fill="#9AA7B0" points="148.5,154 200.2,140.9 368.3,140.9 368.3,140.9 143.7,140.9 92,154 143.7,167.1 200.2,167.1           "/></g></g><g><g><rect fill="#76CAF1" height="10.3" width="224.3" x="143.8" y="167.1"/></g></g><g><g><polygon fill="#F5F7F9" points="415.4,152.8 368.3,140.9 143.7,140.9 96.6,152.8     "/></g></g><g><g><polygon fill="#D3DAE2" points="368.3,140.9 368.3,140.9 143.7,140.9 96.6,152.8 151.8,152.8 198.9,140.9     "/></g></g><g><g><path d="M278.9,77.4h-45.8c-1.9,0-3.5-1.5-3.5-3.5V55.9c0-1.9,1.5-3.5,3.5-3.5h45.8c1.9,0,3.5,1.5,3.5,3.5V74      C282.3,75.9,280.8,77.4,278.9,77.4z M236.6,70.5h38.8V59.3h-38.8V70.5z" fill="#244964"/></g></g><g><g><path d="M368.2,194.2H143.8c-1.9,0-3.5-1.5-3.5-3.5v-23.6c0-1.9,1.5-3.5,3.5-3.5h224.3c1.9,0,3.5,1.5,3.5,3.5      v23.6C371.6,192.7,370.1,194.2,368.2,194.2z M147.3,187.3h217.4v-16.7H147.3V187.3z" fill="#244964"/></g></g><g><g><path d="M368.3,170.6H143.7c-0.3,0-0.6,0-0.9-0.1l-51.7-13.1c-1.5-0.4-2.6-1.8-2.6-3.4c0-1.6,1.1-3,2.6-3.4      l51.7-13.1c0.3-0.1,0.6-0.1,0.9-0.1h224.6c0.3,0,0.6,0,0.9,0.1l51.7,13.1c1.5,0.4,2.6,1.8,2.6,3.4c0,1.6-1.1,3-2.6,3.4      l-51.7,13.1C368.9,170.6,368.6,170.6,368.3,170.6z M144.1,163.7h223.7l38.1-9.7l-38.1-9.7H144.1l-38.1,9.7L144.1,163.7z" fill="#244964"/></g></g><g><g><path d="M256,59.3c-1.9,0-3.5-1.5-3.5-3.5V5.5c0-1.9,1.5-3.5,3.5-3.5c1.9,0,3.5,1.5,3.5,3.5v50.4      C259.5,57.8,257.9,59.3,256,59.3z" fill="#244964"/></g></g><g><g><path d="M415.4,154.6H96.6c-1,0-1.7-0.8-1.7-1.7c0-1,0.8-1.7,1.7-1.7h318.7c1,0,1.7,0.8,1.7,1.7      C417.1,153.8,416.3,154.6,415.4,154.6z" fill="#244964"/></g></g><g><g><path d="M375.2,125.1H136.8c-1,0-1.7-0.8-1.7-1.7s0.8-1.7,1.7-1.7h238.4c1,0,1.7,0.8,1.7,1.7      S376.2,125.1,375.2,125.1z" fill="#244964"/></g></g><g><g><path d="M336.9,223H175.1c-23.4,0-44-12.5-51.2-31c-0.4-1.1-0.3-2.3,0.4-3.2c0.6-0.9,1.7-1.5,2.9-1.5h257.7      c1.1,0,2.2,0.6,2.9,1.5c0.6,0.9,0.8,2.1,0.4,3.2C380.9,210.5,360.3,223,336.9,223z M132.6,194.2c7.6,13.3,24,21.9,42.5,21.9      h161.8c18.5,0,34.9-8.6,42.5-21.9H132.6z" fill="#244964"/></g></g><g><g><path d="M233,361v142.4c2.3,0.3,4.6,0.5,6.9,0.8V360.7c0-0.2,0-0.4,0-0.6c-0.2-1.1-18-107.2-23.8-137.1h8.6      c2.6,30.8,7.4,62.8,13.2,88.2c9.5,41.4,15.6,41.4,18.2,41.4c2.3,0,7.8,0,17.6-41.4c3.7-15.6,10.3-47.6,13.8-88.2h8.6      c-5.9,29.9-23.7,136-23.8,137.1c0,0.2,0,0.4,0,0.6v144.1c2.3-0.2,4.6-0.4,6.9-0.6V361c1.1-6.5,20-119.1,24.6-140.7      c0.2-1,0-2.1-0.7-2.9c-0.7-0.8-1.6-1.3-2.7-1.3h-16c-1.8,0-3.3,1.4-3.4,3.2c-5.1,64.3-19.1,115.7-25,125.4      c-6.2-8.9-19.2-59.2-24.5-125.4c-0.1-1.8-1.6-3.2-3.4-3.2h-16c-1,0-2,0.5-2.7,1.3c-0.7,0.8-0.9,1.9-0.7,2.9      C213,241.9,231.9,354.5,233,361z" fill="#244964"/></g></g><g><g><path d="M342.6,217.3c-0.7-0.8-1.7-1.3-2.8-1.3c-1,0-1.9,0.1-2.9,0.1h-13.2c-1.6,0-3,1.1-3.4,2.6      c-7.5,30.4-32.1,131.4-32.1,155.8v128.2c0.2,0,0.4-0.1,0.6-0.1c2.1-0.4,4.2-0.9,6.4-1.4V374.5c0-23.3,24.7-125,31.3-151.5h9.2      c-8.6,34.7-31,128.2-31,151.5V499c2.3-0.6,4.6-1.3,6.9-2.1V374.5c0-24.2,26.6-132.7,31.9-154.2      C343.6,219.2,343.3,218.1,342.6,217.3z" fill="#244964"/></g></g><g><g><path d="M200.6,498c2.3,0.5,4.6,0.9,6.9,1.3V374.5c0-23.3-22.5-116.8-31-151.5h9.2      c6.5,26.5,31.3,128.2,31.3,151.5V501c2.3,0.4,4.6,0.8,6.9,1.1V374.5c0-24.4-24.6-125.4-32.1-155.8c-0.4-1.5-1.8-2.6-3.4-2.6      h-13.2c-1,0-1.9,0-2.9-0.1c-1.1-0.1-2.1,0.4-2.8,1.3c-0.7,0.8-0.9,2-0.7,3c5.3,21.5,31.9,130,31.9,154.2V498z" fill="#244964"/></g></g><g><g><path d="M256,350.9c-4.1,0-6.5-7.5-10.3-19.8c-0.8-2.5-1.5-4.8-2.2-7c-0.1-0.2-0.1-0.4-0.1-0.5v-104      c0-1,0.8-1.7,1.7-1.7h21.6c1,0,1.7,0.8,1.7,1.7v104c0,0.2,0,0.4-0.1,0.5c-0.7,2.2-1.4,4.5-2.2,7      C262.5,343.3,260.1,350.9,256,350.9z M246.9,323.2c0.7,2.1,1.4,4.4,2.1,6.8c1.7,5.8,5,16.4,7,17.3c2-0.9,5.2-11.6,7-17.3      c0.7-2.4,1.4-4.7,2.1-6.8v-102h-18.1V323.2z" fill="#244964"/></g></g><g><g><path d="M236.5,364.5h-17.4c-1.9,0-3.5-1.5-3.5-3.5s1.5-3.5,3.5-3.5h17.4c1.9,0,3.5,1.5,3.5,3.5      S238.4,364.5,236.5,364.5z" fill="#244964"/></g></g><g><g><path d="M292.4,364.5h-16.9c-1.9,0-3.5-1.5-3.5-3.5s1.5-3.5,3.5-3.5h16.9c1.9,0,3.5,1.5,3.5,3.5      S294.3,364.5,292.4,364.5z" fill="#244964"/></g></g><g><g><g><path d="M168.4,192.5c-1,0-1.7-0.8-1.7-1.7l0-23.6c0-1,0.8-1.7,1.7-1.7c1,0,1.7,0.8,1.7,1.7l0,23.6       C170.2,191.7,169.4,192.5,168.4,192.5z" fill="#244964"/></g></g><g><g><path d="M197.6,192.5c-1,0-1.7-0.8-1.7-1.7l0-23.6c0-1,0.8-1.7,1.7-1.7c1,0,1.7,0.8,1.7,1.7l0,23.6       C199.3,191.7,198.6,192.5,197.6,192.5z" fill="#244964"/></g></g><g><g><path d="M226.8,192.5c-1,0-1.7-0.8-1.7-1.7l0-23.6c0-1,0.8-1.7,1.7-1.7c1,0,1.7,0.8,1.7,1.7l0,23.6       C228.5,191.7,227.8,192.5,226.8,192.5z" fill="#244964"/></g></g><g><g><path d="M256,192.5c-1,0-1.7-0.8-1.7-1.7l0-23.6c0-1,0.8-1.7,1.7-1.7s1.7,0.8,1.7,1.7l0,23.6       C257.7,191.7,257,192.5,256,192.5z" fill="#244964"/></g></g><g><g><path d="M285.2,192.5c-1,0-1.7-0.8-1.7-1.7v-23.6c0-1,0.8-1.7,1.7-1.7c1,0,1.7,0.8,1.7,1.7v23.6       C286.9,191.7,286.1,192.5,285.2,192.5z" fill="#244964"/></g></g><g><g><path d="M314.4,192.5c-1,0-1.7-0.8-1.7-1.7l0-23.6c0-1,0.8-1.7,1.7-1.7c1,0,1.7,0.8,1.7,1.7l0,23.6       C316.1,191.7,315.3,192.5,314.4,192.5z" fill="#244964"/></g></g><g><g><path d="M343.6,192.5c-1,0-1.7-0.8-1.7-1.7v-23.6c0-1,0.8-1.7,1.7-1.7c1,0,1.7,0.8,1.7,1.7v23.6       C345.3,191.7,344.5,192.5,343.6,192.5z" fill="#244964"/></g></g></g><g><g><g><path d="M266.8,238.3h-21.6c-1,0-1.7-0.8-1.7-1.7s0.8-1.7,1.7-1.7h21.6c1,0,1.7,0.8,1.7,1.7       S267.8,238.3,266.8,238.3z" fill="#244964"/></g></g><g><g><path d="M266.8,254.2h-21.6c-1,0-1.7-0.8-1.7-1.7c0-1,0.8-1.7,1.7-1.7h21.6c1,0,1.7,0.8,1.7,1.7       C268.5,253.4,267.8,254.2,266.8,254.2z" fill="#244964"/></g></g><g><g><path d="M266.8,270.1h-21.6c-1,0-1.7-0.8-1.7-1.7c0-1,0.8-1.7,1.7-1.7h21.6c1,0,1.7,0.8,1.7,1.7       C268.5,269.4,267.8,270.1,266.8,270.1z" fill="#244964"/></g></g><g><g><path d="M266.8,286.1h-21.6c-1,0-1.7-0.8-1.7-1.7s0.8-1.7,1.7-1.7h21.6c1,0,1.7,0.8,1.7,1.7       S267.8,286.1,266.8,286.1z" fill="#244964"/></g></g><g><g><path d="M266.8,302h-21.6c-1,0-1.7-0.8-1.7-1.7s0.8-1.7,1.7-1.7h21.6c1,0,1.7,0.8,1.7,1.7S267.8,302,266.8,302z       " fill="#244964"/></g></g><g><g><path d="M266.8,317.9h-21.6c-1,0-1.7-0.8-1.7-1.7c0-1,0.8-1.7,1.7-1.7h21.6c1,0,1.7,0.8,1.7,1.7       C268.5,317.2,267.8,317.9,266.8,317.9z" fill="#244964"/></g></g><g><g><path d="M263.4,333.9h-17.1c-1,0-1.7-0.8-1.7-1.7c0-1,0.8-1.7,1.7-1.7h17.1c1,0,1.7,0.8,1.7,1.7       C265.1,333.1,264.4,333.9,263.4,333.9z" fill="#244964"/></g></g></g><g><g><path d="M365.5,144.3H146.5c-1.3,0-2.4-0.7-3-1.8l-9.7-17.5c-0.9-1.7-0.3-3.8,1.3-4.7c1.7-0.9,3.8-0.3,4.7,1.3      l8.8,15.7h214.8l8.8-15.7c0.9-1.7,3-2.3,4.7-1.3c1.7,0.9,2.3,3,1.3,4.7l-9.7,17.5C367.9,143.7,366.7,144.3,365.5,144.3z" fill="#244964"/></g></g><g><g><path d="M375.2,126.9c-0.3,0-0.6,0-0.9-0.1l-75.2-19.5c-5.4-1.4-9-5.6-9-10.5c0-2.9,1.3-5.7,3.7-7.7l13.4-11.7      H204.8l13.4,11.7c2.4,2.1,3.7,4.8,3.7,7.7c0,4.9-3.6,9.1-9,10.5l-75.2,19.5c-1.8,0.5-3.7-0.6-4.2-2.5c-0.5-1.8,0.6-3.7,2.5-4.2      l75.2-19.5c2.2-0.6,3.8-2.1,3.8-3.8c0-0.9-0.5-1.8-1.3-2.5l-20.3-17.7c-1.1-0.9-1.5-2.5-1-3.8c0.5-1.3,1.8-2.2,3.2-2.2h120.8      c1.4,0,2.7,0.9,3.2,2.2c0.5,1.3,0.1,2.9-1,3.8l-20.3,17.7c-0.8,0.7-1.3,1.6-1.3,2.5c0,1.7,1.6,3.2,3.8,3.8l75.2,19.5      c1.8,0.5,3,2.4,2.5,4.2C378.1,125.8,376.7,126.9,375.2,126.9z" fill="#244964"/></g></g></g><g><g><g><path d="M404.5,159.1c-1,0.4-2.1,0.6-3.2,0.7c-3.2,0.3-6.3,0.2-9.3-0.1c38,36.1,61.7,87,61.7,143.4      c0,109-88.7,197.7-197.7,197.7c-109,0-197.7-88.7-197.7-197.7c0-55.6,23.1-105.9,60.2-141.9c-1.4,0.1-2.8,0.3-4.2,0.3      c-2.9,0.1-5.1-0.9-6.7-2.4c-36.2,37.3-58.4,88.1-58.4,144C49.1,417.2,141.9,510,256,510c114.1,0,206.9-92.8,206.9-206.9      C462.9,247.2,440.6,196.4,404.5,159.1z" fill="#244964"/></g></g></g></g></svg>